SplineFontDB: 3.2
FontName: MatrixSansRaster-Regular
FullName: Matrix Sans Raster
FamilyName: Matrix Sans Raster
Weight: Regular
Copyright: Copyright 2022 The Matrix Sans Project Authors (https://github.com/FriedOrange/MatrixSans)
Version: 1.100
ItalicAngle: 0
UnderlinePosition: -150
UnderlineWidth: 100
Ascent: 800
Descent: 200
InvalidEm: 0
LayerCount: 2
Layer: 0 0 "Back" 1
Layer: 1 0 "Fore" 0
XUID: [1021 655 -629464056 810]
StyleMap: 0x0000
FSType: 0
OS2Version: 0
OS2_WeightWidthSlopeOnly: 0
OS2_UseTypoMetrics: 1
CreationTime: 1657964544
ModificationTime: 1672031338
PfmFamily: 81
TTFWeight: 400
TTFWidth: 5
LineGap: 0
VLineGap: 90
Panose: 4 1 6 4 2 11 2 2 3 2
OS2TypoAscent: 1000
OS2TypoAOffset: 0
OS2TypoDescent: -300
OS2TypoDOffset: 0
OS2TypoLinegap: 0
OS2WinAscent: 1000
OS2WinAOffset: 0
OS2WinDescent: 200
OS2WinDOffset: 0
HheadAscent: 1000
HheadAOffset: 0
HheadDescent: -300
HheadDOffset: 0
OS2SubXSize: 714
OS2SubYSize: 714
OS2SubXOff: 0
OS2SubYOff: 200
OS2SupXSize: 714
OS2SupYSize: 714
OS2SupXOff: 0
OS2SupYOff: 300
OS2StrikeYSize: 80
OS2StrikeYPos: 310
OS2CapHeight: 700
OS2XHeight: 500
OS2FamilyClass: 2058
OS2Vendor: 'PfEd'
MarkAttachClasses: 1
DEI: 91125
LangName: 1033 "" "" "" "" "" "" "" "" "" "Brad Neil" "" "" "http://friedorange.xyz/" "This Font Software is licensed under the SIL Open Font License, Version 1.1. This license is available with a FAQ at: https://scripts.sil.org/OFL" "https://scripts.sil.org/OFL"
Encoding: UnicodeFull
UnicodeInterp: none
NameList: AGL For New Fonts
DisplaySize: -48
AntiAlias: 1
FitToEm: 1
WinInfo: 48 16 14
BeginPrivate: 0
EndPrivate
TeXData: 1 0 0 629146 314573 209715 524288 1048576 0 783286 444596 497025 792723 393216 433062 380633 303038 157286 324010 404750 52429 2506097 1059062 262144
AnchorClass2: "marks_above"""  "marks_below"""  "ogonek"""  "marks_aboveright""" 
BeginChars: 1114236 489

StartChar: exclam
Encoding: 33 33 1
Width: 200
Flags: HMW
LayerCount: 2
Fore
SplineSet
35 50 m 0
 35 72 53 90 75 90 c 2
 125 90 l 2
 147 90 165 72 165 50 c 0
 165 28 147 10 125 10 c 2
 75 10 l 2
 53 10 35 28 35 50 c 0
35 250 m 0
 35 272 53 290 75 290 c 2
 125 290 l 2
 147 290 165 272 165 250 c 0
 165 228 147 210 125 210 c 2
 75 210 l 2
 53 210 35 228 35 250 c 0
35 350 m 0
 35 372 53 390 75 390 c 2
 125 390 l 2
 147 390 165 372 165 350 c 0
 165 328 147 310 125 310 c 2
 75 310 l 2
 53 310 35 328 35 350 c 0
35 450 m 0
 35 472 53 490 75 490 c 2
 125 490 l 2
 147 490 165 472 165 450 c 0
 165 428 147 410 125 410 c 2
 75 410 l 2
 53 410 35 428 35 450 c 0
35 550 m 0
 35 572 53 590 75 590 c 2
 125 590 l 2
 147 590 165 572 165 550 c 0
 165 528 147 510 125 510 c 2
 75 510 l 2
 53 510 35 528 35 550 c 0
35 650 m 0
 35 672 53 690 75 690 c 2
 125 690 l 2
 147 690 165 672 165 650 c 0
 165 628 147 610 125 610 c 2
 75 610 l 2
 53 610 35 628 35 650 c 0
EndSplineSet
EndChar

StartChar: quotedbl
Encoding: 34 34 2
Width: 400
Flags: HMW
LayerCount: 2
Fore
SplineSet
235 450 m 0
 235 472 253 490 275 490 c 2
 325 490 l 2
 347 490 365 472 365 450 c 0
 365 428 347 410 325 410 c 2
 275 410 l 2
 253 410 235 428 235 450 c 0
35 450 m 0
 35 472 53 490 75 490 c 2
 125 490 l 2
 147 490 165 472 165 450 c 0
 165 428 147 410 125 410 c 2
 75 410 l 2
 53 410 35 428 35 450 c 0
235 550 m 0
 235 572 253 590 275 590 c 2
 325 590 l 2
 347 590 365 572 365 550 c 0
 365 528 347 510 325 510 c 2
 275 510 l 2
 253 510 235 528 235 550 c 0
35 550 m 0
 35 572 53 590 75 590 c 2
 125 590 l 2
 147 590 165 572 165 550 c 0
 165 528 147 510 125 510 c 2
 75 510 l 2
 53 510 35 528 35 550 c 0
235 650 m 0
 235 672 253 690 275 690 c 2
 325 690 l 2
 347 690 365 672 365 650 c 0
 365 628 347 610 325 610 c 2
 275 610 l 2
 253 610 235 628 235 650 c 0
35 650 m 0
 35 672 53 690 75 690 c 2
 125 690 l 2
 147 690 165 672 165 650 c 0
 165 628 147 610 125 610 c 2
 75 610 l 2
 53 610 35 628 35 650 c 0
EndSplineSet
EndChar

StartChar: numbersign
Encoding: 35 35 3
Width: 600
Flags: HMW
LayerCount: 2
Fore
SplineSet
335 50 m 0
 335 72 353 90 375 90 c 2
 425 90 l 2
 447 90 465 72 465 50 c 0
 465 28 447 10 425 10 c 2
 375 10 l 2
 353 10 335 28 335 50 c 0
135 50 m 0
 135 72 153 90 175 90 c 2
 225 90 l 2
 247 90 265 72 265 50 c 0
 265 28 247 10 225 10 c 2
 175 10 l 2
 153 10 135 28 135 50 c 0
335 150 m 0
 335 172 353 190 375 190 c 2
 425 190 l 2
 447 190 465 172 465 150 c 0
 465 128 447 110 425 110 c 2
 375 110 l 2
 353 110 335 128 335 150 c 0
135 150 m 0
 135 172 153 190 175 190 c 2
 225 190 l 2
 247 190 265 172 265 150 c 0
 265 128 247 110 225 110 c 2
 175 110 l 2
 153 110 135 128 135 150 c 0
35 250 m 0
 35 272 53 290 75 290 c 2
 525 290 l 2
 547 290 565 272 565 250 c 0
 565 228 547 210 525 210 c 2
 75 210 l 2
 53 210 35 228 35 250 c 0
335 350 m 0
 335 372 353 390 375 390 c 2
 425 390 l 2
 447 390 465 372 465 350 c 0
 465 328 447 310 425 310 c 2
 375 310 l 2
 353 310 335 328 335 350 c 0
135 350 m 0
 135 372 153 390 175 390 c 2
 225 390 l 2
 247 390 265 372 265 350 c 0
 265 328 247 310 225 310 c 2
 175 310 l 2
 153 310 135 328 135 350 c 0
35 450 m 0
 35 472 53 490 75 490 c 2
 525 490 l 2
 547 490 565 472 565 450 c 0
 565 428 547 410 525 410 c 2
 75 410 l 2
 53 410 35 428 35 450 c 0
335 550 m 0
 335 572 353 590 375 590 c 2
 425 590 l 2
 447 590 465 572 465 550 c 0
 465 528 447 510 425 510 c 2
 375 510 l 2
 353 510 335 528 335 550 c 0
135 550 m 0
 135 572 153 590 175 590 c 2
 225 590 l 2
 247 590 265 572 265 550 c 0
 265 528 247 510 225 510 c 2
 175 510 l 2
 153 510 135 528 135 550 c 0
335 650 m 0
 335 672 353 690 375 690 c 2
 425 690 l 2
 447 690 465 672 465 650 c 0
 465 628 447 610 425 610 c 2
 375 610 l 2
 353 610 335 628 335 650 c 0
135 650 m 0
 135 672 153 690 175 690 c 2
 225 690 l 2
 247 690 265 672 265 650 c 0
 265 628 247 610 225 610 c 2
 175 610 l 2
 153 610 135 628 135 650 c 0
EndSplineSet
EndChar

StartChar: dollar
Encoding: 36 36 4
Width: 600
Flags: HMW
LayerCount: 2
Fore
SplineSet
235 50 m 0
 235 72 253 90 275 90 c 2
 325 90 l 2
 347 90 365 72 365 50 c 0
 365 28 347 10 325 10 c 2
 275 10 l 2
 253 10 235 28 235 50 c 0
35 150 m 0
 35 172 53 190 75 190 c 2
 425 190 l 2
 447 190 465 172 465 150 c 0
 465 128 447 110 425 110 c 2
 75 110 l 2
 53 110 35 128 35 150 c 0
435 250 m 0
 435 272 453 290 475 290 c 2
 525 290 l 2
 547 290 565 272 565 250 c 0
 565 228 547 210 525 210 c 2
 475 210 l 2
 453 210 435 228 435 250 c 0
235 250 m 0
 235 272 253 290 275 290 c 2
 325 290 l 2
 347 290 365 272 365 250 c 0
 365 228 347 210 325 210 c 2
 275 210 l 2
 253 210 235 228 235 250 c 0
135 350 m 0
 135 372 153 390 175 390 c 2
 425 390 l 2
 447 390 465 372 465 350 c 0
 465 328 447 310 425 310 c 2
 175 310 l 2
 153 310 135 328 135 350 c 0
235 450 m 0
 235 472 253 490 275 490 c 2
 325 490 l 2
 347 490 365 472 365 450 c 0
 365 428 347 410 325 410 c 2
 275 410 l 2
 253 410 235 428 235 450 c 0
35 450 m 0
 35 472 53 490 75 490 c 2
 125 490 l 2
 147 490 165 472 165 450 c 0
 165 428 147 410 125 410 c 2
 75 410 l 2
 53 410 35 428 35 450 c 0
135 550 m 0
 135 572 153 590 175 590 c 2
 525 590 l 2
 547 590 565 572 565 550 c 0
 565 528 547 510 525 510 c 2
 175 510 l 2
 153 510 135 528 135 550 c 0
235 650 m 0
 235 672 253 690 275 690 c 2
 325 690 l 2
 347 690 365 672 365 650 c 0
 365 628 347 610 325 610 c 2
 275 610 l 2
 253 610 235 628 235 650 c 0
EndSplineSet
EndChar

StartChar: percent
Encoding: 37 37 5
Width: 600
Flags: HMW
LayerCount: 2
Fore
SplineSet
335 50 m 0
 335 72 353 90 375 90 c 2
 525 90 l 2
 547 90 565 72 565 50 c 0
 565 28 547 10 525 10 c 2
 375 10 l 2
 353 10 335 28 335 50 c 0
335 150 m 0
 335 172 353 190 375 190 c 2
 525 190 l 2
 547 190 565 172 565 150 c 0
 565 128 547 110 525 110 c 2
 375 110 l 2
 353 110 335 128 335 150 c 0
35 150 m 0
 35 172 53 190 75 190 c 2
 125 190 l 2
 147 190 165 172 165 150 c 0
 165 128 147 110 125 110 c 2
 75 110 l 2
 53 110 35 128 35 150 c 0
135 250 m 0
 135 272 153 290 175 290 c 2
 225 290 l 2
 247 290 265 272 265 250 c 0
 265 228 247 210 225 210 c 2
 175 210 l 2
 153 210 135 228 135 250 c 0
235 350 m 0
 235 372 253 390 275 390 c 2
 325 390 l 2
 347 390 365 372 365 350 c 0
 365 328 347 310 325 310 c 2
 275 310 l 2
 253 310 235 328 235 350 c 0
335 450 m 0
 335 472 353 490 375 490 c 2
 425 490 l 2
 447 490 465 472 465 450 c 0
 465 428 447 410 425 410 c 2
 375 410 l 2
 353 410 335 428 335 450 c 0
435 550 m 0
 435 572 453 590 475 590 c 2
 525 590 l 2
 547 590 565 572 565 550 c 0
 565 528 547 510 525 510 c 2
 475 510 l 2
 453 510 435 528 435 550 c 0
35 550 m 0
 35 572 53 590 75 590 c 2
 225 590 l 2
 247 590 265 572 265 550 c 0
 265 528 247 510 225 510 c 2
 75 510 l 2
 53 510 35 528 35 550 c 0
35 650 m 0
 35 672 53 690 75 690 c 2
 225 690 l 2
 247 690 265 672 265 650 c 0
 265 628 247 610 225 610 c 2
 75 610 l 2
 53 610 35 628 35 650 c 0
EndSplineSet
EndChar

StartChar: ampersand
Encoding: 38 38 6
Width: 600
Flags: HMW
LayerCount: 2
Fore
SplineSet
435 50 m 0
 435 72 453 90 475 90 c 2
 525 90 l 2
 547 90 565 72 565 50 c 0
 565 28 547 10 525 10 c 2
 475 10 l 2
 453 10 435 28 435 50 c 0
135 50 m 0
 135 72 153 90 175 90 c 2
 325 90 l 2
 347 90 365 72 365 50 c 0
 365 28 347 10 325 10 c 2
 175 10 l 2
 153 10 135 28 135 50 c 0
335 150 m 0
 335 172 353 190 375 190 c 2
 425 190 l 2
 447 190 465 172 465 150 c 0
 465 128 447 110 425 110 c 2
 375 110 l 2
 353 110 335 128 335 150 c 0
35 150 m 0
 35 172 53 190 75 190 c 2
 125 190 l 2
 147 190 165 172 165 150 c 0
 165 128 147 110 125 110 c 2
 75 110 l 2
 53 110 35 128 35 150 c 0
435 250 m 0
 435 272 453 290 475 290 c 2
 525 290 l 2
 547 290 565 272 565 250 c 0
 565 228 547 210 525 210 c 2
 475 210 l 2
 453 210 435 228 435 250 c 0
235 250 m 0
 235 272 253 290 275 290 c 2
 325 290 l 2
 347 290 365 272 365 250 c 0
 365 228 347 210 325 210 c 2
 275 210 l 2
 253 210 235 228 235 250 c 0
35 250 m 0
 35 272 53 290 75 290 c 2
 125 290 l 2
 147 290 165 272 165 250 c 0
 165 228 147 210 125 210 c 2
 75 210 l 2
 53 210 35 228 35 250 c 0
135 350 m 0
 135 372 153 390 175 390 c 2
 225 390 l 2
 247 390 265 372 265 350 c 0
 265 328 247 310 225 310 c 2
 175 310 l 2
 153 310 135 328 135 350 c 0
235 450 m 0
 235 472 253 490 275 490 c 2
 325 490 l 2
 347 490 365 472 365 450 c 0
 365 428 347 410 325 410 c 2
 275 410 l 2
 253 410 235 428 235 450 c 0
35 450 m 0
 35 472 53 490 75 490 c 2
 125 490 l 2
 147 490 165 472 165 450 c 0
 165 428 147 410 125 410 c 2
 75 410 l 2
 53 410 35 428 35 450 c 0
235 550 m 0
 235 572 253 590 275 590 c 2
 325 590 l 2
 347 590 365 572 365 550 c 0
 365 528 347 510 325 510 c 2
 275 510 l 2
 253 510 235 528 235 550 c 0
35 550 m 0
 35 572 53 590 75 590 c 2
 125 590 l 2
 147 590 165 572 165 550 c 0
 165 528 147 510 125 510 c 2
 75 510 l 2
 53 510 35 528 35 550 c 0
135 650 m 0
 135 672 153 690 175 690 c 2
 225 690 l 2
 247 690 265 672 265 650 c 0
 265 628 247 610 225 610 c 2
 175 610 l 2
 153 610 135 628 135 650 c 0
EndSplineSet
EndChar

StartChar: quotesingle
Encoding: 39 39 7
Width: 200
Flags: HMW
LayerCount: 2
Fore
SplineSet
35 450 m 0
 35 472 53 490 75 490 c 2
 125 490 l 2
 147 490 165 472 165 450 c 0
 165 428 147 410 125 410 c 2
 75 410 l 2
 53 410 35 428 35 450 c 0
35 550 m 0
 35 572 53 590 75 590 c 2
 125 590 l 2
 147 590 165 572 165 550 c 0
 165 528 147 510 125 510 c 2
 75 510 l 2
 53 510 35 528 35 550 c 0
35 650 m 0
 35 672 53 690 75 690 c 2
 125 690 l 2
 147 690 165 672 165 650 c 0
 165 628 147 610 125 610 c 2
 75 610 l 2
 53 610 35 628 35 650 c 0
EndSplineSet
EndChar

StartChar: parenleft
Encoding: 40 40 8
Width: 400
Flags: HMW
LayerCount: 2
Fore
SplineSet
235 50 m 0
 235 72 253 90 275 90 c 2
 325 90 l 2
 347 90 365 72 365 50 c 0
 365 28 347 10 325 10 c 2
 275 10 l 2
 253 10 235 28 235 50 c 0
135 150 m 0
 135 172 153 190 175 190 c 2
 225 190 l 2
 247 190 265 172 265 150 c 0
 265 128 247 110 225 110 c 2
 175 110 l 2
 153 110 135 128 135 150 c 0
35 250 m 0
 35 272 53 290 75 290 c 2
 125 290 l 2
 147 290 165 272 165 250 c 0
 165 228 147 210 125 210 c 2
 75 210 l 2
 53 210 35 228 35 250 c 0
35 350 m 0
 35 372 53 390 75 390 c 2
 125 390 l 2
 147 390 165 372 165 350 c 0
 165 328 147 310 125 310 c 2
 75 310 l 2
 53 310 35 328 35 350 c 0
35 450 m 0
 35 472 53 490 75 490 c 2
 125 490 l 2
 147 490 165 472 165 450 c 0
 165 428 147 410 125 410 c 2
 75 410 l 2
 53 410 35 428 35 450 c 0
135 550 m 0
 135 572 153 590 175 590 c 2
 225 590 l 2
 247 590 265 572 265 550 c 0
 265 528 247 510 225 510 c 2
 175 510 l 2
 153 510 135 528 135 550 c 0
235 650 m 0
 235 672 253 690 275 690 c 2
 325 690 l 2
 347 690 365 672 365 650 c 0
 365 628 347 610 325 610 c 2
 275 610 l 2
 253 610 235 628 235 650 c 0
EndSplineSet
EndChar

StartChar: parenright
Encoding: 41 41 9
Width: 400
Flags: HMW
LayerCount: 2
Fore
SplineSet
35 50 m 0
 35 72 53 90 75 90 c 2
 125 90 l 2
 147 90 165 72 165 50 c 0
 165 28 147 10 125 10 c 2
 75 10 l 2
 53 10 35 28 35 50 c 0
135 150 m 0
 135 172 153 190 175 190 c 2
 225 190 l 2
 247 190 265 172 265 150 c 0
 265 128 247 110 225 110 c 2
 175 110 l 2
 153 110 135 128 135 150 c 0
235 250 m 0
 235 272 253 290 275 290 c 2
 325 290 l 2
 347 290 365 272 365 250 c 0
 365 228 347 210 325 210 c 2
 275 210 l 2
 253 210 235 228 235 250 c 0
235 350 m 0
 235 372 253 390 275 390 c 2
 325 390 l 2
 347 390 365 372 365 350 c 0
 365 328 347 310 325 310 c 2
 275 310 l 2
 253 310 235 328 235 350 c 0
235 450 m 0
 235 472 253 490 275 490 c 2
 325 490 l 2
 347 490 365 472 365 450 c 0
 365 428 347 410 325 410 c 2
 275 410 l 2
 253 410 235 428 235 450 c 0
135 550 m 0
 135 572 153 590 175 590 c 2
 225 590 l 2
 247 590 265 572 265 550 c 0
 265 528 247 510 225 510 c 2
 175 510 l 2
 153 510 135 528 135 550 c 0
35 650 m 0
 35 672 53 690 75 690 c 2
 125 690 l 2
 147 690 165 672 165 650 c 0
 165 628 147 610 125 610 c 2
 75 610 l 2
 53 610 35 628 35 650 c 0
EndSplineSet
EndChar

StartChar: asterisk
Encoding: 42 42 10
Width: 600
Flags: HMW
LayerCount: 2
Fore
SplineSet
235 150 m 0
 235 172 253 190 275 190 c 2
 325 190 l 2
 347 190 365 172 365 150 c 0
 365 128 347 110 325 110 c 2
 275 110 l 2
 253 110 235 128 235 150 c 0
435 250 m 0
 435 272 453 290 475 290 c 2
 525 290 l 2
 547 290 565 272 565 250 c 0
 565 228 547 210 525 210 c 2
 475 210 l 2
 453 210 435 228 435 250 c 0
235 250 m 0
 235 272 253 290 275 290 c 2
 325 290 l 2
 347 290 365 272 365 250 c 0
 365 228 347 210 325 210 c 2
 275 210 l 2
 253 210 235 228 235 250 c 0
35 250 m 0
 35 272 53 290 75 290 c 2
 125 290 l 2
 147 290 165 272 165 250 c 0
 165 228 147 210 125 210 c 2
 75 210 l 2
 53 210 35 228 35 250 c 0
135 350 m 0
 135 372 153 390 175 390 c 2
 425 390 l 2
 447 390 465 372 465 350 c 0
 465 328 447 310 425 310 c 2
 175 310 l 2
 153 310 135 328 135 350 c 0
435 450 m 0
 435 472 453 490 475 490 c 2
 525 490 l 2
 547 490 565 472 565 450 c 0
 565 428 547 410 525 410 c 2
 475 410 l 2
 453 410 435 428 435 450 c 0
235 450 m 0
 235 472 253 490 275 490 c 2
 325 490 l 2
 347 490 365 472 365 450 c 0
 365 428 347 410 325 410 c 2
 275 410 l 2
 253 410 235 428 235 450 c 0
35 450 m 0
 35 472 53 490 75 490 c 2
 125 490 l 2
 147 490 165 472 165 450 c 0
 165 428 147 410 125 410 c 2
 75 410 l 2
 53 410 35 428 35 450 c 0
235 550 m 0
 235 572 253 590 275 590 c 2
 325 590 l 2
 347 590 365 572 365 550 c 0
 365 528 347 510 325 510 c 2
 275 510 l 2
 253 510 235 528 235 550 c 0
EndSplineSet
EndChar

StartChar: plus
Encoding: 43 43 11
Width: 600
Flags: HMW
LayerCount: 2
Fore
SplineSet
235 150 m 0
 235 172 253 190 275 190 c 2
 325 190 l 2
 347 190 365 172 365 150 c 0
 365 128 347 110 325 110 c 2
 275 110 l 2
 253 110 235 128 235 150 c 0
235 250 m 0
 235 272 253 290 275 290 c 2
 325 290 l 2
 347 290 365 272 365 250 c 0
 365 228 347 210 325 210 c 2
 275 210 l 2
 253 210 235 228 235 250 c 0
35 350 m 0
 35 372 53 390 75 390 c 2
 525 390 l 2
 547 390 565 372 565 350 c 0
 565 328 547 310 525 310 c 2
 75 310 l 2
 53 310 35 328 35 350 c 0
235 450 m 0
 235 472 253 490 275 490 c 2
 325 490 l 2
 347 490 365 472 365 450 c 0
 365 428 347 410 325 410 c 2
 275 410 l 2
 253 410 235 428 235 450 c 0
235 550 m 0
 235 572 253 590 275 590 c 2
 325 590 l 2
 347 590 365 572 365 550 c 0
 365 528 347 510 325 510 c 2
 275 510 l 2
 253 510 235 528 235 550 c 0
EndSplineSet
EndChar

StartChar: comma
Encoding: 44 44 12
Width: 300
Flags: HMW
LayerCount: 2
Fore
SplineSet
35 -50 m 0
 35 -28 53 -10 75 -10 c 2
 125 -10 l 2
 147 -10 165 -28 165 -50 c 0
 165 -72 147 -90 125 -90 c 2
 75 -90 l 2
 53 -90 35 -72 35 -50 c 0
135 50 m 0
 135 72 153 90 175 90 c 2
 225 90 l 2
 247 90 265 72 265 50 c 0
 265 28 247 10 225 10 c 2
 175 10 l 2
 153 10 135 28 135 50 c 0
135 150 m 0
 135 172 153 190 175 190 c 2
 225 190 l 2
 247 190 265 172 265 150 c 0
 265 128 247 110 225 110 c 2
 175 110 l 2
 153 110 135 128 135 150 c 0
EndSplineSet
EndChar

StartChar: hyphen
Encoding: 45 45 13
Width: 500
Flags: HMW
LayerCount: 2
Fore
SplineSet
35 350 m 0
 35 372 53 390 75 390 c 2
 425 390 l 2
 447 390 465 372 465 350 c 0
 465 328 447 310 425 310 c 2
 75 310 l 2
 53 310 35 328 35 350 c 0
EndSplineSet
EndChar

StartChar: period
Encoding: 46 46 14
Width: 200
Flags: HMW
LayerCount: 2
Fore
SplineSet
35 50 m 0
 35 72 53 90 75 90 c 2
 125 90 l 2
 147 90 165 72 165 50 c 0
 165 28 147 10 125 10 c 2
 75 10 l 2
 53 10 35 28 35 50 c 0
EndSplineSet
EndChar

StartChar: slash
Encoding: 47 47 15
Width: 600
Flags: HMW
LayerCount: 2
Fore
SplineSet
35 150 m 0
 35 172 53 190 75 190 c 2
 125 190 l 2
 147 190 165 172 165 150 c 0
 165 128 147 110 125 110 c 2
 75 110 l 2
 53 110 35 128 35 150 c 0
135 250 m 0
 135 272 153 290 175 290 c 2
 225 290 l 2
 247 290 265 272 265 250 c 0
 265 228 247 210 225 210 c 2
 175 210 l 2
 153 210 135 228 135 250 c 0
235 350 m 0
 235 372 253 390 275 390 c 2
 325 390 l 2
 347 390 365 372 365 350 c 0
 365 328 347 310 325 310 c 2
 275 310 l 2
 253 310 235 328 235 350 c 0
335 450 m 0
 335 472 353 490 375 490 c 2
 425 490 l 2
 447 490 465 472 465 450 c 0
 465 428 447 410 425 410 c 2
 375 410 l 2
 353 410 335 428 335 450 c 0
435 550 m 0
 435 572 453 590 475 590 c 2
 525 590 l 2
 547 590 565 572 565 550 c 0
 565 528 547 510 525 510 c 2
 475 510 l 2
 453 510 435 528 435 550 c 0
EndSplineSet
EndChar

StartChar: zero
Encoding: 48 48 16
Width: 600
Flags: HMW
LayerCount: 2
Fore
SplineSet
135 50 m 0
 135 72 153 90 175 90 c 2
 425 90 l 2
 447 90 465 72 465 50 c 0
 465 28 447 10 425 10 c 2
 175 10 l 2
 153 10 135 28 135 50 c 0
435 150 m 0
 435 172 453 190 475 190 c 2
 525 190 l 2
 547 190 565 172 565 150 c 0
 565 128 547 110 525 110 c 2
 475 110 l 2
 453 110 435 128 435 150 c 0
35 150 m 0
 35 172 53 190 75 190 c 2
 125 190 l 2
 147 190 165 172 165 150 c 0
 165 128 147 110 125 110 c 2
 75 110 l 2
 53 110 35 128 35 150 c 0
435 250 m 0
 435 272 453 290 475 290 c 2
 525 290 l 2
 547 290 565 272 565 250 c 0
 565 228 547 210 525 210 c 2
 475 210 l 2
 453 210 435 228 435 250 c 0
35 250 m 0
 35 272 53 290 75 290 c 2
 225 290 l 2
 247 290 265 272 265 250 c 0
 265 228 247 210 225 210 c 2
 75 210 l 2
 53 210 35 228 35 250 c 0
435 350 m 0
 435 372 453 390 475 390 c 2
 525 390 l 2
 547 390 565 372 565 350 c 0
 565 328 547 310 525 310 c 2
 475 310 l 2
 453 310 435 328 435 350 c 0
235 350 m 0
 235 372 253 390 275 390 c 2
 325 390 l 2
 347 390 365 372 365 350 c 0
 365 328 347 310 325 310 c 2
 275 310 l 2
 253 310 235 328 235 350 c 0
35 350 m 0
 35 372 53 390 75 390 c 2
 125 390 l 2
 147 390 165 372 165 350 c 0
 165 328 147 310 125 310 c 2
 75 310 l 2
 53 310 35 328 35 350 c 0
335 450 m 0
 335 472 353 490 375 490 c 2
 525 490 l 2
 547 490 565 472 565 450 c 0
 565 428 547 410 525 410 c 2
 375 410 l 2
 353 410 335 428 335 450 c 0
35 450 m 0
 35 472 53 490 75 490 c 2
 125 490 l 2
 147 490 165 472 165 450 c 0
 165 428 147 410 125 410 c 2
 75 410 l 2
 53 410 35 428 35 450 c 0
435 550 m 0
 435 572 453 590 475 590 c 2
 525 590 l 2
 547 590 565 572 565 550 c 0
 565 528 547 510 525 510 c 2
 475 510 l 2
 453 510 435 528 435 550 c 0
35 550 m 0
 35 572 53 590 75 590 c 2
 125 590 l 2
 147 590 165 572 165 550 c 0
 165 528 147 510 125 510 c 2
 75 510 l 2
 53 510 35 528 35 550 c 0
135 650 m 0
 135 672 153 690 175 690 c 2
 425 690 l 2
 447 690 465 672 465 650 c 0
 465 628 447 610 425 610 c 2
 175 610 l 2
 153 610 135 628 135 650 c 0
EndSplineSet
EndChar

StartChar: one
Encoding: 49 49 17
Width: 400
Flags: HMW
LayerCount: 2
Fore
SplineSet
35 50 m 0
 35 72 53 90 75 90 c 2
 325 90 l 2
 347 90 365 72 365 50 c 0
 365 28 347 10 325 10 c 2
 75 10 l 2
 53 10 35 28 35 50 c 0
135 150 m 0
 135 172 153 190 175 190 c 2
 225 190 l 2
 247 190 265 172 265 150 c 0
 265 128 247 110 225 110 c 2
 175 110 l 2
 153 110 135 128 135 150 c 0
135 250 m 0
 135 272 153 290 175 290 c 2
 225 290 l 2
 247 290 265 272 265 250 c 0
 265 228 247 210 225 210 c 2
 175 210 l 2
 153 210 135 228 135 250 c 0
135 350 m 0
 135 372 153 390 175 390 c 2
 225 390 l 2
 247 390 265 372 265 350 c 0
 265 328 247 310 225 310 c 2
 175 310 l 2
 153 310 135 328 135 350 c 0
135 450 m 0
 135 472 153 490 175 490 c 2
 225 490 l 2
 247 490 265 472 265 450 c 0
 265 428 247 410 225 410 c 2
 175 410 l 2
 153 410 135 428 135 450 c 0
35 550 m 0
 35 572 53 590 75 590 c 2
 225 590 l 2
 247 590 265 572 265 550 c 0
 265 528 247 510 225 510 c 2
 75 510 l 2
 53 510 35 528 35 550 c 0
135 650 m 0
 135 672 153 690 175 690 c 2
 225 690 l 2
 247 690 265 672 265 650 c 0
 265 628 247 610 225 610 c 2
 175 610 l 2
 153 610 135 628 135 650 c 0
EndSplineSet
EndChar

StartChar: two
Encoding: 50 50 18
Width: 600
Flags: HMW
LayerCount: 2
Fore
SplineSet
35 50 m 0
 35 72 53 90 75 90 c 2
 525 90 l 2
 547 90 565 72 565 50 c 0
 565 28 547 10 525 10 c 2
 75 10 l 2
 53 10 35 28 35 50 c 0
35 150 m 0
 35 172 53 190 75 190 c 2
 125 190 l 2
 147 190 165 172 165 150 c 0
 165 128 147 110 125 110 c 2
 75 110 l 2
 53 110 35 128 35 150 c 0
135 250 m 0
 135 272 153 290 175 290 c 2
 225 290 l 2
 247 290 265 272 265 250 c 0
 265 228 247 210 225 210 c 2
 175 210 l 2
 153 210 135 228 135 250 c 0
235 350 m 0
 235 372 253 390 275 390 c 2
 425 390 l 2
 447 390 465 372 465 350 c 0
 465 328 447 310 425 310 c 2
 275 310 l 2
 253 310 235 328 235 350 c 0
435 450 m 0
 435 472 453 490 475 490 c 2
 525 490 l 2
 547 490 565 472 565 450 c 0
 565 428 547 410 525 410 c 2
 475 410 l 2
 453 410 435 428 435 450 c 0
435 550 m 0
 435 572 453 590 475 590 c 2
 525 590 l 2
 547 590 565 572 565 550 c 0
 565 528 547 510 525 510 c 2
 475 510 l 2
 453 510 435 528 435 550 c 0
35 550 m 0
 35 572 53 590 75 590 c 2
 125 590 l 2
 147 590 165 572 165 550 c 0
 165 528 147 510 125 510 c 2
 75 510 l 2
 53 510 35 528 35 550 c 0
135 650 m 0
 135 672 153 690 175 690 c 2
 425 690 l 2
 447 690 465 672 465 650 c 0
 465 628 447 610 425 610 c 2
 175 610 l 2
 153 610 135 628 135 650 c 0
EndSplineSet
EndChar

StartChar: three
Encoding: 51 51 19
Width: 600
Flags: HMW
LayerCount: 2
Fore
SplineSet
135 50 m 0
 135 72 153 90 175 90 c 2
 425 90 l 2
 447 90 465 72 465 50 c 0
 465 28 447 10 425 10 c 2
 175 10 l 2
 153 10 135 28 135 50 c 0
435 150 m 0
 435 172 453 190 475 190 c 2
 525 190 l 2
 547 190 565 172 565 150 c 0
 565 128 547 110 525 110 c 2
 475 110 l 2
 453 110 435 128 435 150 c 0
35 150 m 0
 35 172 53 190 75 190 c 2
 125 190 l 2
 147 190 165 172 165 150 c 0
 165 128 147 110 125 110 c 2
 75 110 l 2
 53 110 35 128 35 150 c 0
435 250 m 0
 435 272 453 290 475 290 c 2
 525 290 l 2
 547 290 565 272 565 250 c 0
 565 228 547 210 525 210 c 2
 475 210 l 2
 453 210 435 228 435 250 c 0
235 350 m 0
 235 372 253 390 275 390 c 2
 425 390 l 2
 447 390 465 372 465 350 c 0
 465 328 447 310 425 310 c 2
 275 310 l 2
 253 310 235 328 235 350 c 0
435 450 m 0
 435 472 453 490 475 490 c 2
 525 490 l 2
 547 490 565 472 565 450 c 0
 565 428 547 410 525 410 c 2
 475 410 l 2
 453 410 435 428 435 450 c 0
435 550 m 0
 435 572 453 590 475 590 c 2
 525 590 l 2
 547 590 565 572 565 550 c 0
 565 528 547 510 525 510 c 2
 475 510 l 2
 453 510 435 528 435 550 c 0
35 550 m 0
 35 572 53 590 75 590 c 2
 125 590 l 2
 147 590 165 572 165 550 c 0
 165 528 147 510 125 510 c 2
 75 510 l 2
 53 510 35 528 35 550 c 0
135 650 m 0
 135 672 153 690 175 690 c 2
 425 690 l 2
 447 690 465 672 465 650 c 0
 465 628 447 610 425 610 c 2
 175 610 l 2
 153 610 135 628 135 650 c 0
EndSplineSet
EndChar

StartChar: four
Encoding: 52 52 20
Width: 600
Flags: HMW
LayerCount: 2
Fore
SplineSet
335 50 m 0
 335 72 353 90 375 90 c 2
 425 90 l 2
 447 90 465 72 465 50 c 0
 465 28 447 10 425 10 c 2
 375 10 l 2
 353 10 335 28 335 50 c 0
335 150 m 0
 335 172 353 190 375 190 c 2
 425 190 l 2
 447 190 465 172 465 150 c 0
 465 128 447 110 425 110 c 2
 375 110 l 2
 353 110 335 128 335 150 c 0
35 250 m 0
 35 272 53 290 75 290 c 2
 525 290 l 2
 547 290 565 272 565 250 c 0
 565 228 547 210 525 210 c 2
 75 210 l 2
 53 210 35 228 35 250 c 0
335 350 m 0
 335 372 353 390 375 390 c 2
 425 390 l 2
 447 390 465 372 465 350 c 0
 465 328 447 310 425 310 c 2
 375 310 l 2
 353 310 335 328 335 350 c 0
35 350 m 0
 35 372 53 390 75 390 c 2
 125 390 l 2
 147 390 165 372 165 350 c 0
 165 328 147 310 125 310 c 2
 75 310 l 2
 53 310 35 328 35 350 c 0
335 450 m 0
 335 472 353 490 375 490 c 2
 425 490 l 2
 447 490 465 472 465 450 c 0
 465 428 447 410 425 410 c 2
 375 410 l 2
 353 410 335 428 335 450 c 0
135 450 m 0
 135 472 153 490 175 490 c 2
 225 490 l 2
 247 490 265 472 265 450 c 0
 265 428 247 410 225 410 c 2
 175 410 l 2
 153 410 135 428 135 450 c 0
235 550 m 0
 235 572 253 590 275 590 c 2
 425 590 l 2
 447 590 465 572 465 550 c 0
 465 528 447 510 425 510 c 2
 275 510 l 2
 253 510 235 528 235 550 c 0
335 650 m 0
 335 672 353 690 375 690 c 2
 425 690 l 2
 447 690 465 672 465 650 c 0
 465 628 447 610 425 610 c 2
 375 610 l 2
 353 610 335 628 335 650 c 0
EndSplineSet
EndChar

StartChar: five
Encoding: 53 53 21
Width: 600
Flags: HMW
LayerCount: 2
Fore
SplineSet
135 50 m 0
 135 72 153 90 175 90 c 2
 425 90 l 2
 447 90 465 72 465 50 c 0
 465 28 447 10 425 10 c 2
 175 10 l 2
 153 10 135 28 135 50 c 0
435 150 m 0
 435 172 453 190 475 190 c 2
 525 190 l 2
 547 190 565 172 565 150 c 0
 565 128 547 110 525 110 c 2
 475 110 l 2
 453 110 435 128 435 150 c 0
35 150 m 0
 35 172 53 190 75 190 c 2
 125 190 l 2
 147 190 165 172 165 150 c 0
 165 128 147 110 125 110 c 2
 75 110 l 2
 53 110 35 128 35 150 c 0
435 250 m 0
 435 272 453 290 475 290 c 2
 525 290 l 2
 547 290 565 272 565 250 c 0
 565 228 547 210 525 210 c 2
 475 210 l 2
 453 210 435 228 435 250 c 0
435 350 m 0
 435 372 453 390 475 390 c 2
 525 390 l 2
 547 390 565 372 565 350 c 0
 565 328 547 310 525 310 c 2
 475 310 l 2
 453 310 435 328 435 350 c 0
35 450 m 0
 35 472 53 490 75 490 c 2
 425 490 l 2
 447 490 465 472 465 450 c 0
 465 428 447 410 425 410 c 2
 75 410 l 2
 53 410 35 428 35 450 c 0
35 550 m 0
 35 572 53 590 75 590 c 2
 125 590 l 2
 147 590 165 572 165 550 c 0
 165 528 147 510 125 510 c 2
 75 510 l 2
 53 510 35 528 35 550 c 0
35 650 m 0
 35 672 53 690 75 690 c 2
 525 690 l 2
 547 690 565 672 565 650 c 0
 565 628 547 610 525 610 c 2
 75 610 l 2
 53 610 35 628 35 650 c 0
EndSplineSet
EndChar

StartChar: six
Encoding: 54 54 22
Width: 600
Flags: HMW
LayerCount: 2
Fore
SplineSet
135 50 m 0
 135 72 153 90 175 90 c 2
 425 90 l 2
 447 90 465 72 465 50 c 0
 465 28 447 10 425 10 c 2
 175 10 l 2
 153 10 135 28 135 50 c 0
435 150 m 0
 435 172 453 190 475 190 c 2
 525 190 l 2
 547 190 565 172 565 150 c 0
 565 128 547 110 525 110 c 2
 475 110 l 2
 453 110 435 128 435 150 c 0
35 150 m 0
 35 172 53 190 75 190 c 2
 125 190 l 2
 147 190 165 172 165 150 c 0
 165 128 147 110 125 110 c 2
 75 110 l 2
 53 110 35 128 35 150 c 0
435 250 m 0
 435 272 453 290 475 290 c 2
 525 290 l 2
 547 290 565 272 565 250 c 0
 565 228 547 210 525 210 c 2
 475 210 l 2
 453 210 435 228 435 250 c 0
35 250 m 0
 35 272 53 290 75 290 c 2
 125 290 l 2
 147 290 165 272 165 250 c 0
 165 228 147 210 125 210 c 2
 75 210 l 2
 53 210 35 228 35 250 c 0
35 350 m 0
 35 372 53 390 75 390 c 2
 425 390 l 2
 447 390 465 372 465 350 c 0
 465 328 447 310 425 310 c 2
 75 310 l 2
 53 310 35 328 35 350 c 0
35 450 m 0
 35 472 53 490 75 490 c 2
 125 490 l 2
 147 490 165 472 165 450 c 0
 165 428 147 410 125 410 c 2
 75 410 l 2
 53 410 35 428 35 450 c 0
135 550 m 0
 135 572 153 590 175 590 c 2
 225 590 l 2
 247 590 265 572 265 550 c 0
 265 528 247 510 225 510 c 2
 175 510 l 2
 153 510 135 528 135 550 c 0
235 650 m 0
 235 672 253 690 275 690 c 2
 425 690 l 2
 447 690 465 672 465 650 c 0
 465 628 447 610 425 610 c 2
 275 610 l 2
 253 610 235 628 235 650 c 0
EndSplineSet
EndChar

StartChar: seven
Encoding: 55 55 23
Width: 600
Flags: HMW
LayerCount: 2
Fore
SplineSet
135 50 m 0
 135 72 153 90 175 90 c 2
 225 90 l 2
 247 90 265 72 265 50 c 0
 265 28 247 10 225 10 c 2
 175 10 l 2
 153 10 135 28 135 50 c 0
135 150 m 0
 135 172 153 190 175 190 c 2
 225 190 l 2
 247 190 265 172 265 150 c 0
 265 128 247 110 225 110 c 2
 175 110 l 2
 153 110 135 128 135 150 c 0
135 250 m 0
 135 272 153 290 175 290 c 2
 225 290 l 2
 247 290 265 272 265 250 c 0
 265 228 247 210 225 210 c 2
 175 210 l 2
 153 210 135 228 135 250 c 0
235 350 m 0
 235 372 253 390 275 390 c 2
 325 390 l 2
 347 390 365 372 365 350 c 0
 365 328 347 310 325 310 c 2
 275 310 l 2
 253 310 235 328 235 350 c 0
335 450 m 0
 335 472 353 490 375 490 c 2
 425 490 l 2
 447 490 465 472 465 450 c 0
 465 428 447 410 425 410 c 2
 375 410 l 2
 353 410 335 428 335 450 c 0
435 550 m 0
 435 572 453 590 475 590 c 2
 525 590 l 2
 547 590 565 572 565 550 c 0
 565 528 547 510 525 510 c 2
 475 510 l 2
 453 510 435 528 435 550 c 0
35 650 m 0
 35 672 53 690 75 690 c 2
 525 690 l 2
 547 690 565 672 565 650 c 0
 565 628 547 610 525 610 c 2
 75 610 l 2
 53 610 35 628 35 650 c 0
EndSplineSet
EndChar

StartChar: eight
Encoding: 56 56 24
Width: 600
Flags: HMW
LayerCount: 2
Fore
SplineSet
135 50 m 0
 135 72 153 90 175 90 c 2
 425 90 l 2
 447 90 465 72 465 50 c 0
 465 28 447 10 425 10 c 2
 175 10 l 2
 153 10 135 28 135 50 c 0
435 150 m 0
 435 172 453 190 475 190 c 2
 525 190 l 2
 547 190 565 172 565 150 c 0
 565 128 547 110 525 110 c 2
 475 110 l 2
 453 110 435 128 435 150 c 0
35 150 m 0
 35 172 53 190 75 190 c 2
 125 190 l 2
 147 190 165 172 165 150 c 0
 165 128 147 110 125 110 c 2
 75 110 l 2
 53 110 35 128 35 150 c 0
435 250 m 0
 435 272 453 290 475 290 c 2
 525 290 l 2
 547 290 565 272 565 250 c 0
 565 228 547 210 525 210 c 2
 475 210 l 2
 453 210 435 228 435 250 c 0
35 250 m 0
 35 272 53 290 75 290 c 2
 125 290 l 2
 147 290 165 272 165 250 c 0
 165 228 147 210 125 210 c 2
 75 210 l 2
 53 210 35 228 35 250 c 0
135 350 m 0
 135 372 153 390 175 390 c 2
 425 390 l 2
 447 390 465 372 465 350 c 0
 465 328 447 310 425 310 c 2
 175 310 l 2
 153 310 135 328 135 350 c 0
435 450 m 0
 435 472 453 490 475 490 c 2
 525 490 l 2
 547 490 565 472 565 450 c 0
 565 428 547 410 525 410 c 2
 475 410 l 2
 453 410 435 428 435 450 c 0
35 450 m 0
 35 472 53 490 75 490 c 2
 125 490 l 2
 147 490 165 472 165 450 c 0
 165 428 147 410 125 410 c 2
 75 410 l 2
 53 410 35 428 35 450 c 0
435 550 m 0
 435 572 453 590 475 590 c 2
 525 590 l 2
 547 590 565 572 565 550 c 0
 565 528 547 510 525 510 c 2
 475 510 l 2
 453 510 435 528 435 550 c 0
35 550 m 0
 35 572 53 590 75 590 c 2
 125 590 l 2
 147 590 165 572 165 550 c 0
 165 528 147 510 125 510 c 2
 75 510 l 2
 53 510 35 528 35 550 c 0
135 650 m 0
 135 672 153 690 175 690 c 2
 425 690 l 2
 447 690 465 672 465 650 c 0
 465 628 447 610 425 610 c 2
 175 610 l 2
 153 610 135 628 135 650 c 0
EndSplineSet
EndChar

StartChar: nine
Encoding: 57 57 25
Width: 600
Flags: HMW
LayerCount: 2
Fore
SplineSet
135 50 m 0
 135 72 153 90 175 90 c 2
 325 90 l 2
 347 90 365 72 365 50 c 0
 365 28 347 10 325 10 c 2
 175 10 l 2
 153 10 135 28 135 50 c 0
335 150 m 0
 335 172 353 190 375 190 c 2
 425 190 l 2
 447 190 465 172 465 150 c 0
 465 128 447 110 425 110 c 2
 375 110 l 2
 353 110 335 128 335 150 c 0
435 250 m 0
 435 272 453 290 475 290 c 2
 525 290 l 2
 547 290 565 272 565 250 c 0
 565 228 547 210 525 210 c 2
 475 210 l 2
 453 210 435 228 435 250 c 0
135 350 m 0
 135 372 153 390 175 390 c 2
 525 390 l 2
 547 390 565 372 565 350 c 0
 565 328 547 310 525 310 c 2
 175 310 l 2
 153 310 135 328 135 350 c 0
435 450 m 0
 435 472 453 490 475 490 c 2
 525 490 l 2
 547 490 565 472 565 450 c 0
 565 428 547 410 525 410 c 2
 475 410 l 2
 453 410 435 428 435 450 c 0
35 450 m 0
 35 472 53 490 75 490 c 2
 125 490 l 2
 147 490 165 472 165 450 c 0
 165 428 147 410 125 410 c 2
 75 410 l 2
 53 410 35 428 35 450 c 0
435 550 m 0
 435 572 453 590 475 590 c 2
 525 590 l 2
 547 590 565 572 565 550 c 0
 565 528 547 510 525 510 c 2
 475 510 l 2
 453 510 435 528 435 550 c 0
35 550 m 0
 35 572 53 590 75 590 c 2
 125 590 l 2
 147 590 165 572 165 550 c 0
 165 528 147 510 125 510 c 2
 75 510 l 2
 53 510 35 528 35 550 c 0
135 650 m 0
 135 672 153 690 175 690 c 2
 425 690 l 2
 447 690 465 672 465 650 c 0
 465 628 447 610 425 610 c 2
 175 610 l 2
 153 610 135 628 135 650 c 0
EndSplineSet
EndChar

StartChar: colon
Encoding: 58 58 26
Width: 200
Flags: HMW
LayerCount: 2
Fore
SplineSet
35 50 m 0
 35 72 53 90 75 90 c 2
 125 90 l 2
 147 90 165 72 165 50 c 0
 165 28 147 10 125 10 c 2
 75 10 l 2
 53 10 35 28 35 50 c 0
35 450 m 0
 35 472 53 490 75 490 c 2
 125 490 l 2
 147 490 165 472 165 450 c 0
 165 428 147 410 125 410 c 2
 75 410 l 2
 53 410 35 428 35 450 c 0
EndSplineSet
EndChar

StartChar: semicolon
Encoding: 59 59 27
Width: 300
Flags: HMW
LayerCount: 2
Fore
SplineSet
35 -50 m 0
 35 -28 53 -10 75 -10 c 2
 125 -10 l 2
 147 -10 165 -28 165 -50 c 0
 165 -72 147 -90 125 -90 c 2
 75 -90 l 2
 53 -90 35 -72 35 -50 c 0
135 50 m 0
 135 72 153 90 175 90 c 2
 225 90 l 2
 247 90 265 72 265 50 c 0
 265 28 247 10 225 10 c 2
 175 10 l 2
 153 10 135 28 135 50 c 0
135 150 m 0
 135 172 153 190 175 190 c 2
 225 190 l 2
 247 190 265 172 265 150 c 0
 265 128 247 110 225 110 c 2
 175 110 l 2
 153 110 135 128 135 150 c 0
135 450 m 0
 135 472 153 490 175 490 c 2
 225 490 l 2
 247 490 265 472 265 450 c 0
 265 428 247 410 225 410 c 2
 175 410 l 2
 153 410 135 428 135 450 c 0
EndSplineSet
EndChar

StartChar: less
Encoding: 60 60 28
Width: 400
Flags: HMW
LayerCount: 2
Fore
SplineSet
235 150 m 0
 235 172 253 190 275 190 c 2
 325 190 l 2
 347 190 365 172 365 150 c 0
 365 128 347 110 325 110 c 2
 275 110 l 2
 253 110 235 128 235 150 c 0
135 250 m 0
 135 272 153 290 175 290 c 2
 225 290 l 2
 247 290 265 272 265 250 c 0
 265 228 247 210 225 210 c 2
 175 210 l 2
 153 210 135 228 135 250 c 0
35 350 m 0
 35 372 53 390 75 390 c 2
 125 390 l 2
 147 390 165 372 165 350 c 0
 165 328 147 310 125 310 c 2
 75 310 l 2
 53 310 35 328 35 350 c 0
135 450 m 0
 135 472 153 490 175 490 c 2
 225 490 l 2
 247 490 265 472 265 450 c 0
 265 428 247 410 225 410 c 2
 175 410 l 2
 153 410 135 428 135 450 c 0
235 550 m 0
 235 572 253 590 275 590 c 2
 325 590 l 2
 347 590 365 572 365 550 c 0
 365 528 347 510 325 510 c 2
 275 510 l 2
 253 510 235 528 235 550 c 0
EndSplineSet
EndChar

StartChar: equal
Encoding: 61 61 29
Width: 600
Flags: HMW
LayerCount: 2
Fore
SplineSet
35 250 m 0
 35 272 53 290 75 290 c 2
 525 290 l 2
 547 290 565 272 565 250 c 0
 565 228 547 210 525 210 c 2
 75 210 l 2
 53 210 35 228 35 250 c 0
35 450 m 0
 35 472 53 490 75 490 c 2
 525 490 l 2
 547 490 565 472 565 450 c 0
 565 428 547 410 525 410 c 2
 75 410 l 2
 53 410 35 428 35 450 c 0
EndSplineSet
EndChar

StartChar: greater
Encoding: 62 62 30
Width: 400
Flags: HMW
LayerCount: 2
Fore
SplineSet
35 150 m 0
 35 172 53 190 75 190 c 2
 125 190 l 2
 147 190 165 172 165 150 c 0
 165 128 147 110 125 110 c 2
 75 110 l 2
 53 110 35 128 35 150 c 0
135 250 m 0
 135 272 153 290 175 290 c 2
 225 290 l 2
 247 290 265 272 265 250 c 0
 265 228 247 210 225 210 c 2
 175 210 l 2
 153 210 135 228 135 250 c 0
235 350 m 0
 235 372 253 390 275 390 c 2
 325 390 l 2
 347 390 365 372 365 350 c 0
 365 328 347 310 325 310 c 2
 275 310 l 2
 253 310 235 328 235 350 c 0
135 450 m 0
 135 472 153 490 175 490 c 2
 225 490 l 2
 247 490 265 472 265 450 c 0
 265 428 247 410 225 410 c 2
 175 410 l 2
 153 410 135 428 135 450 c 0
35 550 m 0
 35 572 53 590 75 590 c 2
 125 590 l 2
 147 590 165 572 165 550 c 0
 165 528 147 510 125 510 c 2
 75 510 l 2
 53 510 35 528 35 550 c 0
EndSplineSet
EndChar

StartChar: question
Encoding: 63 63 31
Width: 600
Flags: HMW
LayerCount: 2
Fore
SplineSet
235 50 m 0
 235 72 253 90 275 90 c 2
 325 90 l 2
 347 90 365 72 365 50 c 0
 365 28 347 10 325 10 c 2
 275 10 l 2
 253 10 235 28 235 50 c 0
235 250 m 0
 235 272 253 290 275 290 c 2
 325 290 l 2
 347 290 365 272 365 250 c 0
 365 228 347 210 325 210 c 2
 275 210 l 2
 253 210 235 228 235 250 c 0
235 350 m 0
 235 372 253 390 275 390 c 2
 425 390 l 2
 447 390 465 372 465 350 c 0
 465 328 447 310 425 310 c 2
 275 310 l 2
 253 310 235 328 235 350 c 0
435 450 m 0
 435 472 453 490 475 490 c 2
 525 490 l 2
 547 490 565 472 565 450 c 0
 565 428 547 410 525 410 c 2
 475 410 l 2
 453 410 435 428 435 450 c 0
435 550 m 0
 435 572 453 590 475 590 c 2
 525 590 l 2
 547 590 565 572 565 550 c 0
 565 528 547 510 525 510 c 2
 475 510 l 2
 453 510 435 528 435 550 c 0
35 550 m 0
 35 572 53 590 75 590 c 2
 125 590 l 2
 147 590 165 572 165 550 c 0
 165 528 147 510 125 510 c 2
 75 510 l 2
 53 510 35 528 35 550 c 0
135 650 m 0
 135 672 153 690 175 690 c 2
 425 690 l 2
 447 690 465 672 465 650 c 0
 465 628 447 610 425 610 c 2
 175 610 l 2
 153 610 135 628 135 650 c 0
EndSplineSet
EndChar

StartChar: at
Encoding: 64 64 32
Width: 600
Flags: HMW
LayerCount: 2
Fore
SplineSet
135 50 m 0
 135 72 153 90 175 90 c 2
 425 90 l 2
 447 90 465 72 465 50 c 0
 465 28 447 10 425 10 c 2
 175 10 l 2
 153 10 135 28 135 50 c 0
35 150 m 0
 35 172 53 190 75 190 c 2
 125 190 l 2
 147 190 165 172 165 150 c 0
 165 128 147 110 125 110 c 2
 75 110 l 2
 53 110 35 128 35 150 c 0
235 250 m 0
 235 272 253 290 275 290 c 2
 525 290 l 2
 547 290 565 272 565 250 c 0
 565 228 547 210 525 210 c 2
 275 210 l 2
 253 210 235 228 235 250 c 0
35 250 m 0
 35 272 53 290 75 290 c 2
 125 290 l 2
 147 290 165 272 165 250 c 0
 165 228 147 210 125 210 c 2
 75 210 l 2
 53 210 35 228 35 250 c 0
435 350 m 0
 435 372 453 390 475 390 c 2
 525 390 l 2
 547 390 565 372 565 350 c 0
 565 328 547 310 525 310 c 2
 475 310 l 2
 453 310 435 328 435 350 c 0
235 350 m 0
 235 372 253 390 275 390 c 2
 325 390 l 2
 347 390 365 372 365 350 c 0
 365 328 347 310 325 310 c 2
 275 310 l 2
 253 310 235 328 235 350 c 0
35 350 m 0
 35 372 53 390 75 390 c 2
 125 390 l 2
 147 390 165 372 165 350 c 0
 165 328 147 310 125 310 c 2
 75 310 l 2
 53 310 35 328 35 350 c 0
235 450 m 0
 235 472 253 490 275 490 c 2
 525 490 l 2
 547 490 565 472 565 450 c 0
 565 428 547 410 525 410 c 2
 275 410 l 2
 253 410 235 428 235 450 c 0
35 450 m 0
 35 472 53 490 75 490 c 2
 125 490 l 2
 147 490 165 472 165 450 c 0
 165 428 147 410 125 410 c 2
 75 410 l 2
 53 410 35 428 35 450 c 0
435 550 m 0
 435 572 453 590 475 590 c 2
 525 590 l 2
 547 590 565 572 565 550 c 0
 565 528 547 510 525 510 c 2
 475 510 l 2
 453 510 435 528 435 550 c 0
35 550 m 0
 35 572 53 590 75 590 c 2
 125 590 l 2
 147 590 165 572 165 550 c 0
 165 528 147 510 125 510 c 2
 75 510 l 2
 53 510 35 528 35 550 c 0
135 650 m 0
 135 672 153 690 175 690 c 2
 425 690 l 2
 447 690 465 672 465 650 c 0
 465 628 447 610 425 610 c 2
 175 610 l 2
 153 610 135 628 135 650 c 0
EndSplineSet
EndChar

StartChar: A
Encoding: 65 65 33
Width: 600
Flags: HMW
AnchorPoint: "ogonek" 400 0 basechar 0
AnchorPoint: "marks_below" 300 0 basechar 0
AnchorPoint: "marks_above" 300 800 basechar 0
LayerCount: 2
Fore
SplineSet
435 50 m 0
 435 72 453 90 475 90 c 2
 525 90 l 2
 547 90 565 72 565 50 c 0
 565 28 547 10 525 10 c 2
 475 10 l 2
 453 10 435 28 435 50 c 0
35 50 m 0
 35 72 53 90 75 90 c 2
 125 90 l 2
 147 90 165 72 165 50 c 0
 165 28 147 10 125 10 c 2
 75 10 l 2
 53 10 35 28 35 50 c 0
435 150 m 0
 435 172 453 190 475 190 c 2
 525 190 l 2
 547 190 565 172 565 150 c 0
 565 128 547 110 525 110 c 2
 475 110 l 2
 453 110 435 128 435 150 c 0
35 150 m 0
 35 172 53 190 75 190 c 2
 125 190 l 2
 147 190 165 172 165 150 c 0
 165 128 147 110 125 110 c 2
 75 110 l 2
 53 110 35 128 35 150 c 0
35 250 m 0
 35 272 53 290 75 290 c 2
 525 290 l 2
 547 290 565 272 565 250 c 0
 565 228 547 210 525 210 c 2
 75 210 l 2
 53 210 35 228 35 250 c 0
435 350 m 0
 435 372 453 390 475 390 c 2
 525 390 l 2
 547 390 565 372 565 350 c 0
 565 328 547 310 525 310 c 2
 475 310 l 2
 453 310 435 328 435 350 c 0
35 350 m 0
 35 372 53 390 75 390 c 2
 125 390 l 2
 147 390 165 372 165 350 c 0
 165 328 147 310 125 310 c 2
 75 310 l 2
 53 310 35 328 35 350 c 0
435 450 m 0
 435 472 453 490 475 490 c 2
 525 490 l 2
 547 490 565 472 565 450 c 0
 565 428 547 410 525 410 c 2
 475 410 l 2
 453 410 435 428 435 450 c 0
35 450 m 0
 35 472 53 490 75 490 c 2
 125 490 l 2
 147 490 165 472 165 450 c 0
 165 428 147 410 125 410 c 2
 75 410 l 2
 53 410 35 428 35 450 c 0
335 550 m 0
 335 572 353 590 375 590 c 2
 425 590 l 2
 447 590 465 572 465 550 c 0
 465 528 447 510 425 510 c 2
 375 510 l 2
 353 510 335 528 335 550 c 0
135 550 m 0
 135 572 153 590 175 590 c 2
 225 590 l 2
 247 590 265 572 265 550 c 0
 265 528 247 510 225 510 c 2
 175 510 l 2
 153 510 135 528 135 550 c 0
235 650 m 0
 235 672 253 690 275 690 c 2
 325 690 l 2
 347 690 365 672 365 650 c 0
 365 628 347 610 325 610 c 2
 275 610 l 2
 253 610 235 628 235 650 c 0
EndSplineSet
EndChar

StartChar: B
Encoding: 66 66 34
Width: 600
Flags: HMW
AnchorPoint: "marks_below" 300 0 basechar 0
AnchorPoint: "marks_above" 300 800 basechar 0
LayerCount: 2
Fore
SplineSet
35 50 m 0
 35 72 53 90 75 90 c 2
 425 90 l 2
 447 90 465 72 465 50 c 0
 465 28 447 10 425 10 c 2
 75 10 l 2
 53 10 35 28 35 50 c 0
435 150 m 0
 435 172 453 190 475 190 c 2
 525 190 l 2
 547 190 565 172 565 150 c 0
 565 128 547 110 525 110 c 2
 475 110 l 2
 453 110 435 128 435 150 c 0
35 150 m 0
 35 172 53 190 75 190 c 2
 125 190 l 2
 147 190 165 172 165 150 c 0
 165 128 147 110 125 110 c 2
 75 110 l 2
 53 110 35 128 35 150 c 0
435 250 m 0
 435 272 453 290 475 290 c 2
 525 290 l 2
 547 290 565 272 565 250 c 0
 565 228 547 210 525 210 c 2
 475 210 l 2
 453 210 435 228 435 250 c 0
35 250 m 0
 35 272 53 290 75 290 c 2
 125 290 l 2
 147 290 165 272 165 250 c 0
 165 228 147 210 125 210 c 2
 75 210 l 2
 53 210 35 228 35 250 c 0
35 350 m 0
 35 372 53 390 75 390 c 2
 425 390 l 2
 447 390 465 372 465 350 c 0
 465 328 447 310 425 310 c 2
 75 310 l 2
 53 310 35 328 35 350 c 0
435 450 m 0
 435 472 453 490 475 490 c 2
 525 490 l 2
 547 490 565 472 565 450 c 0
 565 428 547 410 525 410 c 2
 475 410 l 2
 453 410 435 428 435 450 c 0
35 450 m 0
 35 472 53 490 75 490 c 2
 125 490 l 2
 147 490 165 472 165 450 c 0
 165 428 147 410 125 410 c 2
 75 410 l 2
 53 410 35 428 35 450 c 0
435 550 m 0
 435 572 453 590 475 590 c 2
 525 590 l 2
 547 590 565 572 565 550 c 0
 565 528 547 510 525 510 c 2
 475 510 l 2
 453 510 435 528 435 550 c 0
35 550 m 0
 35 572 53 590 75 590 c 2
 125 590 l 2
 147 590 165 572 165 550 c 0
 165 528 147 510 125 510 c 2
 75 510 l 2
 53 510 35 528 35 550 c 0
35 650 m 0
 35 672 53 690 75 690 c 2
 425 690 l 2
 447 690 465 672 465 650 c 0
 465 628 447 610 425 610 c 2
 75 610 l 2
 53 610 35 628 35 650 c 0
EndSplineSet
EndChar

StartChar: C
Encoding: 67 67 35
Width: 600
Flags: HMW
AnchorPoint: "marks_below" 300 0 basechar 0
AnchorPoint: "marks_above" 300 800 basechar 0
LayerCount: 2
Fore
SplineSet
135 50 m 0
 135 72 153 90 175 90 c 2
 425 90 l 2
 447 90 465 72 465 50 c 0
 465 28 447 10 425 10 c 2
 175 10 l 2
 153 10 135 28 135 50 c 0
435 150 m 0
 435 172 453 190 475 190 c 2
 525 190 l 2
 547 190 565 172 565 150 c 0
 565 128 547 110 525 110 c 2
 475 110 l 2
 453 110 435 128 435 150 c 0
35 150 m 0
 35 172 53 190 75 190 c 2
 125 190 l 2
 147 190 165 172 165 150 c 0
 165 128 147 110 125 110 c 2
 75 110 l 2
 53 110 35 128 35 150 c 0
35 250 m 0
 35 272 53 290 75 290 c 2
 125 290 l 2
 147 290 165 272 165 250 c 0
 165 228 147 210 125 210 c 2
 75 210 l 2
 53 210 35 228 35 250 c 0
35 350 m 0
 35 372 53 390 75 390 c 2
 125 390 l 2
 147 390 165 372 165 350 c 0
 165 328 147 310 125 310 c 2
 75 310 l 2
 53 310 35 328 35 350 c 0
35 450 m 0
 35 472 53 490 75 490 c 2
 125 490 l 2
 147 490 165 472 165 450 c 0
 165 428 147 410 125 410 c 2
 75 410 l 2
 53 410 35 428 35 450 c 0
435 550 m 0
 435 572 453 590 475 590 c 2
 525 590 l 2
 547 590 565 572 565 550 c 0
 565 528 547 510 525 510 c 2
 475 510 l 2
 453 510 435 528 435 550 c 0
35 550 m 0
 35 572 53 590 75 590 c 2
 125 590 l 2
 147 590 165 572 165 550 c 0
 165 528 147 510 125 510 c 2
 75 510 l 2
 53 510 35 528 35 550 c 0
135 650 m 0
 135 672 153 690 175 690 c 2
 425 690 l 2
 447 690 465 672 465 650 c 0
 465 628 447 610 425 610 c 2
 175 610 l 2
 153 610 135 628 135 650 c 0
EndSplineSet
EndChar

StartChar: D
Encoding: 68 68 36
Width: 600
Flags: HMW
AnchorPoint: "marks_below" 300 0 basechar 0
AnchorPoint: "marks_above" 300 800 basechar 0
LayerCount: 2
Fore
SplineSet
35 50 m 0
 35 72 53 90 75 90 c 2
 325 90 l 2
 347 90 365 72 365 50 c 0
 365 28 347 10 325 10 c 2
 75 10 l 2
 53 10 35 28 35 50 c 0
335 150 m 0
 335 172 353 190 375 190 c 2
 425 190 l 2
 447 190 465 172 465 150 c 0
 465 128 447 110 425 110 c 2
 375 110 l 2
 353 110 335 128 335 150 c 0
35 150 m 0
 35 172 53 190 75 190 c 2
 125 190 l 2
 147 190 165 172 165 150 c 0
 165 128 147 110 125 110 c 2
 75 110 l 2
 53 110 35 128 35 150 c 0
435 250 m 0
 435 272 453 290 475 290 c 2
 525 290 l 2
 547 290 565 272 565 250 c 0
 565 228 547 210 525 210 c 2
 475 210 l 2
 453 210 435 228 435 250 c 0
35 250 m 0
 35 272 53 290 75 290 c 2
 125 290 l 2
 147 290 165 272 165 250 c 0
 165 228 147 210 125 210 c 2
 75 210 l 2
 53 210 35 228 35 250 c 0
435 350 m 0
 435 372 453 390 475 390 c 2
 525 390 l 2
 547 390 565 372 565 350 c 0
 565 328 547 310 525 310 c 2
 475 310 l 2
 453 310 435 328 435 350 c 0
35 350 m 0
 35 372 53 390 75 390 c 2
 125 390 l 2
 147 390 165 372 165 350 c 0
 165 328 147 310 125 310 c 2
 75 310 l 2
 53 310 35 328 35 350 c 0
435 450 m 0
 435 472 453 490 475 490 c 2
 525 490 l 2
 547 490 565 472 565 450 c 0
 565 428 547 410 525 410 c 2
 475 410 l 2
 453 410 435 428 435 450 c 0
35 450 m 0
 35 472 53 490 75 490 c 2
 125 490 l 2
 147 490 165 472 165 450 c 0
 165 428 147 410 125 410 c 2
 75 410 l 2
 53 410 35 428 35 450 c 0
335 550 m 0
 335 572 353 590 375 590 c 2
 425 590 l 2
 447 590 465 572 465 550 c 0
 465 528 447 510 425 510 c 2
 375 510 l 2
 353 510 335 528 335 550 c 0
35 550 m 0
 35 572 53 590 75 590 c 2
 125 590 l 2
 147 590 165 572 165 550 c 0
 165 528 147 510 125 510 c 2
 75 510 l 2
 53 510 35 528 35 550 c 0
35 650 m 0
 35 672 53 690 75 690 c 2
 325 690 l 2
 347 690 365 672 365 650 c 0
 365 628 347 610 325 610 c 2
 75 610 l 2
 53 610 35 628 35 650 c 0
EndSplineSet
EndChar

StartChar: E
Encoding: 69 69 37
Width: 600
Flags: HMW
AnchorPoint: "ogonek" 400 0 basechar 0
AnchorPoint: "marks_below" 300 0 basechar 0
AnchorPoint: "marks_above" 300 800 basechar 0
LayerCount: 2
Fore
SplineSet
35 50 m 0
 35 72 53 90 75 90 c 2
 525 90 l 2
 547 90 565 72 565 50 c 0
 565 28 547 10 525 10 c 2
 75 10 l 2
 53 10 35 28 35 50 c 0
35 150 m 0
 35 172 53 190 75 190 c 2
 125 190 l 2
 147 190 165 172 165 150 c 0
 165 128 147 110 125 110 c 2
 75 110 l 2
 53 110 35 128 35 150 c 0
35 250 m 0
 35 272 53 290 75 290 c 2
 125 290 l 2
 147 290 165 272 165 250 c 0
 165 228 147 210 125 210 c 2
 75 210 l 2
 53 210 35 228 35 250 c 0
35 350 m 0
 35 372 53 390 75 390 c 2
 425 390 l 2
 447 390 465 372 465 350 c 0
 465 328 447 310 425 310 c 2
 75 310 l 2
 53 310 35 328 35 350 c 0
35 450 m 0
 35 472 53 490 75 490 c 2
 125 490 l 2
 147 490 165 472 165 450 c 0
 165 428 147 410 125 410 c 2
 75 410 l 2
 53 410 35 428 35 450 c 0
35 550 m 0
 35 572 53 590 75 590 c 2
 125 590 l 2
 147 590 165 572 165 550 c 0
 165 528 147 510 125 510 c 2
 75 510 l 2
 53 510 35 528 35 550 c 0
35 650 m 0
 35 672 53 690 75 690 c 2
 525 690 l 2
 547 690 565 672 565 650 c 0
 565 628 547 610 525 610 c 2
 75 610 l 2
 53 610 35 628 35 650 c 0
EndSplineSet
EndChar

StartChar: F
Encoding: 70 70 38
Width: 600
Flags: HMW
AnchorPoint: "marks_below" 300 0 basechar 0
AnchorPoint: "marks_above" 300 800 basechar 0
LayerCount: 2
Fore
SplineSet
35 50 m 0
 35 72 53 90 75 90 c 2
 125 90 l 2
 147 90 165 72 165 50 c 0
 165 28 147 10 125 10 c 2
 75 10 l 2
 53 10 35 28 35 50 c 0
35 150 m 0
 35 172 53 190 75 190 c 2
 125 190 l 2
 147 190 165 172 165 150 c 0
 165 128 147 110 125 110 c 2
 75 110 l 2
 53 110 35 128 35 150 c 0
35 250 m 0
 35 272 53 290 75 290 c 2
 125 290 l 2
 147 290 165 272 165 250 c 0
 165 228 147 210 125 210 c 2
 75 210 l 2
 53 210 35 228 35 250 c 0
35 350 m 0
 35 372 53 390 75 390 c 2
 425 390 l 2
 447 390 465 372 465 350 c 0
 465 328 447 310 425 310 c 2
 75 310 l 2
 53 310 35 328 35 350 c 0
35 450 m 0
 35 472 53 490 75 490 c 2
 125 490 l 2
 147 490 165 472 165 450 c 0
 165 428 147 410 125 410 c 2
 75 410 l 2
 53 410 35 428 35 450 c 0
35 550 m 0
 35 572 53 590 75 590 c 2
 125 590 l 2
 147 590 165 572 165 550 c 0
 165 528 147 510 125 510 c 2
 75 510 l 2
 53 510 35 528 35 550 c 0
35 650 m 0
 35 672 53 690 75 690 c 2
 525 690 l 2
 547 690 565 672 565 650 c 0
 565 628 547 610 525 610 c 2
 75 610 l 2
 53 610 35 628 35 650 c 0
EndSplineSet
EndChar

StartChar: G
Encoding: 71 71 39
Width: 600
Flags: HMW
AnchorPoint: "marks_below" 300 0 basechar 0
AnchorPoint: "marks_above" 300 800 basechar 0
LayerCount: 2
Fore
SplineSet
135 50 m 0
 135 72 153 90 175 90 c 2
 525 90 l 2
 547 90 565 72 565 50 c 0
 565 28 547 10 525 10 c 2
 175 10 l 2
 153 10 135 28 135 50 c 0
435 150 m 0
 435 172 453 190 475 190 c 2
 525 190 l 2
 547 190 565 172 565 150 c 0
 565 128 547 110 525 110 c 2
 475 110 l 2
 453 110 435 128 435 150 c 0
35 150 m 0
 35 172 53 190 75 190 c 2
 125 190 l 2
 147 190 165 172 165 150 c 0
 165 128 147 110 125 110 c 2
 75 110 l 2
 53 110 35 128 35 150 c 0
435 250 m 0
 435 272 453 290 475 290 c 2
 525 290 l 2
 547 290 565 272 565 250 c 0
 565 228 547 210 525 210 c 2
 475 210 l 2
 453 210 435 228 435 250 c 0
35 250 m 0
 35 272 53 290 75 290 c 2
 125 290 l 2
 147 290 165 272 165 250 c 0
 165 228 147 210 125 210 c 2
 75 210 l 2
 53 210 35 228 35 250 c 0
335 350 m 0
 335 372 353 390 375 390 c 2
 525 390 l 2
 547 390 565 372 565 350 c 0
 565 328 547 310 525 310 c 2
 375 310 l 2
 353 310 335 328 335 350 c 0
35 350 m 0
 35 372 53 390 75 390 c 2
 125 390 l 2
 147 390 165 372 165 350 c 0
 165 328 147 310 125 310 c 2
 75 310 l 2
 53 310 35 328 35 350 c 0
35 450 m 0
 35 472 53 490 75 490 c 2
 125 490 l 2
 147 490 165 472 165 450 c 0
 165 428 147 410 125 410 c 2
 75 410 l 2
 53 410 35 428 35 450 c 0
435 550 m 0
 435 572 453 590 475 590 c 2
 525 590 l 2
 547 590 565 572 565 550 c 0
 565 528 547 510 525 510 c 2
 475 510 l 2
 453 510 435 528 435 550 c 0
35 550 m 0
 35 572 53 590 75 590 c 2
 125 590 l 2
 147 590 165 572 165 550 c 0
 165 528 147 510 125 510 c 2
 75 510 l 2
 53 510 35 528 35 550 c 0
135 650 m 0
 135 672 153 690 175 690 c 2
 425 690 l 2
 447 690 465 672 465 650 c 0
 465 628 447 610 425 610 c 2
 175 610 l 2
 153 610 135 628 135 650 c 0
EndSplineSet
EndChar

StartChar: H
Encoding: 72 72 40
Width: 600
Flags: HMW
AnchorPoint: "marks_below" 300 0 basechar 0
AnchorPoint: "marks_above" 300 800 basechar 0
LayerCount: 2
Fore
SplineSet
435 50 m 0
 435 72 453 90 475 90 c 2
 525 90 l 2
 547 90 565 72 565 50 c 0
 565 28 547 10 525 10 c 2
 475 10 l 2
 453 10 435 28 435 50 c 0
35 50 m 0
 35 72 53 90 75 90 c 2
 125 90 l 2
 147 90 165 72 165 50 c 0
 165 28 147 10 125 10 c 2
 75 10 l 2
 53 10 35 28 35 50 c 0
435 150 m 0
 435 172 453 190 475 190 c 2
 525 190 l 2
 547 190 565 172 565 150 c 0
 565 128 547 110 525 110 c 2
 475 110 l 2
 453 110 435 128 435 150 c 0
35 150 m 0
 35 172 53 190 75 190 c 2
 125 190 l 2
 147 190 165 172 165 150 c 0
 165 128 147 110 125 110 c 2
 75 110 l 2
 53 110 35 128 35 150 c 0
435 250 m 0
 435 272 453 290 475 290 c 2
 525 290 l 2
 547 290 565 272 565 250 c 0
 565 228 547 210 525 210 c 2
 475 210 l 2
 453 210 435 228 435 250 c 0
35 250 m 0
 35 272 53 290 75 290 c 2
 125 290 l 2
 147 290 165 272 165 250 c 0
 165 228 147 210 125 210 c 2
 75 210 l 2
 53 210 35 228 35 250 c 0
35 350 m 0
 35 372 53 390 75 390 c 2
 525 390 l 2
 547 390 565 372 565 350 c 0
 565 328 547 310 525 310 c 2
 75 310 l 2
 53 310 35 328 35 350 c 0
435 450 m 0
 435 472 453 490 475 490 c 2
 525 490 l 2
 547 490 565 472 565 450 c 0
 565 428 547 410 525 410 c 2
 475 410 l 2
 453 410 435 428 435 450 c 0
35 450 m 0
 35 472 53 490 75 490 c 2
 125 490 l 2
 147 490 165 472 165 450 c 0
 165 428 147 410 125 410 c 2
 75 410 l 2
 53 410 35 428 35 450 c 0
435 550 m 0
 435 572 453 590 475 590 c 2
 525 590 l 2
 547 590 565 572 565 550 c 0
 565 528 547 510 525 510 c 2
 475 510 l 2
 453 510 435 528 435 550 c 0
35 550 m 0
 35 572 53 590 75 590 c 2
 125 590 l 2
 147 590 165 572 165 550 c 0
 165 528 147 510 125 510 c 2
 75 510 l 2
 53 510 35 528 35 550 c 0
435 650 m 0
 435 672 453 690 475 690 c 2
 525 690 l 2
 547 690 565 672 565 650 c 0
 565 628 547 610 525 610 c 2
 475 610 l 2
 453 610 435 628 435 650 c 0
35 650 m 0
 35 672 53 690 75 690 c 2
 125 690 l 2
 147 690 165 672 165 650 c 0
 165 628 147 610 125 610 c 2
 75 610 l 2
 53 610 35 628 35 650 c 0
EndSplineSet
EndChar

StartChar: I
Encoding: 73 73 41
Width: 400
Flags: HMW
AnchorPoint: "marks_below" 200 0 basechar 0
AnchorPoint: "ogonek" 200 0 basechar 0
AnchorPoint: "marks_above" 200 800 basechar 0
LayerCount: 2
Fore
SplineSet
35 50 m 0
 35 72 53 90 75 90 c 2
 325 90 l 2
 347 90 365 72 365 50 c 0
 365 28 347 10 325 10 c 2
 75 10 l 2
 53 10 35 28 35 50 c 0
135 150 m 0
 135 172 153 190 175 190 c 2
 225 190 l 2
 247 190 265 172 265 150 c 0
 265 128 247 110 225 110 c 2
 175 110 l 2
 153 110 135 128 135 150 c 0
135 250 m 0
 135 272 153 290 175 290 c 2
 225 290 l 2
 247 290 265 272 265 250 c 0
 265 228 247 210 225 210 c 2
 175 210 l 2
 153 210 135 228 135 250 c 0
135 350 m 0
 135 372 153 390 175 390 c 2
 225 390 l 2
 247 390 265 372 265 350 c 0
 265 328 247 310 225 310 c 2
 175 310 l 2
 153 310 135 328 135 350 c 0
135 450 m 0
 135 472 153 490 175 490 c 2
 225 490 l 2
 247 490 265 472 265 450 c 0
 265 428 247 410 225 410 c 2
 175 410 l 2
 153 410 135 428 135 450 c 0
135 550 m 0
 135 572 153 590 175 590 c 2
 225 590 l 2
 247 590 265 572 265 550 c 0
 265 528 247 510 225 510 c 2
 175 510 l 2
 153 510 135 528 135 550 c 0
35 650 m 0
 35 672 53 690 75 690 c 2
 325 690 l 2
 347 690 365 672 365 650 c 0
 365 628 347 610 325 610 c 2
 75 610 l 2
 53 610 35 628 35 650 c 0
EndSplineSet
EndChar

StartChar: J
Encoding: 74 74 42
Width: 600
Flags: HMW
AnchorPoint: "marks_above" 400 800 basechar 0
LayerCount: 2
Fore
SplineSet
135 50 m 0
 135 72 153 90 175 90 c 2
 325 90 l 2
 347 90 365 72 365 50 c 0
 365 28 347 10 325 10 c 2
 175 10 l 2
 153 10 135 28 135 50 c 0
335 150 m 0
 335 172 353 190 375 190 c 2
 425 190 l 2
 447 190 465 172 465 150 c 0
 465 128 447 110 425 110 c 2
 375 110 l 2
 353 110 335 128 335 150 c 0
35 150 m 0
 35 172 53 190 75 190 c 2
 125 190 l 2
 147 190 165 172 165 150 c 0
 165 128 147 110 125 110 c 2
 75 110 l 2
 53 110 35 128 35 150 c 0
335 250 m 0
 335 272 353 290 375 290 c 2
 425 290 l 2
 447 290 465 272 465 250 c 0
 465 228 447 210 425 210 c 2
 375 210 l 2
 353 210 335 228 335 250 c 0
335 350 m 0
 335 372 353 390 375 390 c 2
 425 390 l 2
 447 390 465 372 465 350 c 0
 465 328 447 310 425 310 c 2
 375 310 l 2
 353 310 335 328 335 350 c 0
335 450 m 0
 335 472 353 490 375 490 c 2
 425 490 l 2
 447 490 465 472 465 450 c 0
 465 428 447 410 425 410 c 2
 375 410 l 2
 353 410 335 428 335 450 c 0
335 550 m 0
 335 572 353 590 375 590 c 2
 425 590 l 2
 447 590 465 572 465 550 c 0
 465 528 447 510 425 510 c 2
 375 510 l 2
 353 510 335 528 335 550 c 0
235 650 m 0
 235 672 253 690 275 690 c 2
 525 690 l 2
 547 690 565 672 565 650 c 0
 565 628 547 610 525 610 c 2
 275 610 l 2
 253 610 235 628 235 650 c 0
EndSplineSet
EndChar

StartChar: K
Encoding: 75 75 43
Width: 600
Flags: HMW
AnchorPoint: "marks_below" 300 0 basechar 0
AnchorPoint: "marks_above" 300 800 basechar 0
LayerCount: 2
Fore
SplineSet
435 50 m 0
 435 72 453 90 475 90 c 2
 525 90 l 2
 547 90 565 72 565 50 c 0
 565 28 547 10 525 10 c 2
 475 10 l 2
 453 10 435 28 435 50 c 0
35 50 m 0
 35 72 53 90 75 90 c 2
 125 90 l 2
 147 90 165 72 165 50 c 0
 165 28 147 10 125 10 c 2
 75 10 l 2
 53 10 35 28 35 50 c 0
335 150 m 0
 335 172 353 190 375 190 c 2
 425 190 l 2
 447 190 465 172 465 150 c 0
 465 128 447 110 425 110 c 2
 375 110 l 2
 353 110 335 128 335 150 c 0
35 150 m 0
 35 172 53 190 75 190 c 2
 125 190 l 2
 147 190 165 172 165 150 c 0
 165 128 147 110 125 110 c 2
 75 110 l 2
 53 110 35 128 35 150 c 0
235 250 m 0
 235 272 253 290 275 290 c 2
 325 290 l 2
 347 290 365 272 365 250 c 0
 365 228 347 210 325 210 c 2
 275 210 l 2
 253 210 235 228 235 250 c 0
35 250 m 0
 35 272 53 290 75 290 c 2
 125 290 l 2
 147 290 165 272 165 250 c 0
 165 228 147 210 125 210 c 2
 75 210 l 2
 53 210 35 228 35 250 c 0
35 350 m 0
 35 372 53 390 75 390 c 2
 225 390 l 2
 247 390 265 372 265 350 c 0
 265 328 247 310 225 310 c 2
 75 310 l 2
 53 310 35 328 35 350 c 0
235 450 m 0
 235 472 253 490 275 490 c 2
 325 490 l 2
 347 490 365 472 365 450 c 0
 365 428 347 410 325 410 c 2
 275 410 l 2
 253 410 235 428 235 450 c 0
35 450 m 0
 35 472 53 490 75 490 c 2
 125 490 l 2
 147 490 165 472 165 450 c 0
 165 428 147 410 125 410 c 2
 75 410 l 2
 53 410 35 428 35 450 c 0
335 550 m 0
 335 572 353 590 375 590 c 2
 425 590 l 2
 447 590 465 572 465 550 c 0
 465 528 447 510 425 510 c 2
 375 510 l 2
 353 510 335 528 335 550 c 0
35 550 m 0
 35 572 53 590 75 590 c 2
 125 590 l 2
 147 590 165 572 165 550 c 0
 165 528 147 510 125 510 c 2
 75 510 l 2
 53 510 35 528 35 550 c 0
435 650 m 0
 435 672 453 690 475 690 c 2
 525 690 l 2
 547 690 565 672 565 650 c 0
 565 628 547 610 525 610 c 2
 475 610 l 2
 453 610 435 628 435 650 c 0
35 650 m 0
 35 672 53 690 75 690 c 2
 125 690 l 2
 147 690 165 672 165 650 c 0
 165 628 147 610 125 610 c 2
 75 610 l 2
 53 610 35 628 35 650 c 0
EndSplineSet
EndChar

StartChar: L
Encoding: 76 76 44
Width: 600
Flags: HMW
AnchorPoint: "marks_aboveright" 250 500 basechar 0
AnchorPoint: "marks_below" 300 0 basechar 0
AnchorPoint: "marks_above" 300 800 basechar 0
LayerCount: 2
Fore
SplineSet
35 50 m 0
 35 72 53 90 75 90 c 2
 525 90 l 2
 547 90 565 72 565 50 c 0
 565 28 547 10 525 10 c 2
 75 10 l 2
 53 10 35 28 35 50 c 0
35 150 m 0
 35 172 53 190 75 190 c 2
 125 190 l 2
 147 190 165 172 165 150 c 0
 165 128 147 110 125 110 c 2
 75 110 l 2
 53 110 35 128 35 150 c 0
35 250 m 0
 35 272 53 290 75 290 c 2
 125 290 l 2
 147 290 165 272 165 250 c 0
 165 228 147 210 125 210 c 2
 75 210 l 2
 53 210 35 228 35 250 c 0
35 350 m 0
 35 372 53 390 75 390 c 2
 125 390 l 2
 147 390 165 372 165 350 c 0
 165 328 147 310 125 310 c 2
 75 310 l 2
 53 310 35 328 35 350 c 0
35 450 m 0
 35 472 53 490 75 490 c 2
 125 490 l 2
 147 490 165 472 165 450 c 0
 165 428 147 410 125 410 c 2
 75 410 l 2
 53 410 35 428 35 450 c 0
35 550 m 0
 35 572 53 590 75 590 c 2
 125 590 l 2
 147 590 165 572 165 550 c 0
 165 528 147 510 125 510 c 2
 75 510 l 2
 53 510 35 528 35 550 c 0
35 650 m 0
 35 672 53 690 75 690 c 2
 125 690 l 2
 147 690 165 672 165 650 c 0
 165 628 147 610 125 610 c 2
 75 610 l 2
 53 610 35 628 35 650 c 0
EndSplineSet
EndChar

StartChar: M
Encoding: 77 77 45
Width: 600
Flags: HMW
AnchorPoint: "marks_below" 300 0 basechar 0
AnchorPoint: "marks_above" 300 800 basechar 0
LayerCount: 2
Fore
SplineSet
435 50 m 0
 435 72 453 90 475 90 c 2
 525 90 l 2
 547 90 565 72 565 50 c 0
 565 28 547 10 525 10 c 2
 475 10 l 2
 453 10 435 28 435 50 c 0
35 50 m 0
 35 72 53 90 75 90 c 2
 125 90 l 2
 147 90 165 72 165 50 c 0
 165 28 147 10 125 10 c 2
 75 10 l 2
 53 10 35 28 35 50 c 0
435 150 m 0
 435 172 453 190 475 190 c 2
 525 190 l 2
 547 190 565 172 565 150 c 0
 565 128 547 110 525 110 c 2
 475 110 l 2
 453 110 435 128 435 150 c 0
35 150 m 0
 35 172 53 190 75 190 c 2
 125 190 l 2
 147 190 165 172 165 150 c 0
 165 128 147 110 125 110 c 2
 75 110 l 2
 53 110 35 128 35 150 c 0
435 250 m 0
 435 272 453 290 475 290 c 2
 525 290 l 2
 547 290 565 272 565 250 c 0
 565 228 547 210 525 210 c 2
 475 210 l 2
 453 210 435 228 435 250 c 0
35 250 m 0
 35 272 53 290 75 290 c 2
 125 290 l 2
 147 290 165 272 165 250 c 0
 165 228 147 210 125 210 c 2
 75 210 l 2
 53 210 35 228 35 250 c 0
435 350 m 0
 435 372 453 390 475 390 c 2
 525 390 l 2
 547 390 565 372 565 350 c 0
 565 328 547 310 525 310 c 2
 475 310 l 2
 453 310 435 328 435 350 c 0
235 350 m 0
 235 372 253 390 275 390 c 2
 325 390 l 2
 347 390 365 372 365 350 c 0
 365 328 347 310 325 310 c 2
 275 310 l 2
 253 310 235 328 235 350 c 0
35 350 m 0
 35 372 53 390 75 390 c 2
 125 390 l 2
 147 390 165 372 165 350 c 0
 165 328 147 310 125 310 c 2
 75 310 l 2
 53 310 35 328 35 350 c 0
435 450 m 0
 435 472 453 490 475 490 c 2
 525 490 l 2
 547 490 565 472 565 450 c 0
 565 428 547 410 525 410 c 2
 475 410 l 2
 453 410 435 428 435 450 c 0
235 450 m 0
 235 472 253 490 275 490 c 2
 325 490 l 2
 347 490 365 472 365 450 c 0
 365 428 347 410 325 410 c 2
 275 410 l 2
 253 410 235 428 235 450 c 0
35 450 m 0
 35 472 53 490 75 490 c 2
 125 490 l 2
 147 490 165 472 165 450 c 0
 165 428 147 410 125 410 c 2
 75 410 l 2
 53 410 35 428 35 450 c 0
335 550 m 0
 335 572 353 590 375 590 c 2
 525 590 l 2
 547 590 565 572 565 550 c 0
 565 528 547 510 525 510 c 2
 375 510 l 2
 353 510 335 528 335 550 c 0
35 550 m 0
 35 572 53 590 75 590 c 2
 225 590 l 2
 247 590 265 572 265 550 c 0
 265 528 247 510 225 510 c 2
 75 510 l 2
 53 510 35 528 35 550 c 0
435 650 m 0
 435 672 453 690 475 690 c 2
 525 690 l 2
 547 690 565 672 565 650 c 0
 565 628 547 610 525 610 c 2
 475 610 l 2
 453 610 435 628 435 650 c 0
35 650 m 0
 35 672 53 690 75 690 c 2
 125 690 l 2
 147 690 165 672 165 650 c 0
 165 628 147 610 125 610 c 2
 75 610 l 2
 53 610 35 628 35 650 c 0
EndSplineSet
EndChar

StartChar: N
Encoding: 78 78 46
Width: 600
Flags: HMW
AnchorPoint: "marks_below" 300 0 basechar 0
AnchorPoint: "marks_above" 300 800 basechar 0
LayerCount: 2
Fore
SplineSet
435 50 m 0
 435 72 453 90 475 90 c 2
 525 90 l 2
 547 90 565 72 565 50 c 0
 565 28 547 10 525 10 c 2
 475 10 l 2
 453 10 435 28 435 50 c 0
35 50 m 0
 35 72 53 90 75 90 c 2
 125 90 l 2
 147 90 165 72 165 50 c 0
 165 28 147 10 125 10 c 2
 75 10 l 2
 53 10 35 28 35 50 c 0
435 150 m 0
 435 172 453 190 475 190 c 2
 525 190 l 2
 547 190 565 172 565 150 c 0
 565 128 547 110 525 110 c 2
 475 110 l 2
 453 110 435 128 435 150 c 0
35 150 m 0
 35 172 53 190 75 190 c 2
 125 190 l 2
 147 190 165 172 165 150 c 0
 165 128 147 110 125 110 c 2
 75 110 l 2
 53 110 35 128 35 150 c 0
335 250 m 0
 335 272 353 290 375 290 c 2
 525 290 l 2
 547 290 565 272 565 250 c 0
 565 228 547 210 525 210 c 2
 375 210 l 2
 353 210 335 228 335 250 c 0
35 250 m 0
 35 272 53 290 75 290 c 2
 125 290 l 2
 147 290 165 272 165 250 c 0
 165 228 147 210 125 210 c 2
 75 210 l 2
 53 210 35 228 35 250 c 0
435 350 m 0
 435 372 453 390 475 390 c 2
 525 390 l 2
 547 390 565 372 565 350 c 0
 565 328 547 310 525 310 c 2
 475 310 l 2
 453 310 435 328 435 350 c 0
235 350 m 0
 235 372 253 390 275 390 c 2
 325 390 l 2
 347 390 365 372 365 350 c 0
 365 328 347 310 325 310 c 2
 275 310 l 2
 253 310 235 328 235 350 c 0
35 350 m 0
 35 372 53 390 75 390 c 2
 125 390 l 2
 147 390 165 372 165 350 c 0
 165 328 147 310 125 310 c 2
 75 310 l 2
 53 310 35 328 35 350 c 0
435 450 m 0
 435 472 453 490 475 490 c 2
 525 490 l 2
 547 490 565 472 565 450 c 0
 565 428 547 410 525 410 c 2
 475 410 l 2
 453 410 435 428 435 450 c 0
35 450 m 0
 35 472 53 490 75 490 c 2
 225 490 l 2
 247 490 265 472 265 450 c 0
 265 428 247 410 225 410 c 2
 75 410 l 2
 53 410 35 428 35 450 c 0
435 550 m 0
 435 572 453 590 475 590 c 2
 525 590 l 2
 547 590 565 572 565 550 c 0
 565 528 547 510 525 510 c 2
 475 510 l 2
 453 510 435 528 435 550 c 0
35 550 m 0
 35 572 53 590 75 590 c 2
 125 590 l 2
 147 590 165 572 165 550 c 0
 165 528 147 510 125 510 c 2
 75 510 l 2
 53 510 35 528 35 550 c 0
435 650 m 0
 435 672 453 690 475 690 c 2
 525 690 l 2
 547 690 565 672 565 650 c 0
 565 628 547 610 525 610 c 2
 475 610 l 2
 453 610 435 628 435 650 c 0
35 650 m 0
 35 672 53 690 75 690 c 2
 125 690 l 2
 147 690 165 672 165 650 c 0
 165 628 147 610 125 610 c 2
 75 610 l 2
 53 610 35 628 35 650 c 0
EndSplineSet
EndChar

StartChar: O
Encoding: 79 79 47
Width: 600
Flags: HMW
AnchorPoint: "marks_below" 300 0 basechar 0
AnchorPoint: "marks_above" 300 800 basechar 0
LayerCount: 2
Fore
SplineSet
135 50 m 0
 135 72 153 90 175 90 c 2
 425 90 l 2
 447 90 465 72 465 50 c 0
 465 28 447 10 425 10 c 2
 175 10 l 2
 153 10 135 28 135 50 c 0
435 150 m 0
 435 172 453 190 475 190 c 2
 525 190 l 2
 547 190 565 172 565 150 c 0
 565 128 547 110 525 110 c 2
 475 110 l 2
 453 110 435 128 435 150 c 0
35 150 m 0
 35 172 53 190 75 190 c 2
 125 190 l 2
 147 190 165 172 165 150 c 0
 165 128 147 110 125 110 c 2
 75 110 l 2
 53 110 35 128 35 150 c 0
435 250 m 0
 435 272 453 290 475 290 c 2
 525 290 l 2
 547 290 565 272 565 250 c 0
 565 228 547 210 525 210 c 2
 475 210 l 2
 453 210 435 228 435 250 c 0
35 250 m 0
 35 272 53 290 75 290 c 2
 125 290 l 2
 147 290 165 272 165 250 c 0
 165 228 147 210 125 210 c 2
 75 210 l 2
 53 210 35 228 35 250 c 0
435 350 m 0
 435 372 453 390 475 390 c 2
 525 390 l 2
 547 390 565 372 565 350 c 0
 565 328 547 310 525 310 c 2
 475 310 l 2
 453 310 435 328 435 350 c 0
35 350 m 0
 35 372 53 390 75 390 c 2
 125 390 l 2
 147 390 165 372 165 350 c 0
 165 328 147 310 125 310 c 2
 75 310 l 2
 53 310 35 328 35 350 c 0
435 450 m 0
 435 472 453 490 475 490 c 2
 525 490 l 2
 547 490 565 472 565 450 c 0
 565 428 547 410 525 410 c 2
 475 410 l 2
 453 410 435 428 435 450 c 0
35 450 m 0
 35 472 53 490 75 490 c 2
 125 490 l 2
 147 490 165 472 165 450 c 0
 165 428 147 410 125 410 c 2
 75 410 l 2
 53 410 35 428 35 450 c 0
435 550 m 0
 435 572 453 590 475 590 c 2
 525 590 l 2
 547 590 565 572 565 550 c 0
 565 528 547 510 525 510 c 2
 475 510 l 2
 453 510 435 528 435 550 c 0
35 550 m 0
 35 572 53 590 75 590 c 2
 125 590 l 2
 147 590 165 572 165 550 c 0
 165 528 147 510 125 510 c 2
 75 510 l 2
 53 510 35 528 35 550 c 0
135 650 m 0
 135 672 153 690 175 690 c 2
 425 690 l 2
 447 690 465 672 465 650 c 0
 465 628 447 610 425 610 c 2
 175 610 l 2
 153 610 135 628 135 650 c 0
EndSplineSet
EndChar

StartChar: P
Encoding: 80 80 48
Width: 600
Flags: HMW
AnchorPoint: "marks_below" 300 0 basechar 0
AnchorPoint: "marks_above" 300 800 basechar 0
LayerCount: 2
Fore
SplineSet
35 50 m 0
 35 72 53 90 75 90 c 2
 125 90 l 2
 147 90 165 72 165 50 c 0
 165 28 147 10 125 10 c 2
 75 10 l 2
 53 10 35 28 35 50 c 0
35 150 m 0
 35 172 53 190 75 190 c 2
 125 190 l 2
 147 190 165 172 165 150 c 0
 165 128 147 110 125 110 c 2
 75 110 l 2
 53 110 35 128 35 150 c 0
35 250 m 0
 35 272 53 290 75 290 c 2
 125 290 l 2
 147 290 165 272 165 250 c 0
 165 228 147 210 125 210 c 2
 75 210 l 2
 53 210 35 228 35 250 c 0
35 350 m 0
 35 372 53 390 75 390 c 2
 425 390 l 2
 447 390 465 372 465 350 c 0
 465 328 447 310 425 310 c 2
 75 310 l 2
 53 310 35 328 35 350 c 0
435 450 m 0
 435 472 453 490 475 490 c 2
 525 490 l 2
 547 490 565 472 565 450 c 0
 565 428 547 410 525 410 c 2
 475 410 l 2
 453 410 435 428 435 450 c 0
35 450 m 0
 35 472 53 490 75 490 c 2
 125 490 l 2
 147 490 165 472 165 450 c 0
 165 428 147 410 125 410 c 2
 75 410 l 2
 53 410 35 428 35 450 c 0
435 550 m 0
 435 572 453 590 475 590 c 2
 525 590 l 2
 547 590 565 572 565 550 c 0
 565 528 547 510 525 510 c 2
 475 510 l 2
 453 510 435 528 435 550 c 0
35 550 m 0
 35 572 53 590 75 590 c 2
 125 590 l 2
 147 590 165 572 165 550 c 0
 165 528 147 510 125 510 c 2
 75 510 l 2
 53 510 35 528 35 550 c 0
35 650 m 0
 35 672 53 690 75 690 c 2
 425 690 l 2
 447 690 465 672 465 650 c 0
 465 628 447 610 425 610 c 2
 75 610 l 2
 53 610 35 628 35 650 c 0
EndSplineSet
EndChar

StartChar: Q
Encoding: 81 81 49
Width: 600
Flags: HMW
AnchorPoint: "marks_below" 300 0 basechar 0
AnchorPoint: "marks_above" 300 800 basechar 0
LayerCount: 2
Fore
SplineSet
435 50 m 0
 435 72 453 90 475 90 c 2
 525 90 l 2
 547 90 565 72 565 50 c 0
 565 28 547 10 525 10 c 2
 475 10 l 2
 453 10 435 28 435 50 c 0
135 50 m 0
 135 72 153 90 175 90 c 2
 325 90 l 2
 347 90 365 72 365 50 c 0
 365 28 347 10 325 10 c 2
 175 10 l 2
 153 10 135 28 135 50 c 0
335 150 m 0
 335 172 353 190 375 190 c 2
 425 190 l 2
 447 190 465 172 465 150 c 0
 465 128 447 110 425 110 c 2
 375 110 l 2
 353 110 335 128 335 150 c 0
35 150 m 0
 35 172 53 190 75 190 c 2
 125 190 l 2
 147 190 165 172 165 150 c 0
 165 128 147 110 125 110 c 2
 75 110 l 2
 53 110 35 128 35 150 c 0
435 250 m 0
 435 272 453 290 475 290 c 2
 525 290 l 2
 547 290 565 272 565 250 c 0
 565 228 547 210 525 210 c 2
 475 210 l 2
 453 210 435 228 435 250 c 0
235 250 m 0
 235 272 253 290 275 290 c 2
 325 290 l 2
 347 290 365 272 365 250 c 0
 365 228 347 210 325 210 c 2
 275 210 l 2
 253 210 235 228 235 250 c 0
35 250 m 0
 35 272 53 290 75 290 c 2
 125 290 l 2
 147 290 165 272 165 250 c 0
 165 228 147 210 125 210 c 2
 75 210 l 2
 53 210 35 228 35 250 c 0
435 350 m 0
 435 372 453 390 475 390 c 2
 525 390 l 2
 547 390 565 372 565 350 c 0
 565 328 547 310 525 310 c 2
 475 310 l 2
 453 310 435 328 435 350 c 0
35 350 m 0
 35 372 53 390 75 390 c 2
 125 390 l 2
 147 390 165 372 165 350 c 0
 165 328 147 310 125 310 c 2
 75 310 l 2
 53 310 35 328 35 350 c 0
435 450 m 0
 435 472 453 490 475 490 c 2
 525 490 l 2
 547 490 565 472 565 450 c 0
 565 428 547 410 525 410 c 2
 475 410 l 2
 453 410 435 428 435 450 c 0
35 450 m 0
 35 472 53 490 75 490 c 2
 125 490 l 2
 147 490 165 472 165 450 c 0
 165 428 147 410 125 410 c 2
 75 410 l 2
 53 410 35 428 35 450 c 0
435 550 m 0
 435 572 453 590 475 590 c 2
 525 590 l 2
 547 590 565 572 565 550 c 0
 565 528 547 510 525 510 c 2
 475 510 l 2
 453 510 435 528 435 550 c 0
35 550 m 0
 35 572 53 590 75 590 c 2
 125 590 l 2
 147 590 165 572 165 550 c 0
 165 528 147 510 125 510 c 2
 75 510 l 2
 53 510 35 528 35 550 c 0
135 650 m 0
 135 672 153 690 175 690 c 2
 425 690 l 2
 447 690 465 672 465 650 c 0
 465 628 447 610 425 610 c 2
 175 610 l 2
 153 610 135 628 135 650 c 0
EndSplineSet
EndChar

StartChar: R
Encoding: 82 82 50
Width: 600
Flags: HMW
AnchorPoint: "marks_below" 300 0 basechar 0
AnchorPoint: "marks_above" 300 800 basechar 0
LayerCount: 2
Fore
SplineSet
435 50 m 0
 435 72 453 90 475 90 c 2
 525 90 l 2
 547 90 565 72 565 50 c 0
 565 28 547 10 525 10 c 2
 475 10 l 2
 453 10 435 28 435 50 c 0
35 50 m 0
 35 72 53 90 75 90 c 2
 125 90 l 2
 147 90 165 72 165 50 c 0
 165 28 147 10 125 10 c 2
 75 10 l 2
 53 10 35 28 35 50 c 0
335 150 m 0
 335 172 353 190 375 190 c 2
 425 190 l 2
 447 190 465 172 465 150 c 0
 465 128 447 110 425 110 c 2
 375 110 l 2
 353 110 335 128 335 150 c 0
35 150 m 0
 35 172 53 190 75 190 c 2
 125 190 l 2
 147 190 165 172 165 150 c 0
 165 128 147 110 125 110 c 2
 75 110 l 2
 53 110 35 128 35 150 c 0
235 250 m 0
 235 272 253 290 275 290 c 2
 325 290 l 2
 347 290 365 272 365 250 c 0
 365 228 347 210 325 210 c 2
 275 210 l 2
 253 210 235 228 235 250 c 0
35 250 m 0
 35 272 53 290 75 290 c 2
 125 290 l 2
 147 290 165 272 165 250 c 0
 165 228 147 210 125 210 c 2
 75 210 l 2
 53 210 35 228 35 250 c 0
35 350 m 0
 35 372 53 390 75 390 c 2
 425 390 l 2
 447 390 465 372 465 350 c 0
 465 328 447 310 425 310 c 2
 75 310 l 2
 53 310 35 328 35 350 c 0
435 450 m 0
 435 472 453 490 475 490 c 2
 525 490 l 2
 547 490 565 472 565 450 c 0
 565 428 547 410 525 410 c 2
 475 410 l 2
 453 410 435 428 435 450 c 0
35 450 m 0
 35 472 53 490 75 490 c 2
 125 490 l 2
 147 490 165 472 165 450 c 0
 165 428 147 410 125 410 c 2
 75 410 l 2
 53 410 35 428 35 450 c 0
435 550 m 0
 435 572 453 590 475 590 c 2
 525 590 l 2
 547 590 565 572 565 550 c 0
 565 528 547 510 525 510 c 2
 475 510 l 2
 453 510 435 528 435 550 c 0
35 550 m 0
 35 572 53 590 75 590 c 2
 125 590 l 2
 147 590 165 572 165 550 c 0
 165 528 147 510 125 510 c 2
 75 510 l 2
 53 510 35 528 35 550 c 0
35 650 m 0
 35 672 53 690 75 690 c 2
 425 690 l 2
 447 690 465 672 465 650 c 0
 465 628 447 610 425 610 c 2
 75 610 l 2
 53 610 35 628 35 650 c 0
EndSplineSet
EndChar

StartChar: S
Encoding: 83 83 51
Width: 600
Flags: HMW
AnchorPoint: "marks_below" 300 0 basechar 0
AnchorPoint: "marks_above" 300 800 basechar 0
LayerCount: 2
Fore
SplineSet
135 50 m 0
 135 72 153 90 175 90 c 2
 425 90 l 2
 447 90 465 72 465 50 c 0
 465 28 447 10 425 10 c 2
 175 10 l 2
 153 10 135 28 135 50 c 0
435 150 m 0
 435 172 453 190 475 190 c 2
 525 190 l 2
 547 190 565 172 565 150 c 0
 565 128 547 110 525 110 c 2
 475 110 l 2
 453 110 435 128 435 150 c 0
35 150 m 0
 35 172 53 190 75 190 c 2
 125 190 l 2
 147 190 165 172 165 150 c 0
 165 128 147 110 125 110 c 2
 75 110 l 2
 53 110 35 128 35 150 c 0
435 250 m 0
 435 272 453 290 475 290 c 2
 525 290 l 2
 547 290 565 272 565 250 c 0
 565 228 547 210 525 210 c 2
 475 210 l 2
 453 210 435 228 435 250 c 0
135 350 m 0
 135 372 153 390 175 390 c 2
 425 390 l 2
 447 390 465 372 465 350 c 0
 465 328 447 310 425 310 c 2
 175 310 l 2
 153 310 135 328 135 350 c 0
35 450 m 0
 35 472 53 490 75 490 c 2
 125 490 l 2
 147 490 165 472 165 450 c 0
 165 428 147 410 125 410 c 2
 75 410 l 2
 53 410 35 428 35 450 c 0
435 550 m 0
 435 572 453 590 475 590 c 2
 525 590 l 2
 547 590 565 572 565 550 c 0
 565 528 547 510 525 510 c 2
 475 510 l 2
 453 510 435 528 435 550 c 0
35 550 m 0
 35 572 53 590 75 590 c 2
 125 590 l 2
 147 590 165 572 165 550 c 0
 165 528 147 510 125 510 c 2
 75 510 l 2
 53 510 35 528 35 550 c 0
135 650 m 0
 135 672 153 690 175 690 c 2
 425 690 l 2
 447 690 465 672 465 650 c 0
 465 628 447 610 425 610 c 2
 175 610 l 2
 153 610 135 628 135 650 c 0
EndSplineSet
EndChar

StartChar: T
Encoding: 84 84 52
Width: 600
Flags: HMW
AnchorPoint: "marks_below" 300 0 basechar 0
AnchorPoint: "marks_above" 300 800 basechar 0
LayerCount: 2
Fore
SplineSet
235 50 m 0
 235 72 253 90 275 90 c 2
 325 90 l 2
 347 90 365 72 365 50 c 0
 365 28 347 10 325 10 c 2
 275 10 l 2
 253 10 235 28 235 50 c 0
235 150 m 0
 235 172 253 190 275 190 c 2
 325 190 l 2
 347 190 365 172 365 150 c 0
 365 128 347 110 325 110 c 2
 275 110 l 2
 253 110 235 128 235 150 c 0
235 250 m 0
 235 272 253 290 275 290 c 2
 325 290 l 2
 347 290 365 272 365 250 c 0
 365 228 347 210 325 210 c 2
 275 210 l 2
 253 210 235 228 235 250 c 0
235 350 m 0
 235 372 253 390 275 390 c 2
 325 390 l 2
 347 390 365 372 365 350 c 0
 365 328 347 310 325 310 c 2
 275 310 l 2
 253 310 235 328 235 350 c 0
235 450 m 0
 235 472 253 490 275 490 c 2
 325 490 l 2
 347 490 365 472 365 450 c 0
 365 428 347 410 325 410 c 2
 275 410 l 2
 253 410 235 428 235 450 c 0
235 550 m 0
 235 572 253 590 275 590 c 2
 325 590 l 2
 347 590 365 572 365 550 c 0
 365 528 347 510 325 510 c 2
 275 510 l 2
 253 510 235 528 235 550 c 0
35 650 m 0
 35 672 53 690 75 690 c 2
 525 690 l 2
 547 690 565 672 565 650 c 0
 565 628 547 610 525 610 c 2
 75 610 l 2
 53 610 35 628 35 650 c 0
EndSplineSet
EndChar

StartChar: U
Encoding: 85 85 53
Width: 600
Flags: HMW
AnchorPoint: "ogonek" 300 0 basechar 0
AnchorPoint: "marks_below" 300 0 basechar 0
AnchorPoint: "marks_above" 300 800 basechar 0
LayerCount: 2
Fore
SplineSet
135 50 m 0
 135 72 153 90 175 90 c 2
 425 90 l 2
 447 90 465 72 465 50 c 0
 465 28 447 10 425 10 c 2
 175 10 l 2
 153 10 135 28 135 50 c 0
435 150 m 0
 435 172 453 190 475 190 c 2
 525 190 l 2
 547 190 565 172 565 150 c 0
 565 128 547 110 525 110 c 2
 475 110 l 2
 453 110 435 128 435 150 c 0
35 150 m 0
 35 172 53 190 75 190 c 2
 125 190 l 2
 147 190 165 172 165 150 c 0
 165 128 147 110 125 110 c 2
 75 110 l 2
 53 110 35 128 35 150 c 0
435 250 m 0
 435 272 453 290 475 290 c 2
 525 290 l 2
 547 290 565 272 565 250 c 0
 565 228 547 210 525 210 c 2
 475 210 l 2
 453 210 435 228 435 250 c 0
35 250 m 0
 35 272 53 290 75 290 c 2
 125 290 l 2
 147 290 165 272 165 250 c 0
 165 228 147 210 125 210 c 2
 75 210 l 2
 53 210 35 228 35 250 c 0
435 350 m 0
 435 372 453 390 475 390 c 2
 525 390 l 2
 547 390 565 372 565 350 c 0
 565 328 547 310 525 310 c 2
 475 310 l 2
 453 310 435 328 435 350 c 0
35 350 m 0
 35 372 53 390 75 390 c 2
 125 390 l 2
 147 390 165 372 165 350 c 0
 165 328 147 310 125 310 c 2
 75 310 l 2
 53 310 35 328 35 350 c 0
435 450 m 0
 435 472 453 490 475 490 c 2
 525 490 l 2
 547 490 565 472 565 450 c 0
 565 428 547 410 525 410 c 2
 475 410 l 2
 453 410 435 428 435 450 c 0
35 450 m 0
 35 472 53 490 75 490 c 2
 125 490 l 2
 147 490 165 472 165 450 c 0
 165 428 147 410 125 410 c 2
 75 410 l 2
 53 410 35 428 35 450 c 0
435 550 m 0
 435 572 453 590 475 590 c 2
 525 590 l 2
 547 590 565 572 565 550 c 0
 565 528 547 510 525 510 c 2
 475 510 l 2
 453 510 435 528 435 550 c 0
35 550 m 0
 35 572 53 590 75 590 c 2
 125 590 l 2
 147 590 165 572 165 550 c 0
 165 528 147 510 125 510 c 2
 75 510 l 2
 53 510 35 528 35 550 c 0
435 650 m 0
 435 672 453 690 475 690 c 2
 525 690 l 2
 547 690 565 672 565 650 c 0
 565 628 547 610 525 610 c 2
 475 610 l 2
 453 610 435 628 435 650 c 0
35 650 m 0
 35 672 53 690 75 690 c 2
 125 690 l 2
 147 690 165 672 165 650 c 0
 165 628 147 610 125 610 c 2
 75 610 l 2
 53 610 35 628 35 650 c 0
EndSplineSet
EndChar

StartChar: V
Encoding: 86 86 54
Width: 600
Flags: HMW
AnchorPoint: "marks_below" 300 0 basechar 0
AnchorPoint: "marks_above" 300 800 basechar 0
LayerCount: 2
Fore
SplineSet
235 50 m 0
 235 72 253 90 275 90 c 2
 325 90 l 2
 347 90 365 72 365 50 c 0
 365 28 347 10 325 10 c 2
 275 10 l 2
 253 10 235 28 235 50 c 0
335 150 m 0
 335 172 353 190 375 190 c 2
 425 190 l 2
 447 190 465 172 465 150 c 0
 465 128 447 110 425 110 c 2
 375 110 l 2
 353 110 335 128 335 150 c 0
135 150 m 0
 135 172 153 190 175 190 c 2
 225 190 l 2
 247 190 265 172 265 150 c 0
 265 128 247 110 225 110 c 2
 175 110 l 2
 153 110 135 128 135 150 c 0
435 250 m 0
 435 272 453 290 475 290 c 2
 525 290 l 2
 547 290 565 272 565 250 c 0
 565 228 547 210 525 210 c 2
 475 210 l 2
 453 210 435 228 435 250 c 0
35 250 m 0
 35 272 53 290 75 290 c 2
 125 290 l 2
 147 290 165 272 165 250 c 0
 165 228 147 210 125 210 c 2
 75 210 l 2
 53 210 35 228 35 250 c 0
435 350 m 0
 435 372 453 390 475 390 c 2
 525 390 l 2
 547 390 565 372 565 350 c 0
 565 328 547 310 525 310 c 2
 475 310 l 2
 453 310 435 328 435 350 c 0
35 350 m 0
 35 372 53 390 75 390 c 2
 125 390 l 2
 147 390 165 372 165 350 c 0
 165 328 147 310 125 310 c 2
 75 310 l 2
 53 310 35 328 35 350 c 0
435 450 m 0
 435 472 453 490 475 490 c 2
 525 490 l 2
 547 490 565 472 565 450 c 0
 565 428 547 410 525 410 c 2
 475 410 l 2
 453 410 435 428 435 450 c 0
35 450 m 0
 35 472 53 490 75 490 c 2
 125 490 l 2
 147 490 165 472 165 450 c 0
 165 428 147 410 125 410 c 2
 75 410 l 2
 53 410 35 428 35 450 c 0
435 550 m 0
 435 572 453 590 475 590 c 2
 525 590 l 2
 547 590 565 572 565 550 c 0
 565 528 547 510 525 510 c 2
 475 510 l 2
 453 510 435 528 435 550 c 0
35 550 m 0
 35 572 53 590 75 590 c 2
 125 590 l 2
 147 590 165 572 165 550 c 0
 165 528 147 510 125 510 c 2
 75 510 l 2
 53 510 35 528 35 550 c 0
435 650 m 0
 435 672 453 690 475 690 c 2
 525 690 l 2
 547 690 565 672 565 650 c 0
 565 628 547 610 525 610 c 2
 475 610 l 2
 453 610 435 628 435 650 c 0
35 650 m 0
 35 672 53 690 75 690 c 2
 125 690 l 2
 147 690 165 672 165 650 c 0
 165 628 147 610 125 610 c 2
 75 610 l 2
 53 610 35 628 35 650 c 0
EndSplineSet
EndChar

StartChar: W
Encoding: 87 87 55
Width: 600
Flags: HMW
AnchorPoint: "marks_below" 300 0 basechar 0
AnchorPoint: "marks_above" 300 800 basechar 0
LayerCount: 2
Fore
SplineSet
335 50 m 0
 335 72 353 90 375 90 c 2
 425 90 l 2
 447 90 465 72 465 50 c 0
 465 28 447 10 425 10 c 2
 375 10 l 2
 353 10 335 28 335 50 c 0
135 50 m 0
 135 72 153 90 175 90 c 2
 225 90 l 2
 247 90 265 72 265 50 c 0
 265 28 247 10 225 10 c 2
 175 10 l 2
 153 10 135 28 135 50 c 0
435 150 m 0
 435 172 453 190 475 190 c 2
 525 190 l 2
 547 190 565 172 565 150 c 0
 565 128 547 110 525 110 c 2
 475 110 l 2
 453 110 435 128 435 150 c 0
235 150 m 0
 235 172 253 190 275 190 c 2
 325 190 l 2
 347 190 365 172 365 150 c 0
 365 128 347 110 325 110 c 2
 275 110 l 2
 253 110 235 128 235 150 c 0
35 150 m 0
 35 172 53 190 75 190 c 2
 125 190 l 2
 147 190 165 172 165 150 c 0
 165 128 147 110 125 110 c 2
 75 110 l 2
 53 110 35 128 35 150 c 0
435 250 m 0
 435 272 453 290 475 290 c 2
 525 290 l 2
 547 290 565 272 565 250 c 0
 565 228 547 210 525 210 c 2
 475 210 l 2
 453 210 435 228 435 250 c 0
235 250 m 0
 235 272 253 290 275 290 c 2
 325 290 l 2
 347 290 365 272 365 250 c 0
 365 228 347 210 325 210 c 2
 275 210 l 2
 253 210 235 228 235 250 c 0
35 250 m 0
 35 272 53 290 75 290 c 2
 125 290 l 2
 147 290 165 272 165 250 c 0
 165 228 147 210 125 210 c 2
 75 210 l 2
 53 210 35 228 35 250 c 0
435 350 m 0
 435 372 453 390 475 390 c 2
 525 390 l 2
 547 390 565 372 565 350 c 0
 565 328 547 310 525 310 c 2
 475 310 l 2
 453 310 435 328 435 350 c 0
235 350 m 0
 235 372 253 390 275 390 c 2
 325 390 l 2
 347 390 365 372 365 350 c 0
 365 328 347 310 325 310 c 2
 275 310 l 2
 253 310 235 328 235 350 c 0
35 350 m 0
 35 372 53 390 75 390 c 2
 125 390 l 2
 147 390 165 372 165 350 c 0
 165 328 147 310 125 310 c 2
 75 310 l 2
 53 310 35 328 35 350 c 0
435 450 m 0
 435 472 453 490 475 490 c 2
 525 490 l 2
 547 490 565 472 565 450 c 0
 565 428 547 410 525 410 c 2
 475 410 l 2
 453 410 435 428 435 450 c 0
35 450 m 0
 35 472 53 490 75 490 c 2
 125 490 l 2
 147 490 165 472 165 450 c 0
 165 428 147 410 125 410 c 2
 75 410 l 2
 53 410 35 428 35 450 c 0
435 550 m 0
 435 572 453 590 475 590 c 2
 525 590 l 2
 547 590 565 572 565 550 c 0
 565 528 547 510 525 510 c 2
 475 510 l 2
 453 510 435 528 435 550 c 0
35 550 m 0
 35 572 53 590 75 590 c 2
 125 590 l 2
 147 590 165 572 165 550 c 0
 165 528 147 510 125 510 c 2
 75 510 l 2
 53 510 35 528 35 550 c 0
435 650 m 0
 435 672 453 690 475 690 c 2
 525 690 l 2
 547 690 565 672 565 650 c 0
 565 628 547 610 525 610 c 2
 475 610 l 2
 453 610 435 628 435 650 c 0
35 650 m 0
 35 672 53 690 75 690 c 2
 125 690 l 2
 147 690 165 672 165 650 c 0
 165 628 147 610 125 610 c 2
 75 610 l 2
 53 610 35 628 35 650 c 0
EndSplineSet
EndChar

StartChar: X
Encoding: 88 88 56
Width: 600
Flags: HMW
AnchorPoint: "marks_below" 300 0 basechar 0
AnchorPoint: "marks_above" 300 800 basechar 0
LayerCount: 2
Fore
SplineSet
435 50 m 0
 435 72 453 90 475 90 c 2
 525 90 l 2
 547 90 565 72 565 50 c 0
 565 28 547 10 525 10 c 2
 475 10 l 2
 453 10 435 28 435 50 c 0
35 50 m 0
 35 72 53 90 75 90 c 2
 125 90 l 2
 147 90 165 72 165 50 c 0
 165 28 147 10 125 10 c 2
 75 10 l 2
 53 10 35 28 35 50 c 0
435 150 m 0
 435 172 453 190 475 190 c 2
 525 190 l 2
 547 190 565 172 565 150 c 0
 565 128 547 110 525 110 c 2
 475 110 l 2
 453 110 435 128 435 150 c 0
35 150 m 0
 35 172 53 190 75 190 c 2
 125 190 l 2
 147 190 165 172 165 150 c 0
 165 128 147 110 125 110 c 2
 75 110 l 2
 53 110 35 128 35 150 c 0
335 250 m 0
 335 272 353 290 375 290 c 2
 425 290 l 2
 447 290 465 272 465 250 c 0
 465 228 447 210 425 210 c 2
 375 210 l 2
 353 210 335 228 335 250 c 0
135 250 m 0
 135 272 153 290 175 290 c 2
 225 290 l 2
 247 290 265 272 265 250 c 0
 265 228 247 210 225 210 c 2
 175 210 l 2
 153 210 135 228 135 250 c 0
235 350 m 0
 235 372 253 390 275 390 c 2
 325 390 l 2
 347 390 365 372 365 350 c 0
 365 328 347 310 325 310 c 2
 275 310 l 2
 253 310 235 328 235 350 c 0
335 450 m 0
 335 472 353 490 375 490 c 2
 425 490 l 2
 447 490 465 472 465 450 c 0
 465 428 447 410 425 410 c 2
 375 410 l 2
 353 410 335 428 335 450 c 0
135 450 m 0
 135 472 153 490 175 490 c 2
 225 490 l 2
 247 490 265 472 265 450 c 0
 265 428 247 410 225 410 c 2
 175 410 l 2
 153 410 135 428 135 450 c 0
435 550 m 0
 435 572 453 590 475 590 c 2
 525 590 l 2
 547 590 565 572 565 550 c 0
 565 528 547 510 525 510 c 2
 475 510 l 2
 453 510 435 528 435 550 c 0
35 550 m 0
 35 572 53 590 75 590 c 2
 125 590 l 2
 147 590 165 572 165 550 c 0
 165 528 147 510 125 510 c 2
 75 510 l 2
 53 510 35 528 35 550 c 0
435 650 m 0
 435 672 453 690 475 690 c 2
 525 690 l 2
 547 690 565 672 565 650 c 0
 565 628 547 610 525 610 c 2
 475 610 l 2
 453 610 435 628 435 650 c 0
35 650 m 0
 35 672 53 690 75 690 c 2
 125 690 l 2
 147 690 165 672 165 650 c 0
 165 628 147 610 125 610 c 2
 75 610 l 2
 53 610 35 628 35 650 c 0
EndSplineSet
EndChar

StartChar: Y
Encoding: 89 89 57
Width: 600
Flags: HMW
AnchorPoint: "marks_below" 300 0 basechar 0
AnchorPoint: "marks_above" 300 800 basechar 0
LayerCount: 2
Fore
SplineSet
235 50 m 0
 235 72 253 90 275 90 c 2
 325 90 l 2
 347 90 365 72 365 50 c 0
 365 28 347 10 325 10 c 2
 275 10 l 2
 253 10 235 28 235 50 c 0
235 150 m 0
 235 172 253 190 275 190 c 2
 325 190 l 2
 347 190 365 172 365 150 c 0
 365 128 347 110 325 110 c 2
 275 110 l 2
 253 110 235 128 235 150 c 0
235 250 m 0
 235 272 253 290 275 290 c 2
 325 290 l 2
 347 290 365 272 365 250 c 0
 365 228 347 210 325 210 c 2
 275 210 l 2
 253 210 235 228 235 250 c 0
235 350 m 0
 235 372 253 390 275 390 c 2
 325 390 l 2
 347 390 365 372 365 350 c 0
 365 328 347 310 325 310 c 2
 275 310 l 2
 253 310 235 328 235 350 c 0
335 450 m 0
 335 472 353 490 375 490 c 2
 425 490 l 2
 447 490 465 472 465 450 c 0
 465 428 447 410 425 410 c 2
 375 410 l 2
 353 410 335 428 335 450 c 0
135 450 m 0
 135 472 153 490 175 490 c 2
 225 490 l 2
 247 490 265 472 265 450 c 0
 265 428 247 410 225 410 c 2
 175 410 l 2
 153 410 135 428 135 450 c 0
435 550 m 0
 435 572 453 590 475 590 c 2
 525 590 l 2
 547 590 565 572 565 550 c 0
 565 528 547 510 525 510 c 2
 475 510 l 2
 453 510 435 528 435 550 c 0
35 550 m 0
 35 572 53 590 75 590 c 2
 125 590 l 2
 147 590 165 572 165 550 c 0
 165 528 147 510 125 510 c 2
 75 510 l 2
 53 510 35 528 35 550 c 0
435 650 m 0
 435 672 453 690 475 690 c 2
 525 690 l 2
 547 690 565 672 565 650 c 0
 565 628 547 610 525 610 c 2
 475 610 l 2
 453 610 435 628 435 650 c 0
35 650 m 0
 35 672 53 690 75 690 c 2
 125 690 l 2
 147 690 165 672 165 650 c 0
 165 628 147 610 125 610 c 2
 75 610 l 2
 53 610 35 628 35 650 c 0
EndSplineSet
EndChar

StartChar: Z
Encoding: 90 90 58
Width: 600
Flags: HMW
AnchorPoint: "marks_below" 300 0 basechar 0
AnchorPoint: "marks_above" 300 800 basechar 0
LayerCount: 2
Fore
SplineSet
35 50 m 0
 35 72 53 90 75 90 c 2
 525 90 l 2
 547 90 565 72 565 50 c 0
 565 28 547 10 525 10 c 2
 75 10 l 2
 53 10 35 28 35 50 c 0
35 150 m 0
 35 172 53 190 75 190 c 2
 125 190 l 2
 147 190 165 172 165 150 c 0
 165 128 147 110 125 110 c 2
 75 110 l 2
 53 110 35 128 35 150 c 0
135 250 m 0
 135 272 153 290 175 290 c 2
 225 290 l 2
 247 290 265 272 265 250 c 0
 265 228 247 210 225 210 c 2
 175 210 l 2
 153 210 135 228 135 250 c 0
235 350 m 0
 235 372 253 390 275 390 c 2
 325 390 l 2
 347 390 365 372 365 350 c 0
 365 328 347 310 325 310 c 2
 275 310 l 2
 253 310 235 328 235 350 c 0
335 450 m 0
 335 472 353 490 375 490 c 2
 425 490 l 2
 447 490 465 472 465 450 c 0
 465 428 447 410 425 410 c 2
 375 410 l 2
 353 410 335 428 335 450 c 0
435 550 m 0
 435 572 453 590 475 590 c 2
 525 590 l 2
 547 590 565 572 565 550 c 0
 565 528 547 510 525 510 c 2
 475 510 l 2
 453 510 435 528 435 550 c 0
35 650 m 0
 35 672 53 690 75 690 c 2
 525 690 l 2
 547 690 565 672 565 650 c 0
 565 628 547 610 525 610 c 2
 75 610 l 2
 53 610 35 628 35 650 c 0
EndSplineSet
EndChar

StartChar: bracketleft
Encoding: 91 91 59
Width: 400
Flags: HMW
LayerCount: 2
Fore
SplineSet
35 50 m 0
 35 72 53 90 75 90 c 2
 325 90 l 2
 347 90 365 72 365 50 c 0
 365 28 347 10 325 10 c 2
 75 10 l 2
 53 10 35 28 35 50 c 0
35 150 m 0
 35 172 53 190 75 190 c 2
 125 190 l 2
 147 190 165 172 165 150 c 0
 165 128 147 110 125 110 c 2
 75 110 l 2
 53 110 35 128 35 150 c 0
35 250 m 0
 35 272 53 290 75 290 c 2
 125 290 l 2
 147 290 165 272 165 250 c 0
 165 228 147 210 125 210 c 2
 75 210 l 2
 53 210 35 228 35 250 c 0
35 350 m 0
 35 372 53 390 75 390 c 2
 125 390 l 2
 147 390 165 372 165 350 c 0
 165 328 147 310 125 310 c 2
 75 310 l 2
 53 310 35 328 35 350 c 0
35 450 m 0
 35 472 53 490 75 490 c 2
 125 490 l 2
 147 490 165 472 165 450 c 0
 165 428 147 410 125 410 c 2
 75 410 l 2
 53 410 35 428 35 450 c 0
35 550 m 0
 35 572 53 590 75 590 c 2
 125 590 l 2
 147 590 165 572 165 550 c 0
 165 528 147 510 125 510 c 2
 75 510 l 2
 53 510 35 528 35 550 c 0
35 650 m 0
 35 672 53 690 75 690 c 2
 325 690 l 2
 347 690 365 672 365 650 c 0
 365 628 347 610 325 610 c 2
 75 610 l 2
 53 610 35 628 35 650 c 0
EndSplineSet
EndChar

StartChar: backslash
Encoding: 92 92 60
Width: 600
Flags: HMW
LayerCount: 2
Fore
SplineSet
435 150 m 0
 435 172 453 190 475 190 c 2
 525 190 l 2
 547 190 565 172 565 150 c 0
 565 128 547 110 525 110 c 2
 475 110 l 2
 453 110 435 128 435 150 c 0
335 250 m 0
 335 272 353 290 375 290 c 2
 425 290 l 2
 447 290 465 272 465 250 c 0
 465 228 447 210 425 210 c 2
 375 210 l 2
 353 210 335 228 335 250 c 0
235 350 m 0
 235 372 253 390 275 390 c 2
 325 390 l 2
 347 390 365 372 365 350 c 0
 365 328 347 310 325 310 c 2
 275 310 l 2
 253 310 235 328 235 350 c 0
135 450 m 0
 135 472 153 490 175 490 c 2
 225 490 l 2
 247 490 265 472 265 450 c 0
 265 428 247 410 225 410 c 2
 175 410 l 2
 153 410 135 428 135 450 c 0
35 550 m 0
 35 572 53 590 75 590 c 2
 125 590 l 2
 147 590 165 572 165 550 c 0
 165 528 147 510 125 510 c 2
 75 510 l 2
 53 510 35 528 35 550 c 0
EndSplineSet
EndChar

StartChar: bracketright
Encoding: 93 93 61
Width: 400
Flags: HMW
LayerCount: 2
Fore
SplineSet
35 50 m 0
 35 72 53 90 75 90 c 2
 325 90 l 2
 347 90 365 72 365 50 c 0
 365 28 347 10 325 10 c 2
 75 10 l 2
 53 10 35 28 35 50 c 0
235 150 m 0
 235 172 253 190 275 190 c 2
 325 190 l 2
 347 190 365 172 365 150 c 0
 365 128 347 110 325 110 c 2
 275 110 l 2
 253 110 235 128 235 150 c 0
235 250 m 0
 235 272 253 290 275 290 c 2
 325 290 l 2
 347 290 365 272 365 250 c 0
 365 228 347 210 325 210 c 2
 275 210 l 2
 253 210 235 228 235 250 c 0
235 350 m 0
 235 372 253 390 275 390 c 2
 325 390 l 2
 347 390 365 372 365 350 c 0
 365 328 347 310 325 310 c 2
 275 310 l 2
 253 310 235 328 235 350 c 0
235 450 m 0
 235 472 253 490 275 490 c 2
 325 490 l 2
 347 490 365 472 365 450 c 0
 365 428 347 410 325 410 c 2
 275 410 l 2
 253 410 235 428 235 450 c 0
235 550 m 0
 235 572 253 590 275 590 c 2
 325 590 l 2
 347 590 365 572 365 550 c 0
 365 528 347 510 325 510 c 2
 275 510 l 2
 253 510 235 528 235 550 c 0
35 650 m 0
 35 672 53 690 75 690 c 2
 325 690 l 2
 347 690 365 672 365 650 c 0
 365 628 347 610 325 610 c 2
 75 610 l 2
 53 610 35 628 35 650 c 0
EndSplineSet
EndChar

StartChar: asciicircum
Encoding: 94 94 62
Width: 600
Flags: HMW
LayerCount: 2
Fore
SplineSet
435 450 m 0
 435 472 453 490 475 490 c 2
 525 490 l 2
 547 490 565 472 565 450 c 0
 565 428 547 410 525 410 c 2
 475 410 l 2
 453 410 435 428 435 450 c 0
35 450 m 0
 35 472 53 490 75 490 c 2
 125 490 l 2
 147 490 165 472 165 450 c 0
 165 428 147 410 125 410 c 2
 75 410 l 2
 53 410 35 428 35 450 c 0
335 550 m 0
 335 572 353 590 375 590 c 2
 425 590 l 2
 447 590 465 572 465 550 c 0
 465 528 447 510 425 510 c 2
 375 510 l 2
 353 510 335 528 335 550 c 0
135 550 m 0
 135 572 153 590 175 590 c 2
 225 590 l 2
 247 590 265 572 265 550 c 0
 265 528 247 510 225 510 c 2
 175 510 l 2
 153 510 135 528 135 550 c 0
235 650 m 0
 235 672 253 690 275 690 c 2
 325 690 l 2
 347 690 365 672 365 650 c 0
 365 628 347 610 325 610 c 2
 275 610 l 2
 253 610 235 628 235 650 c 0
EndSplineSet
EndChar

StartChar: underscore
Encoding: 95 95 63
Width: 600
Flags: HMW
LayerCount: 2
Fore
SplineSet
-15 -50 m 0
 -15 -28 3 -10 25 -10 c 2
 575 -10 l 2
 597 -10 615 -28 615 -50 c 0
 615 -72 597 -90 575 -90 c 2
 25 -90 l 2
 3 -90 -15 -72 -15 -50 c 0
EndSplineSet
EndChar

StartChar: grave
Encoding: 96 96 64
Width: 300
Flags: HMW
LayerCount: 2
Fore
SplineSet
135 550 m 0
 135 572 153 590 175 590 c 2
 225 590 l 2
 247 590 265 572 265 550 c 0
 265 528 247 510 225 510 c 2
 175 510 l 2
 153 510 135 528 135 550 c 0
35 650 m 0
 35 672 53 690 75 690 c 2
 125 690 l 2
 147 690 165 672 165 650 c 0
 165 628 147 610 125 610 c 2
 75 610 l 2
 53 610 35 628 35 650 c 0
EndSplineSet
EndChar

StartChar: a
Encoding: 97 97 65
Width: 600
Flags: HMW
AnchorPoint: "ogonek" 400 0 basechar 0
AnchorPoint: "marks_below" 300 0 basechar 0
AnchorPoint: "marks_above" 300 600 basechar 0
LayerCount: 2
Fore
SplineSet
135 50 m 0
 135 72 153 90 175 90 c 2
 525 90 l 2
 547 90 565 72 565 50 c 0
 565 28 547 10 525 10 c 2
 175 10 l 2
 153 10 135 28 135 50 c 0
435 150 m 0
 435 172 453 190 475 190 c 2
 525 190 l 2
 547 190 565 172 565 150 c 0
 565 128 547 110 525 110 c 2
 475 110 l 2
 453 110 435 128 435 150 c 0
35 150 m 0
 35 172 53 190 75 190 c 2
 125 190 l 2
 147 190 165 172 165 150 c 0
 165 128 147 110 125 110 c 2
 75 110 l 2
 53 110 35 128 35 150 c 0
135 250 m 0
 135 272 153 290 175 290 c 2
 525 290 l 2
 547 290 565 272 565 250 c 0
 565 228 547 210 525 210 c 2
 175 210 l 2
 153 210 135 228 135 250 c 0
435 350 m 0
 435 372 453 390 475 390 c 2
 525 390 l 2
 547 390 565 372 565 350 c 0
 565 328 547 310 525 310 c 2
 475 310 l 2
 453 310 435 328 435 350 c 0
135 450 m 0
 135 472 153 490 175 490 c 2
 425 490 l 2
 447 490 465 472 465 450 c 0
 465 428 447 410 425 410 c 2
 175 410 l 2
 153 410 135 428 135 450 c 0
EndSplineSet
EndChar

StartChar: b
Encoding: 98 98 66
Width: 600
Flags: HMW
AnchorPoint: "marks_below" 300 0 basechar 0
AnchorPoint: "marks_above" 300 800 basechar 0
LayerCount: 2
Fore
SplineSet
235 50 m 0
 235 72 253 90 275 90 c 2
 425 90 l 2
 447 90 465 72 465 50 c 0
 465 28 447 10 425 10 c 2
 275 10 l 2
 253 10 235 28 235 50 c 0
35 50 m 0
 35 72 53 90 75 90 c 2
 125 90 l 2
 147 90 165 72 165 50 c 0
 165 28 147 10 125 10 c 2
 75 10 l 2
 53 10 35 28 35 50 c 0
435 150 m 0
 435 172 453 190 475 190 c 2
 525 190 l 2
 547 190 565 172 565 150 c 0
 565 128 547 110 525 110 c 2
 475 110 l 2
 453 110 435 128 435 150 c 0
35 150 m 0
 35 172 53 190 75 190 c 2
 225 190 l 2
 247 190 265 172 265 150 c 0
 265 128 247 110 225 110 c 2
 75 110 l 2
 53 110 35 128 35 150 c 0
435 250 m 0
 435 272 453 290 475 290 c 2
 525 290 l 2
 547 290 565 272 565 250 c 0
 565 228 547 210 525 210 c 2
 475 210 l 2
 453 210 435 228 435 250 c 0
35 250 m 0
 35 272 53 290 75 290 c 2
 125 290 l 2
 147 290 165 272 165 250 c 0
 165 228 147 210 125 210 c 2
 75 210 l 2
 53 210 35 228 35 250 c 0
435 350 m 0
 435 372 453 390 475 390 c 2
 525 390 l 2
 547 390 565 372 565 350 c 0
 565 328 547 310 525 310 c 2
 475 310 l 2
 453 310 435 328 435 350 c 0
35 350 m 0
 35 372 53 390 75 390 c 2
 225 390 l 2
 247 390 265 372 265 350 c 0
 265 328 247 310 225 310 c 2
 75 310 l 2
 53 310 35 328 35 350 c 0
235 450 m 0
 235 472 253 490 275 490 c 2
 425 490 l 2
 447 490 465 472 465 450 c 0
 465 428 447 410 425 410 c 2
 275 410 l 2
 253 410 235 428 235 450 c 0
35 450 m 0
 35 472 53 490 75 490 c 2
 125 490 l 2
 147 490 165 472 165 450 c 0
 165 428 147 410 125 410 c 2
 75 410 l 2
 53 410 35 428 35 450 c 0
35 550 m 0
 35 572 53 590 75 590 c 2
 125 590 l 2
 147 590 165 572 165 550 c 0
 165 528 147 510 125 510 c 2
 75 510 l 2
 53 510 35 528 35 550 c 0
35 650 m 0
 35 672 53 690 75 690 c 2
 125 690 l 2
 147 690 165 672 165 650 c 0
 165 628 147 610 125 610 c 2
 75 610 l 2
 53 610 35 628 35 650 c 0
EndSplineSet
EndChar

StartChar: c
Encoding: 99 99 67
Width: 600
Flags: HMW
AnchorPoint: "marks_below" 300 0 basechar 0
AnchorPoint: "marks_above" 300 600 basechar 0
LayerCount: 2
Fore
SplineSet
135 50 m 0
 135 72 153 90 175 90 c 2
 425 90 l 2
 447 90 465 72 465 50 c 0
 465 28 447 10 425 10 c 2
 175 10 l 2
 153 10 135 28 135 50 c 0
435 150 m 0
 435 172 453 190 475 190 c 2
 525 190 l 2
 547 190 565 172 565 150 c 0
 565 128 547 110 525 110 c 2
 475 110 l 2
 453 110 435 128 435 150 c 0
35 150 m 0
 35 172 53 190 75 190 c 2
 125 190 l 2
 147 190 165 172 165 150 c 0
 165 128 147 110 125 110 c 2
 75 110 l 2
 53 110 35 128 35 150 c 0
35 250 m 0
 35 272 53 290 75 290 c 2
 125 290 l 2
 147 290 165 272 165 250 c 0
 165 228 147 210 125 210 c 2
 75 210 l 2
 53 210 35 228 35 250 c 0
435 350 m 0
 435 372 453 390 475 390 c 2
 525 390 l 2
 547 390 565 372 565 350 c 0
 565 328 547 310 525 310 c 2
 475 310 l 2
 453 310 435 328 435 350 c 0
35 350 m 0
 35 372 53 390 75 390 c 2
 125 390 l 2
 147 390 165 372 165 350 c 0
 165 328 147 310 125 310 c 2
 75 310 l 2
 53 310 35 328 35 350 c 0
135 450 m 0
 135 472 153 490 175 490 c 2
 425 490 l 2
 447 490 465 472 465 450 c 0
 465 428 447 410 425 410 c 2
 175 410 l 2
 153 410 135 428 135 450 c 0
EndSplineSet
EndChar

StartChar: d
Encoding: 100 100 68
Width: 600
Flags: HMW
AnchorPoint: "marks_aboveright" 650 500 basechar 0
AnchorPoint: "marks_below" 300 0 basechar 0
AnchorPoint: "marks_above" 300 800 basechar 0
LayerCount: 2
Fore
SplineSet
435 50 m 0
 435 72 453 90 475 90 c 2
 525 90 l 2
 547 90 565 72 565 50 c 0
 565 28 547 10 525 10 c 2
 475 10 l 2
 453 10 435 28 435 50 c 0
135 50 m 0
 135 72 153 90 175 90 c 2
 325 90 l 2
 347 90 365 72 365 50 c 0
 365 28 347 10 325 10 c 2
 175 10 l 2
 153 10 135 28 135 50 c 0
335 150 m 0
 335 172 353 190 375 190 c 2
 525 190 l 2
 547 190 565 172 565 150 c 0
 565 128 547 110 525 110 c 2
 375 110 l 2
 353 110 335 128 335 150 c 0
35 150 m 0
 35 172 53 190 75 190 c 2
 125 190 l 2
 147 190 165 172 165 150 c 0
 165 128 147 110 125 110 c 2
 75 110 l 2
 53 110 35 128 35 150 c 0
435 250 m 0
 435 272 453 290 475 290 c 2
 525 290 l 2
 547 290 565 272 565 250 c 0
 565 228 547 210 525 210 c 2
 475 210 l 2
 453 210 435 228 435 250 c 0
35 250 m 0
 35 272 53 290 75 290 c 2
 125 290 l 2
 147 290 165 272 165 250 c 0
 165 228 147 210 125 210 c 2
 75 210 l 2
 53 210 35 228 35 250 c 0
335 350 m 0
 335 372 353 390 375 390 c 2
 525 390 l 2
 547 390 565 372 565 350 c 0
 565 328 547 310 525 310 c 2
 375 310 l 2
 353 310 335 328 335 350 c 0
35 350 m 0
 35 372 53 390 75 390 c 2
 125 390 l 2
 147 390 165 372 165 350 c 0
 165 328 147 310 125 310 c 2
 75 310 l 2
 53 310 35 328 35 350 c 0
435 450 m 0
 435 472 453 490 475 490 c 2
 525 490 l 2
 547 490 565 472 565 450 c 0
 565 428 547 410 525 410 c 2
 475 410 l 2
 453 410 435 428 435 450 c 0
135 450 m 0
 135 472 153 490 175 490 c 2
 325 490 l 2
 347 490 365 472 365 450 c 0
 365 428 347 410 325 410 c 2
 175 410 l 2
 153 410 135 428 135 450 c 0
435 550 m 0
 435 572 453 590 475 590 c 2
 525 590 l 2
 547 590 565 572 565 550 c 0
 565 528 547 510 525 510 c 2
 475 510 l 2
 453 510 435 528 435 550 c 0
435 650 m 0
 435 672 453 690 475 690 c 2
 525 690 l 2
 547 690 565 672 565 650 c 0
 565 628 547 610 525 610 c 2
 475 610 l 2
 453 610 435 628 435 650 c 0
EndSplineSet
EndChar

StartChar: e
Encoding: 101 101 69
Width: 600
Flags: HMW
AnchorPoint: "ogonek" 400 0 basechar 0
AnchorPoint: "marks_below" 300 0 basechar 0
AnchorPoint: "marks_above" 300 600 basechar 0
LayerCount: 2
Fore
SplineSet
135 50 m 0
 135 72 153 90 175 90 c 2
 425 90 l 2
 447 90 465 72 465 50 c 0
 465 28 447 10 425 10 c 2
 175 10 l 2
 153 10 135 28 135 50 c 0
35 150 m 0
 35 172 53 190 75 190 c 2
 125 190 l 2
 147 190 165 172 165 150 c 0
 165 128 147 110 125 110 c 2
 75 110 l 2
 53 110 35 128 35 150 c 0
35 250 m 0
 35 272 53 290 75 290 c 2
 525 290 l 2
 547 290 565 272 565 250 c 0
 565 228 547 210 525 210 c 2
 75 210 l 2
 53 210 35 228 35 250 c 0
435 350 m 0
 435 372 453 390 475 390 c 2
 525 390 l 2
 547 390 565 372 565 350 c 0
 565 328 547 310 525 310 c 2
 475 310 l 2
 453 310 435 328 435 350 c 0
35 350 m 0
 35 372 53 390 75 390 c 2
 125 390 l 2
 147 390 165 372 165 350 c 0
 165 328 147 310 125 310 c 2
 75 310 l 2
 53 310 35 328 35 350 c 0
135 450 m 0
 135 472 153 490 175 490 c 2
 425 490 l 2
 447 490 465 472 465 450 c 0
 465 428 447 410 425 410 c 2
 175 410 l 2
 153 410 135 428 135 450 c 0
EndSplineSet
EndChar

StartChar: f
Encoding: 102 102 70
Width: 600
Flags: HMW
AnchorPoint: "marks_below" 300 0 basechar 0
AnchorPoint: "marks_above" 300 800 basechar 0
LayerCount: 2
Fore
SplineSet
135 50 m 0
 135 72 153 90 175 90 c 2
 225 90 l 2
 247 90 265 72 265 50 c 0
 265 28 247 10 225 10 c 2
 175 10 l 2
 153 10 135 28 135 50 c 0
135 150 m 0
 135 172 153 190 175 190 c 2
 225 190 l 2
 247 190 265 172 265 150 c 0
 265 128 247 110 225 110 c 2
 175 110 l 2
 153 110 135 128 135 150 c 0
135 250 m 0
 135 272 153 290 175 290 c 2
 225 290 l 2
 247 290 265 272 265 250 c 0
 265 228 247 210 225 210 c 2
 175 210 l 2
 153 210 135 228 135 250 c 0
35 350 m 0
 35 372 53 390 75 390 c 2
 425 390 l 2
 447 390 465 372 465 350 c 0
 465 328 447 310 425 310 c 2
 75 310 l 2
 53 310 35 328 35 350 c 0
135 450 m 0
 135 472 153 490 175 490 c 2
 225 490 l 2
 247 490 265 472 265 450 c 0
 265 428 247 410 225 410 c 2
 175 410 l 2
 153 410 135 428 135 450 c 0
435 550 m 0
 435 572 453 590 475 590 c 2
 525 590 l 2
 547 590 565 572 565 550 c 0
 565 528 547 510 525 510 c 2
 475 510 l 2
 453 510 435 528 435 550 c 0
135 550 m 0
 135 572 153 590 175 590 c 2
 225 590 l 2
 247 590 265 572 265 550 c 0
 265 528 247 510 225 510 c 2
 175 510 l 2
 153 510 135 528 135 550 c 0
235 650 m 0
 235 672 253 690 275 690 c 2
 425 690 l 2
 447 690 465 672 465 650 c 0
 465 628 447 610 425 610 c 2
 275 610 l 2
 253 610 235 628 235 650 c 0
EndSplineSet
EndChar

StartChar: g
Encoding: 103 103 71
Width: 600
Flags: HMW
AnchorPoint: "marks_above" 300 600 basechar 0
LayerCount: 2
Fore
SplineSet
135 -150 m 0
 135 -128 153 -110 175 -110 c 2
 425 -110 l 2
 447 -110 465 -128 465 -150 c 0
 465 -172 447 -190 425 -190 c 2
 175 -190 l 2
 153 -190 135 -172 135 -150 c 0
435 -50 m 0
 435 -28 453 -10 475 -10 c 2
 525 -10 l 2
 547 -10 565 -28 565 -50 c 0
 565 -72 547 -90 525 -90 c 2
 475 -90 l 2
 453 -90 435 -72 435 -50 c 0
435 50 m 0
 435 72 453 90 475 90 c 2
 525 90 l 2
 547 90 565 72 565 50 c 0
 565 28 547 10 525 10 c 2
 475 10 l 2
 453 10 435 28 435 50 c 0
135 50 m 0
 135 72 153 90 175 90 c 2
 325 90 l 2
 347 90 365 72 365 50 c 0
 365 28 347 10 325 10 c 2
 175 10 l 2
 153 10 135 28 135 50 c 0
335 150 m 0
 335 172 353 190 375 190 c 2
 525 190 l 2
 547 190 565 172 565 150 c 0
 565 128 547 110 525 110 c 2
 375 110 l 2
 353 110 335 128 335 150 c 0
35 150 m 0
 35 172 53 190 75 190 c 2
 125 190 l 2
 147 190 165 172 165 150 c 0
 165 128 147 110 125 110 c 2
 75 110 l 2
 53 110 35 128 35 150 c 0
435 250 m 0
 435 272 453 290 475 290 c 2
 525 290 l 2
 547 290 565 272 565 250 c 0
 565 228 547 210 525 210 c 2
 475 210 l 2
 453 210 435 228 435 250 c 0
35 250 m 0
 35 272 53 290 75 290 c 2
 125 290 l 2
 147 290 165 272 165 250 c 0
 165 228 147 210 125 210 c 2
 75 210 l 2
 53 210 35 228 35 250 c 0
335 350 m 0
 335 372 353 390 375 390 c 2
 525 390 l 2
 547 390 565 372 565 350 c 0
 565 328 547 310 525 310 c 2
 375 310 l 2
 353 310 335 328 335 350 c 0
35 350 m 0
 35 372 53 390 75 390 c 2
 125 390 l 2
 147 390 165 372 165 350 c 0
 165 328 147 310 125 310 c 2
 75 310 l 2
 53 310 35 328 35 350 c 0
435 450 m 0
 435 472 453 490 475 490 c 2
 525 490 l 2
 547 490 565 472 565 450 c 0
 565 428 547 410 525 410 c 2
 475 410 l 2
 453 410 435 428 435 450 c 0
135 450 m 0
 135 472 153 490 175 490 c 2
 325 490 l 2
 347 490 365 472 365 450 c 0
 365 428 347 410 325 410 c 2
 175 410 l 2
 153 410 135 428 135 450 c 0
EndSplineSet
EndChar

StartChar: h
Encoding: 104 104 72
Width: 600
Flags: HMW
AnchorPoint: "marks_below" 300 0 basechar 0
AnchorPoint: "marks_above" 300 800 basechar 0
LayerCount: 2
Fore
SplineSet
435 50 m 0
 435 72 453 90 475 90 c 2
 525 90 l 2
 547 90 565 72 565 50 c 0
 565 28 547 10 525 10 c 2
 475 10 l 2
 453 10 435 28 435 50 c 0
35 50 m 0
 35 72 53 90 75 90 c 2
 125 90 l 2
 147 90 165 72 165 50 c 0
 165 28 147 10 125 10 c 2
 75 10 l 2
 53 10 35 28 35 50 c 0
435 150 m 0
 435 172 453 190 475 190 c 2
 525 190 l 2
 547 190 565 172 565 150 c 0
 565 128 547 110 525 110 c 2
 475 110 l 2
 453 110 435 128 435 150 c 0
35 150 m 0
 35 172 53 190 75 190 c 2
 125 190 l 2
 147 190 165 172 165 150 c 0
 165 128 147 110 125 110 c 2
 75 110 l 2
 53 110 35 128 35 150 c 0
435 250 m 0
 435 272 453 290 475 290 c 2
 525 290 l 2
 547 290 565 272 565 250 c 0
 565 228 547 210 525 210 c 2
 475 210 l 2
 453 210 435 228 435 250 c 0
35 250 m 0
 35 272 53 290 75 290 c 2
 125 290 l 2
 147 290 165 272 165 250 c 0
 165 228 147 210 125 210 c 2
 75 210 l 2
 53 210 35 228 35 250 c 0
435 350 m 0
 435 372 453 390 475 390 c 2
 525 390 l 2
 547 390 565 372 565 350 c 0
 565 328 547 310 525 310 c 2
 475 310 l 2
 453 310 435 328 435 350 c 0
35 350 m 0
 35 372 53 390 75 390 c 2
 225 390 l 2
 247 390 265 372 265 350 c 0
 265 328 247 310 225 310 c 2
 75 310 l 2
 53 310 35 328 35 350 c 0
235 450 m 0
 235 472 253 490 275 490 c 2
 425 490 l 2
 447 490 465 472 465 450 c 0
 465 428 447 410 425 410 c 2
 275 410 l 2
 253 410 235 428 235 450 c 0
35 450 m 0
 35 472 53 490 75 490 c 2
 125 490 l 2
 147 490 165 472 165 450 c 0
 165 428 147 410 125 410 c 2
 75 410 l 2
 53 410 35 428 35 450 c 0
35 550 m 0
 35 572 53 590 75 590 c 2
 125 590 l 2
 147 590 165 572 165 550 c 0
 165 528 147 510 125 510 c 2
 75 510 l 2
 53 510 35 528 35 550 c 0
35 650 m 0
 35 672 53 690 75 690 c 2
 125 690 l 2
 147 690 165 672 165 650 c 0
 165 628 147 610 125 610 c 2
 75 610 l 2
 53 610 35 628 35 650 c 0
EndSplineSet
EndChar

StartChar: k
Encoding: 107 107 75
Width: 600
Flags: HMW
AnchorPoint: "marks_below" 300 0 basechar 0
AnchorPoint: "marks_above" 300 800 basechar 0
LayerCount: 2
Fore
SplineSet
435 50 m 0
 435 72 453 90 475 90 c 2
 525 90 l 2
 547 90 565 72 565 50 c 0
 565 28 547 10 525 10 c 2
 475 10 l 2
 453 10 435 28 435 50 c 0
35 50 m 0
 35 72 53 90 75 90 c 2
 125 90 l 2
 147 90 165 72 165 50 c 0
 165 28 147 10 125 10 c 2
 75 10 l 2
 53 10 35 28 35 50 c 0
335 150 m 0
 335 172 353 190 375 190 c 2
 425 190 l 2
 447 190 465 172 465 150 c 0
 465 128 447 110 425 110 c 2
 375 110 l 2
 353 110 335 128 335 150 c 0
35 150 m 0
 35 172 53 190 75 190 c 2
 125 190 l 2
 147 190 165 172 165 150 c 0
 165 128 147 110 125 110 c 2
 75 110 l 2
 53 110 35 128 35 150 c 0
35 250 m 0
 35 272 53 290 75 290 c 2
 325 290 l 2
 347 290 365 272 365 250 c 0
 365 228 347 210 325 210 c 2
 75 210 l 2
 53 210 35 228 35 250 c 0
335 350 m 0
 335 372 353 390 375 390 c 2
 425 390 l 2
 447 390 465 372 465 350 c 0
 465 328 447 310 425 310 c 2
 375 310 l 2
 353 310 335 328 335 350 c 0
35 350 m 0
 35 372 53 390 75 390 c 2
 125 390 l 2
 147 390 165 372 165 350 c 0
 165 328 147 310 125 310 c 2
 75 310 l 2
 53 310 35 328 35 350 c 0
435 450 m 0
 435 472 453 490 475 490 c 2
 525 490 l 2
 547 490 565 472 565 450 c 0
 565 428 547 410 525 410 c 2
 475 410 l 2
 453 410 435 428 435 450 c 0
35 450 m 0
 35 472 53 490 75 490 c 2
 125 490 l 2
 147 490 165 472 165 450 c 0
 165 428 147 410 125 410 c 2
 75 410 l 2
 53 410 35 428 35 450 c 0
35 550 m 0
 35 572 53 590 75 590 c 2
 125 590 l 2
 147 590 165 572 165 550 c 0
 165 528 147 510 125 510 c 2
 75 510 l 2
 53 510 35 528 35 550 c 0
35 650 m 0
 35 672 53 690 75 690 c 2
 125 690 l 2
 147 690 165 672 165 650 c 0
 165 628 147 610 125 610 c 2
 75 610 l 2
 53 610 35 628 35 650 c 0
EndSplineSet
EndChar

StartChar: l
Encoding: 108 108 76
Width: 400
Flags: HMW
AnchorPoint: "marks_aboveright" 350 500 basechar 0
AnchorPoint: "marks_below" 200 0 basechar 0
AnchorPoint: "ogonek" 200 0 basechar 0
AnchorPoint: "marks_above" 200 800 basechar 0
LayerCount: 2
Fore
SplineSet
35 50 m 0
 35 72 53 90 75 90 c 2
 325 90 l 2
 347 90 365 72 365 50 c 0
 365 28 347 10 325 10 c 2
 75 10 l 2
 53 10 35 28 35 50 c 0
135 150 m 0
 135 172 153 190 175 190 c 2
 225 190 l 2
 247 190 265 172 265 150 c 0
 265 128 247 110 225 110 c 2
 175 110 l 2
 153 110 135 128 135 150 c 0
135 250 m 0
 135 272 153 290 175 290 c 2
 225 290 l 2
 247 290 265 272 265 250 c 0
 265 228 247 210 225 210 c 2
 175 210 l 2
 153 210 135 228 135 250 c 0
135 350 m 0
 135 372 153 390 175 390 c 2
 225 390 l 2
 247 390 265 372 265 350 c 0
 265 328 247 310 225 310 c 2
 175 310 l 2
 153 310 135 328 135 350 c 0
135 450 m 0
 135 472 153 490 175 490 c 2
 225 490 l 2
 247 490 265 472 265 450 c 0
 265 428 247 410 225 410 c 2
 175 410 l 2
 153 410 135 428 135 450 c 0
135 550 m 0
 135 572 153 590 175 590 c 2
 225 590 l 2
 247 590 265 572 265 550 c 0
 265 528 247 510 225 510 c 2
 175 510 l 2
 153 510 135 528 135 550 c 0
35 650 m 0
 35 672 53 690 75 690 c 2
 225 690 l 2
 247 690 265 672 265 650 c 0
 265 628 247 610 225 610 c 2
 75 610 l 2
 53 610 35 628 35 650 c 0
EndSplineSet
EndChar

StartChar: m
Encoding: 109 109 77
Width: 600
Flags: HMW
AnchorPoint: "marks_below" 300 0 basechar 0
AnchorPoint: "marks_above" 300 600 basechar 0
LayerCount: 2
Fore
SplineSet
435 50 m 0
 435 72 453 90 475 90 c 2
 525 90 l 2
 547 90 565 72 565 50 c 0
 565 28 547 10 525 10 c 2
 475 10 l 2
 453 10 435 28 435 50 c 0
35 50 m 0
 35 72 53 90 75 90 c 2
 125 90 l 2
 147 90 165 72 165 50 c 0
 165 28 147 10 125 10 c 2
 75 10 l 2
 53 10 35 28 35 50 c 0
435 150 m 0
 435 172 453 190 475 190 c 2
 525 190 l 2
 547 190 565 172 565 150 c 0
 565 128 547 110 525 110 c 2
 475 110 l 2
 453 110 435 128 435 150 c 0
235 150 m 0
 235 172 253 190 275 190 c 2
 325 190 l 2
 347 190 365 172 365 150 c 0
 365 128 347 110 325 110 c 2
 275 110 l 2
 253 110 235 128 235 150 c 0
35 150 m 0
 35 172 53 190 75 190 c 2
 125 190 l 2
 147 190 165 172 165 150 c 0
 165 128 147 110 125 110 c 2
 75 110 l 2
 53 110 35 128 35 150 c 0
435 250 m 0
 435 272 453 290 475 290 c 2
 525 290 l 2
 547 290 565 272 565 250 c 0
 565 228 547 210 525 210 c 2
 475 210 l 2
 453 210 435 228 435 250 c 0
235 250 m 0
 235 272 253 290 275 290 c 2
 325 290 l 2
 347 290 365 272 365 250 c 0
 365 228 347 210 325 210 c 2
 275 210 l 2
 253 210 235 228 235 250 c 0
35 250 m 0
 35 272 53 290 75 290 c 2
 125 290 l 2
 147 290 165 272 165 250 c 0
 165 228 147 210 125 210 c 2
 75 210 l 2
 53 210 35 228 35 250 c 0
435 350 m 0
 435 372 453 390 475 390 c 2
 525 390 l 2
 547 390 565 372 565 350 c 0
 565 328 547 310 525 310 c 2
 475 310 l 2
 453 310 435 328 435 350 c 0
235 350 m 0
 235 372 253 390 275 390 c 2
 325 390 l 2
 347 390 365 372 365 350 c 0
 365 328 347 310 325 310 c 2
 275 310 l 2
 253 310 235 328 235 350 c 0
35 350 m 0
 35 372 53 390 75 390 c 2
 125 390 l 2
 147 390 165 372 165 350 c 0
 165 328 147 310 125 310 c 2
 75 310 l 2
 53 310 35 328 35 350 c 0
335 450 m 0
 335 472 353 490 375 490 c 2
 425 490 l 2
 447 490 465 472 465 450 c 0
 465 428 447 410 425 410 c 2
 375 410 l 2
 353 410 335 428 335 450 c 0
35 450 m 0
 35 472 53 490 75 490 c 2
 225 490 l 2
 247 490 265 472 265 450 c 0
 265 428 247 410 225 410 c 2
 75 410 l 2
 53 410 35 428 35 450 c 0
EndSplineSet
EndChar

StartChar: n
Encoding: 110 110 78
Width: 600
Flags: HMW
AnchorPoint: "marks_below" 300 0 basechar 0
AnchorPoint: "marks_above" 300 600 basechar 0
LayerCount: 2
Fore
SplineSet
435 50 m 0
 435 72 453 90 475 90 c 2
 525 90 l 2
 547 90 565 72 565 50 c 0
 565 28 547 10 525 10 c 2
 475 10 l 2
 453 10 435 28 435 50 c 0
35 50 m 0
 35 72 53 90 75 90 c 2
 125 90 l 2
 147 90 165 72 165 50 c 0
 165 28 147 10 125 10 c 2
 75 10 l 2
 53 10 35 28 35 50 c 0
435 150 m 0
 435 172 453 190 475 190 c 2
 525 190 l 2
 547 190 565 172 565 150 c 0
 565 128 547 110 525 110 c 2
 475 110 l 2
 453 110 435 128 435 150 c 0
35 150 m 0
 35 172 53 190 75 190 c 2
 125 190 l 2
 147 190 165 172 165 150 c 0
 165 128 147 110 125 110 c 2
 75 110 l 2
 53 110 35 128 35 150 c 0
435 250 m 0
 435 272 453 290 475 290 c 2
 525 290 l 2
 547 290 565 272 565 250 c 0
 565 228 547 210 525 210 c 2
 475 210 l 2
 453 210 435 228 435 250 c 0
35 250 m 0
 35 272 53 290 75 290 c 2
 125 290 l 2
 147 290 165 272 165 250 c 0
 165 228 147 210 125 210 c 2
 75 210 l 2
 53 210 35 228 35 250 c 0
435 350 m 0
 435 372 453 390 475 390 c 2
 525 390 l 2
 547 390 565 372 565 350 c 0
 565 328 547 310 525 310 c 2
 475 310 l 2
 453 310 435 328 435 350 c 0
35 350 m 0
 35 372 53 390 75 390 c 2
 225 390 l 2
 247 390 265 372 265 350 c 0
 265 328 247 310 225 310 c 2
 75 310 l 2
 53 310 35 328 35 350 c 0
235 450 m 0
 235 472 253 490 275 490 c 2
 425 490 l 2
 447 490 465 472 465 450 c 0
 465 428 447 410 425 410 c 2
 275 410 l 2
 253 410 235 428 235 450 c 0
35 450 m 0
 35 472 53 490 75 490 c 2
 125 490 l 2
 147 490 165 472 165 450 c 0
 165 428 147 410 125 410 c 2
 75 410 l 2
 53 410 35 428 35 450 c 0
EndSplineSet
EndChar

StartChar: o
Encoding: 111 111 79
Width: 600
Flags: HMW
AnchorPoint: "marks_below" 300 0 basechar 0
AnchorPoint: "marks_above" 300 600 basechar 0
LayerCount: 2
Fore
SplineSet
135 50 m 0
 135 72 153 90 175 90 c 2
 425 90 l 2
 447 90 465 72 465 50 c 0
 465 28 447 10 425 10 c 2
 175 10 l 2
 153 10 135 28 135 50 c 0
435 150 m 0
 435 172 453 190 475 190 c 2
 525 190 l 2
 547 190 565 172 565 150 c 0
 565 128 547 110 525 110 c 2
 475 110 l 2
 453 110 435 128 435 150 c 0
35 150 m 0
 35 172 53 190 75 190 c 2
 125 190 l 2
 147 190 165 172 165 150 c 0
 165 128 147 110 125 110 c 2
 75 110 l 2
 53 110 35 128 35 150 c 0
435 250 m 0
 435 272 453 290 475 290 c 2
 525 290 l 2
 547 290 565 272 565 250 c 0
 565 228 547 210 525 210 c 2
 475 210 l 2
 453 210 435 228 435 250 c 0
35 250 m 0
 35 272 53 290 75 290 c 2
 125 290 l 2
 147 290 165 272 165 250 c 0
 165 228 147 210 125 210 c 2
 75 210 l 2
 53 210 35 228 35 250 c 0
435 350 m 0
 435 372 453 390 475 390 c 2
 525 390 l 2
 547 390 565 372 565 350 c 0
 565 328 547 310 525 310 c 2
 475 310 l 2
 453 310 435 328 435 350 c 0
35 350 m 0
 35 372 53 390 75 390 c 2
 125 390 l 2
 147 390 165 372 165 350 c 0
 165 328 147 310 125 310 c 2
 75 310 l 2
 53 310 35 328 35 350 c 0
135 450 m 0
 135 472 153 490 175 490 c 2
 425 490 l 2
 447 490 465 472 465 450 c 0
 465 428 447 410 425 410 c 2
 175 410 l 2
 153 410 135 428 135 450 c 0
EndSplineSet
EndChar

StartChar: p
Encoding: 112 112 80
Width: 600
Flags: HMW
AnchorPoint: "marks_above" 300 600 basechar 0
LayerCount: 2
Fore
SplineSet
35 -150 m 0
 35 -128 53 -110 75 -110 c 2
 125 -110 l 2
 147 -110 165 -128 165 -150 c 0
 165 -172 147 -190 125 -190 c 2
 75 -190 l 2
 53 -190 35 -172 35 -150 c 0
35 -50 m 0
 35 -28 53 -10 75 -10 c 2
 125 -10 l 2
 147 -10 165 -28 165 -50 c 0
 165 -72 147 -90 125 -90 c 2
 75 -90 l 2
 53 -90 35 -72 35 -50 c 0
235 50 m 0
 235 72 253 90 275 90 c 2
 425 90 l 2
 447 90 465 72 465 50 c 0
 465 28 447 10 425 10 c 2
 275 10 l 2
 253 10 235 28 235 50 c 0
35 50 m 0
 35 72 53 90 75 90 c 2
 125 90 l 2
 147 90 165 72 165 50 c 0
 165 28 147 10 125 10 c 2
 75 10 l 2
 53 10 35 28 35 50 c 0
435 150 m 0
 435 172 453 190 475 190 c 2
 525 190 l 2
 547 190 565 172 565 150 c 0
 565 128 547 110 525 110 c 2
 475 110 l 2
 453 110 435 128 435 150 c 0
35 150 m 0
 35 172 53 190 75 190 c 2
 225 190 l 2
 247 190 265 172 265 150 c 0
 265 128 247 110 225 110 c 2
 75 110 l 2
 53 110 35 128 35 150 c 0
435 250 m 0
 435 272 453 290 475 290 c 2
 525 290 l 2
 547 290 565 272 565 250 c 0
 565 228 547 210 525 210 c 2
 475 210 l 2
 453 210 435 228 435 250 c 0
35 250 m 0
 35 272 53 290 75 290 c 2
 125 290 l 2
 147 290 165 272 165 250 c 0
 165 228 147 210 125 210 c 2
 75 210 l 2
 53 210 35 228 35 250 c 0
435 350 m 0
 435 372 453 390 475 390 c 2
 525 390 l 2
 547 390 565 372 565 350 c 0
 565 328 547 310 525 310 c 2
 475 310 l 2
 453 310 435 328 435 350 c 0
35 350 m 0
 35 372 53 390 75 390 c 2
 225 390 l 2
 247 390 265 372 265 350 c 0
 265 328 247 310 225 310 c 2
 75 310 l 2
 53 310 35 328 35 350 c 0
235 450 m 0
 235 472 253 490 275 490 c 2
 425 490 l 2
 447 490 465 472 465 450 c 0
 465 428 447 410 425 410 c 2
 275 410 l 2
 253 410 235 428 235 450 c 0
35 450 m 0
 35 472 53 490 75 490 c 2
 125 490 l 2
 147 490 165 472 165 450 c 0
 165 428 147 410 125 410 c 2
 75 410 l 2
 53 410 35 428 35 450 c 0
EndSplineSet
EndChar

StartChar: q
Encoding: 113 113 81
Width: 600
Flags: HMW
AnchorPoint: "marks_above" 300 600 basechar 0
LayerCount: 2
Fore
SplineSet
435 -150 m 0
 435 -128 453 -110 475 -110 c 2
 525 -110 l 2
 547 -110 565 -128 565 -150 c 0
 565 -172 547 -190 525 -190 c 2
 475 -190 l 2
 453 -190 435 -172 435 -150 c 0
435 -50 m 0
 435 -28 453 -10 475 -10 c 2
 525 -10 l 2
 547 -10 565 -28 565 -50 c 0
 565 -72 547 -90 525 -90 c 2
 475 -90 l 2
 453 -90 435 -72 435 -50 c 0
435 50 m 0
 435 72 453 90 475 90 c 2
 525 90 l 2
 547 90 565 72 565 50 c 0
 565 28 547 10 525 10 c 2
 475 10 l 2
 453 10 435 28 435 50 c 0
135 50 m 0
 135 72 153 90 175 90 c 2
 325 90 l 2
 347 90 365 72 365 50 c 0
 365 28 347 10 325 10 c 2
 175 10 l 2
 153 10 135 28 135 50 c 0
335 150 m 0
 335 172 353 190 375 190 c 2
 525 190 l 2
 547 190 565 172 565 150 c 0
 565 128 547 110 525 110 c 2
 375 110 l 2
 353 110 335 128 335 150 c 0
35 150 m 0
 35 172 53 190 75 190 c 2
 125 190 l 2
 147 190 165 172 165 150 c 0
 165 128 147 110 125 110 c 2
 75 110 l 2
 53 110 35 128 35 150 c 0
435 250 m 0
 435 272 453 290 475 290 c 2
 525 290 l 2
 547 290 565 272 565 250 c 0
 565 228 547 210 525 210 c 2
 475 210 l 2
 453 210 435 228 435 250 c 0
35 250 m 0
 35 272 53 290 75 290 c 2
 125 290 l 2
 147 290 165 272 165 250 c 0
 165 228 147 210 125 210 c 2
 75 210 l 2
 53 210 35 228 35 250 c 0
335 350 m 0
 335 372 353 390 375 390 c 2
 525 390 l 2
 547 390 565 372 565 350 c 0
 565 328 547 310 525 310 c 2
 375 310 l 2
 353 310 335 328 335 350 c 0
35 350 m 0
 35 372 53 390 75 390 c 2
 125 390 l 2
 147 390 165 372 165 350 c 0
 165 328 147 310 125 310 c 2
 75 310 l 2
 53 310 35 328 35 350 c 0
435 450 m 0
 435 472 453 490 475 490 c 2
 525 490 l 2
 547 490 565 472 565 450 c 0
 565 428 547 410 525 410 c 2
 475 410 l 2
 453 410 435 428 435 450 c 0
135 450 m 0
 135 472 153 490 175 490 c 2
 325 490 l 2
 347 490 365 472 365 450 c 0
 365 428 347 410 325 410 c 2
 175 410 l 2
 153 410 135 428 135 450 c 0
EndSplineSet
EndChar

StartChar: r
Encoding: 114 114 82
Width: 600
Flags: HMW
AnchorPoint: "marks_below" 300 0 basechar 0
AnchorPoint: "marks_above" 300 600 basechar 0
LayerCount: 2
Fore
SplineSet
35 50 m 0
 35 72 53 90 75 90 c 2
 125 90 l 2
 147 90 165 72 165 50 c 0
 165 28 147 10 125 10 c 2
 75 10 l 2
 53 10 35 28 35 50 c 0
35 150 m 0
 35 172 53 190 75 190 c 2
 125 190 l 2
 147 190 165 172 165 150 c 0
 165 128 147 110 125 110 c 2
 75 110 l 2
 53 110 35 128 35 150 c 0
35 250 m 0
 35 272 53 290 75 290 c 2
 125 290 l 2
 147 290 165 272 165 250 c 0
 165 228 147 210 125 210 c 2
 75 210 l 2
 53 210 35 228 35 250 c 0
435 350 m 0
 435 372 453 390 475 390 c 2
 525 390 l 2
 547 390 565 372 565 350 c 0
 565 328 547 310 525 310 c 2
 475 310 l 2
 453 310 435 328 435 350 c 0
35 350 m 0
 35 372 53 390 75 390 c 2
 225 390 l 2
 247 390 265 372 265 350 c 0
 265 328 247 310 225 310 c 2
 75 310 l 2
 53 310 35 328 35 350 c 0
235 450 m 0
 235 472 253 490 275 490 c 2
 425 490 l 2
 447 490 465 472 465 450 c 0
 465 428 447 410 425 410 c 2
 275 410 l 2
 253 410 235 428 235 450 c 0
35 450 m 0
 35 472 53 490 75 490 c 2
 125 490 l 2
 147 490 165 472 165 450 c 0
 165 428 147 410 125 410 c 2
 75 410 l 2
 53 410 35 428 35 450 c 0
EndSplineSet
EndChar

StartChar: s
Encoding: 115 115 83
Width: 600
Flags: HMW
AnchorPoint: "marks_below" 300 0 basechar 0
AnchorPoint: "marks_above" 300 600 basechar 0
LayerCount: 2
Fore
SplineSet
35 50 m 0
 35 72 53 90 75 90 c 2
 425 90 l 2
 447 90 465 72 465 50 c 0
 465 28 447 10 425 10 c 2
 75 10 l 2
 53 10 35 28 35 50 c 0
435 150 m 0
 435 172 453 190 475 190 c 2
 525 190 l 2
 547 190 565 172 565 150 c 0
 565 128 547 110 525 110 c 2
 475 110 l 2
 453 110 435 128 435 150 c 0
135 250 m 0
 135 272 153 290 175 290 c 2
 425 290 l 2
 447 290 465 272 465 250 c 0
 465 228 447 210 425 210 c 2
 175 210 l 2
 153 210 135 228 135 250 c 0
35 350 m 0
 35 372 53 390 75 390 c 2
 125 390 l 2
 147 390 165 372 165 350 c 0
 165 328 147 310 125 310 c 2
 75 310 l 2
 53 310 35 328 35 350 c 0
135 450 m 0
 135 472 153 490 175 490 c 2
 525 490 l 2
 547 490 565 472 565 450 c 0
 565 428 547 410 525 410 c 2
 175 410 l 2
 153 410 135 428 135 450 c 0
EndSplineSet
EndChar

StartChar: t
Encoding: 116 116 84
Width: 600
Flags: HMW
AnchorPoint: "marks_aboveright" 350 600 basechar 0
AnchorPoint: "marks_below" 300 0 basechar 0
AnchorPoint: "marks_above" 300 800 basechar 0
LayerCount: 2
Fore
SplineSet
235 50 m 0
 235 72 253 90 275 90 c 2
 425 90 l 2
 447 90 465 72 465 50 c 0
 465 28 447 10 425 10 c 2
 275 10 l 2
 253 10 235 28 235 50 c 0
435 150 m 0
 435 172 453 190 475 190 c 2
 525 190 l 2
 547 190 565 172 565 150 c 0
 565 128 547 110 525 110 c 2
 475 110 l 2
 453 110 435 128 435 150 c 0
135 150 m 0
 135 172 153 190 175 190 c 2
 225 190 l 2
 247 190 265 172 265 150 c 0
 265 128 247 110 225 110 c 2
 175 110 l 2
 153 110 135 128 135 150 c 0
135 250 m 0
 135 272 153 290 175 290 c 2
 225 290 l 2
 247 290 265 272 265 250 c 0
 265 228 247 210 225 210 c 2
 175 210 l 2
 153 210 135 228 135 250 c 0
135 350 m 0
 135 372 153 390 175 390 c 2
 225 390 l 2
 247 390 265 372 265 350 c 0
 265 328 247 310 225 310 c 2
 175 310 l 2
 153 310 135 328 135 350 c 0
35 450 m 0
 35 472 53 490 75 490 c 2
 425 490 l 2
 447 490 465 472 465 450 c 0
 465 428 447 410 425 410 c 2
 75 410 l 2
 53 410 35 428 35 450 c 0
135 550 m 0
 135 572 153 590 175 590 c 2
 225 590 l 2
 247 590 265 572 265 550 c 0
 265 528 247 510 225 510 c 2
 175 510 l 2
 153 510 135 528 135 550 c 0
135 650 m 0
 135 672 153 690 175 690 c 2
 225 690 l 2
 247 690 265 672 265 650 c 0
 265 628 247 610 225 610 c 2
 175 610 l 2
 153 610 135 628 135 650 c 0
EndSplineSet
EndChar

StartChar: u
Encoding: 117 117 85
Width: 600
Flags: HMW
AnchorPoint: "ogonek" 400 0 basechar 0
AnchorPoint: "marks_below" 300 0 basechar 0
AnchorPoint: "marks_above" 300 600 basechar 0
LayerCount: 2
Fore
SplineSet
435 50 m 0
 435 72 453 90 475 90 c 2
 525 90 l 2
 547 90 565 72 565 50 c 0
 565 28 547 10 525 10 c 2
 475 10 l 2
 453 10 435 28 435 50 c 0
135 50 m 0
 135 72 153 90 175 90 c 2
 325 90 l 2
 347 90 365 72 365 50 c 0
 365 28 347 10 325 10 c 2
 175 10 l 2
 153 10 135 28 135 50 c 0
335 150 m 0
 335 172 353 190 375 190 c 2
 525 190 l 2
 547 190 565 172 565 150 c 0
 565 128 547 110 525 110 c 2
 375 110 l 2
 353 110 335 128 335 150 c 0
35 150 m 0
 35 172 53 190 75 190 c 2
 125 190 l 2
 147 190 165 172 165 150 c 0
 165 128 147 110 125 110 c 2
 75 110 l 2
 53 110 35 128 35 150 c 0
435 250 m 0
 435 272 453 290 475 290 c 2
 525 290 l 2
 547 290 565 272 565 250 c 0
 565 228 547 210 525 210 c 2
 475 210 l 2
 453 210 435 228 435 250 c 0
35 250 m 0
 35 272 53 290 75 290 c 2
 125 290 l 2
 147 290 165 272 165 250 c 0
 165 228 147 210 125 210 c 2
 75 210 l 2
 53 210 35 228 35 250 c 0
435 350 m 0
 435 372 453 390 475 390 c 2
 525 390 l 2
 547 390 565 372 565 350 c 0
 565 328 547 310 525 310 c 2
 475 310 l 2
 453 310 435 328 435 350 c 0
35 350 m 0
 35 372 53 390 75 390 c 2
 125 390 l 2
 147 390 165 372 165 350 c 0
 165 328 147 310 125 310 c 2
 75 310 l 2
 53 310 35 328 35 350 c 0
435 450 m 0
 435 472 453 490 475 490 c 2
 525 490 l 2
 547 490 565 472 565 450 c 0
 565 428 547 410 525 410 c 2
 475 410 l 2
 453 410 435 428 435 450 c 0
35 450 m 0
 35 472 53 490 75 490 c 2
 125 490 l 2
 147 490 165 472 165 450 c 0
 165 428 147 410 125 410 c 2
 75 410 l 2
 53 410 35 428 35 450 c 0
EndSplineSet
EndChar

StartChar: v
Encoding: 118 118 86
Width: 600
Flags: HMW
AnchorPoint: "marks_below" 300 0 basechar 0
AnchorPoint: "marks_above" 300 600 basechar 0
LayerCount: 2
Fore
SplineSet
235 50 m 0
 235 72 253 90 275 90 c 2
 325 90 l 2
 347 90 365 72 365 50 c 0
 365 28 347 10 325 10 c 2
 275 10 l 2
 253 10 235 28 235 50 c 0
335 150 m 0
 335 172 353 190 375 190 c 2
 425 190 l 2
 447 190 465 172 465 150 c 0
 465 128 447 110 425 110 c 2
 375 110 l 2
 353 110 335 128 335 150 c 0
135 150 m 0
 135 172 153 190 175 190 c 2
 225 190 l 2
 247 190 265 172 265 150 c 0
 265 128 247 110 225 110 c 2
 175 110 l 2
 153 110 135 128 135 150 c 0
435 250 m 0
 435 272 453 290 475 290 c 2
 525 290 l 2
 547 290 565 272 565 250 c 0
 565 228 547 210 525 210 c 2
 475 210 l 2
 453 210 435 228 435 250 c 0
35 250 m 0
 35 272 53 290 75 290 c 2
 125 290 l 2
 147 290 165 272 165 250 c 0
 165 228 147 210 125 210 c 2
 75 210 l 2
 53 210 35 228 35 250 c 0
435 350 m 0
 435 372 453 390 475 390 c 2
 525 390 l 2
 547 390 565 372 565 350 c 0
 565 328 547 310 525 310 c 2
 475 310 l 2
 453 310 435 328 435 350 c 0
35 350 m 0
 35 372 53 390 75 390 c 2
 125 390 l 2
 147 390 165 372 165 350 c 0
 165 328 147 310 125 310 c 2
 75 310 l 2
 53 310 35 328 35 350 c 0
435 450 m 0
 435 472 453 490 475 490 c 2
 525 490 l 2
 547 490 565 472 565 450 c 0
 565 428 547 410 525 410 c 2
 475 410 l 2
 453 410 435 428 435 450 c 0
35 450 m 0
 35 472 53 490 75 490 c 2
 125 490 l 2
 147 490 165 472 165 450 c 0
 165 428 147 410 125 410 c 2
 75 410 l 2
 53 410 35 428 35 450 c 0
EndSplineSet
EndChar

StartChar: w
Encoding: 119 119 87
Width: 600
Flags: HMW
AnchorPoint: "marks_below" 300 0 basechar 0
AnchorPoint: "marks_above" 300 600 basechar 0
LayerCount: 2
Fore
SplineSet
335 50 m 0
 335 72 353 90 375 90 c 2
 425 90 l 2
 447 90 465 72 465 50 c 0
 465 28 447 10 425 10 c 2
 375 10 l 2
 353 10 335 28 335 50 c 0
135 50 m 0
 135 72 153 90 175 90 c 2
 225 90 l 2
 247 90 265 72 265 50 c 0
 265 28 247 10 225 10 c 2
 175 10 l 2
 153 10 135 28 135 50 c 0
435 150 m 0
 435 172 453 190 475 190 c 2
 525 190 l 2
 547 190 565 172 565 150 c 0
 565 128 547 110 525 110 c 2
 475 110 l 2
 453 110 435 128 435 150 c 0
235 150 m 0
 235 172 253 190 275 190 c 2
 325 190 l 2
 347 190 365 172 365 150 c 0
 365 128 347 110 325 110 c 2
 275 110 l 2
 253 110 235 128 235 150 c 0
35 150 m 0
 35 172 53 190 75 190 c 2
 125 190 l 2
 147 190 165 172 165 150 c 0
 165 128 147 110 125 110 c 2
 75 110 l 2
 53 110 35 128 35 150 c 0
435 250 m 0
 435 272 453 290 475 290 c 2
 525 290 l 2
 547 290 565 272 565 250 c 0
 565 228 547 210 525 210 c 2
 475 210 l 2
 453 210 435 228 435 250 c 0
235 250 m 0
 235 272 253 290 275 290 c 2
 325 290 l 2
 347 290 365 272 365 250 c 0
 365 228 347 210 325 210 c 2
 275 210 l 2
 253 210 235 228 235 250 c 0
35 250 m 0
 35 272 53 290 75 290 c 2
 125 290 l 2
 147 290 165 272 165 250 c 0
 165 228 147 210 125 210 c 2
 75 210 l 2
 53 210 35 228 35 250 c 0
435 350 m 0
 435 372 453 390 475 390 c 2
 525 390 l 2
 547 390 565 372 565 350 c 0
 565 328 547 310 525 310 c 2
 475 310 l 2
 453 310 435 328 435 350 c 0
235 350 m 0
 235 372 253 390 275 390 c 2
 325 390 l 2
 347 390 365 372 365 350 c 0
 365 328 347 310 325 310 c 2
 275 310 l 2
 253 310 235 328 235 350 c 0
35 350 m 0
 35 372 53 390 75 390 c 2
 125 390 l 2
 147 390 165 372 165 350 c 0
 165 328 147 310 125 310 c 2
 75 310 l 2
 53 310 35 328 35 350 c 0
435 450 m 0
 435 472 453 490 475 490 c 2
 525 490 l 2
 547 490 565 472 565 450 c 0
 565 428 547 410 525 410 c 2
 475 410 l 2
 453 410 435 428 435 450 c 0
35 450 m 0
 35 472 53 490 75 490 c 2
 125 490 l 2
 147 490 165 472 165 450 c 0
 165 428 147 410 125 410 c 2
 75 410 l 2
 53 410 35 428 35 450 c 0
EndSplineSet
EndChar

StartChar: x
Encoding: 120 120 88
Width: 600
Flags: HMW
AnchorPoint: "marks_below" 300 0 basechar 0
AnchorPoint: "marks_above" 300 600 basechar 0
LayerCount: 2
Fore
SplineSet
435 50 m 0
 435 72 453 90 475 90 c 2
 525 90 l 2
 547 90 565 72 565 50 c 0
 565 28 547 10 525 10 c 2
 475 10 l 2
 453 10 435 28 435 50 c 0
35 50 m 0
 35 72 53 90 75 90 c 2
 125 90 l 2
 147 90 165 72 165 50 c 0
 165 28 147 10 125 10 c 2
 75 10 l 2
 53 10 35 28 35 50 c 0
335 150 m 0
 335 172 353 190 375 190 c 2
 425 190 l 2
 447 190 465 172 465 150 c 0
 465 128 447 110 425 110 c 2
 375 110 l 2
 353 110 335 128 335 150 c 0
135 150 m 0
 135 172 153 190 175 190 c 2
 225 190 l 2
 247 190 265 172 265 150 c 0
 265 128 247 110 225 110 c 2
 175 110 l 2
 153 110 135 128 135 150 c 0
235 250 m 0
 235 272 253 290 275 290 c 2
 325 290 l 2
 347 290 365 272 365 250 c 0
 365 228 347 210 325 210 c 2
 275 210 l 2
 253 210 235 228 235 250 c 0
335 350 m 0
 335 372 353 390 375 390 c 2
 425 390 l 2
 447 390 465 372 465 350 c 0
 465 328 447 310 425 310 c 2
 375 310 l 2
 353 310 335 328 335 350 c 0
135 350 m 0
 135 372 153 390 175 390 c 2
 225 390 l 2
 247 390 265 372 265 350 c 0
 265 328 247 310 225 310 c 2
 175 310 l 2
 153 310 135 328 135 350 c 0
435 450 m 0
 435 472 453 490 475 490 c 2
 525 490 l 2
 547 490 565 472 565 450 c 0
 565 428 547 410 525 410 c 2
 475 410 l 2
 453 410 435 428 435 450 c 0
35 450 m 0
 35 472 53 490 75 490 c 2
 125 490 l 2
 147 490 165 472 165 450 c 0
 165 428 147 410 125 410 c 2
 75 410 l 2
 53 410 35 428 35 450 c 0
EndSplineSet
EndChar

StartChar: y
Encoding: 121 121 89
Width: 600
Flags: HMW
AnchorPoint: "marks_above" 300 600 basechar 0
LayerCount: 2
Fore
SplineSet
135 -150 m 0
 135 -128 153 -110 175 -110 c 2
 425 -110 l 2
 447 -110 465 -128 465 -150 c 0
 465 -172 447 -190 425 -190 c 2
 175 -190 l 2
 153 -190 135 -172 135 -150 c 0
435 -50 m 0
 435 -28 453 -10 475 -10 c 2
 525 -10 l 2
 547 -10 565 -28 565 -50 c 0
 565 -72 547 -90 525 -90 c 2
 475 -90 l 2
 453 -90 435 -72 435 -50 c 0
435 50 m 0
 435 72 453 90 475 90 c 2
 525 90 l 2
 547 90 565 72 565 50 c 0
 565 28 547 10 525 10 c 2
 475 10 l 2
 453 10 435 28 435 50 c 0
135 50 m 0
 135 72 153 90 175 90 c 2
 325 90 l 2
 347 90 365 72 365 50 c 0
 365 28 347 10 325 10 c 2
 175 10 l 2
 153 10 135 28 135 50 c 0
335 150 m 0
 335 172 353 190 375 190 c 2
 525 190 l 2
 547 190 565 172 565 150 c 0
 565 128 547 110 525 110 c 2
 375 110 l 2
 353 110 335 128 335 150 c 0
35 150 m 0
 35 172 53 190 75 190 c 2
 125 190 l 2
 147 190 165 172 165 150 c 0
 165 128 147 110 125 110 c 2
 75 110 l 2
 53 110 35 128 35 150 c 0
435 250 m 0
 435 272 453 290 475 290 c 2
 525 290 l 2
 547 290 565 272 565 250 c 0
 565 228 547 210 525 210 c 2
 475 210 l 2
 453 210 435 228 435 250 c 0
35 250 m 0
 35 272 53 290 75 290 c 2
 125 290 l 2
 147 290 165 272 165 250 c 0
 165 228 147 210 125 210 c 2
 75 210 l 2
 53 210 35 228 35 250 c 0
435 350 m 0
 435 372 453 390 475 390 c 2
 525 390 l 2
 547 390 565 372 565 350 c 0
 565 328 547 310 525 310 c 2
 475 310 l 2
 453 310 435 328 435 350 c 0
35 350 m 0
 35 372 53 390 75 390 c 2
 125 390 l 2
 147 390 165 372 165 350 c 0
 165 328 147 310 125 310 c 2
 75 310 l 2
 53 310 35 328 35 350 c 0
435 450 m 0
 435 472 453 490 475 490 c 2
 525 490 l 2
 547 490 565 472 565 450 c 0
 565 428 547 410 525 410 c 2
 475 410 l 2
 453 410 435 428 435 450 c 0
35 450 m 0
 35 472 53 490 75 490 c 2
 125 490 l 2
 147 490 165 472 165 450 c 0
 165 428 147 410 125 410 c 2
 75 410 l 2
 53 410 35 428 35 450 c 0
EndSplineSet
EndChar

StartChar: z
Encoding: 122 122 90
Width: 600
Flags: HMW
AnchorPoint: "marks_below" 300 0 basechar 0
AnchorPoint: "marks_above" 300 600 basechar 0
LayerCount: 2
Fore
SplineSet
35 50 m 0
 35 72 53 90 75 90 c 2
 525 90 l 2
 547 90 565 72 565 50 c 0
 565 28 547 10 525 10 c 2
 75 10 l 2
 53 10 35 28 35 50 c 0
135 150 m 0
 135 172 153 190 175 190 c 2
 225 190 l 2
 247 190 265 172 265 150 c 0
 265 128 247 110 225 110 c 2
 175 110 l 2
 153 110 135 128 135 150 c 0
235 250 m 0
 235 272 253 290 275 290 c 2
 325 290 l 2
 347 290 365 272 365 250 c 0
 365 228 347 210 325 210 c 2
 275 210 l 2
 253 210 235 228 235 250 c 0
335 350 m 0
 335 372 353 390 375 390 c 2
 425 390 l 2
 447 390 465 372 465 350 c 0
 465 328 447 310 425 310 c 2
 375 310 l 2
 353 310 335 328 335 350 c 0
35 450 m 0
 35 472 53 490 75 490 c 2
 525 490 l 2
 547 490 565 472 565 450 c 0
 565 428 547 410 525 410 c 2
 75 410 l 2
 53 410 35 428 35 450 c 0
EndSplineSet
EndChar

StartChar: braceleft
Encoding: 123 123 91
Width: 500
Flags: HMW
LayerCount: 2
Fore
SplineSet
235 50 m 0
 235 72 253 90 275 90 c 2
 425 90 l 2
 447 90 465 72 465 50 c 0
 465 28 447 10 425 10 c 2
 275 10 l 2
 253 10 235 28 235 50 c 0
135 150 m 0
 135 172 153 190 175 190 c 2
 225 190 l 2
 247 190 265 172 265 150 c 0
 265 128 247 110 225 110 c 2
 175 110 l 2
 153 110 135 128 135 150 c 0
235 250 m 0
 235 272 253 290 275 290 c 2
 325 290 l 2
 347 290 365 272 365 250 c 0
 365 228 347 210 325 210 c 2
 275 210 l 2
 253 210 235 228 235 250 c 0
35 350 m 0
 35 372 53 390 75 390 c 2
 225 390 l 2
 247 390 265 372 265 350 c 0
 265 328 247 310 225 310 c 2
 75 310 l 2
 53 310 35 328 35 350 c 0
235 450 m 0
 235 472 253 490 275 490 c 2
 325 490 l 2
 347 490 365 472 365 450 c 0
 365 428 347 410 325 410 c 2
 275 410 l 2
 253 410 235 428 235 450 c 0
135 550 m 0
 135 572 153 590 175 590 c 2
 225 590 l 2
 247 590 265 572 265 550 c 0
 265 528 247 510 225 510 c 2
 175 510 l 2
 153 510 135 528 135 550 c 0
235 650 m 0
 235 672 253 690 275 690 c 2
 425 690 l 2
 447 690 465 672 465 650 c 0
 465 628 447 610 425 610 c 2
 275 610 l 2
 253 610 235 628 235 650 c 0
EndSplineSet
EndChar

StartChar: bar
Encoding: 124 124 92
Width: 200
Flags: HMW
LayerCount: 2
Fore
SplineSet
35 50 m 0
 35 72 53 90 75 90 c 2
 125 90 l 2
 147 90 165 72 165 50 c 0
 165 28 147 10 125 10 c 2
 75 10 l 2
 53 10 35 28 35 50 c 0
35 150 m 0
 35 172 53 190 75 190 c 2
 125 190 l 2
 147 190 165 172 165 150 c 0
 165 128 147 110 125 110 c 2
 75 110 l 2
 53 110 35 128 35 150 c 0
35 250 m 0
 35 272 53 290 75 290 c 2
 125 290 l 2
 147 290 165 272 165 250 c 0
 165 228 147 210 125 210 c 2
 75 210 l 2
 53 210 35 228 35 250 c 0
35 350 m 0
 35 372 53 390 75 390 c 2
 125 390 l 2
 147 390 165 372 165 350 c 0
 165 328 147 310 125 310 c 2
 75 310 l 2
 53 310 35 328 35 350 c 0
35 450 m 0
 35 472 53 490 75 490 c 2
 125 490 l 2
 147 490 165 472 165 450 c 0
 165 428 147 410 125 410 c 2
 75 410 l 2
 53 410 35 428 35 450 c 0
35 550 m 0
 35 572 53 590 75 590 c 2
 125 590 l 2
 147 590 165 572 165 550 c 0
 165 528 147 510 125 510 c 2
 75 510 l 2
 53 510 35 528 35 550 c 0
35 650 m 0
 35 672 53 690 75 690 c 2
 125 690 l 2
 147 690 165 672 165 650 c 0
 165 628 147 610 125 610 c 2
 75 610 l 2
 53 610 35 628 35 650 c 0
EndSplineSet
EndChar

StartChar: braceright
Encoding: 125 125 93
Width: 500
Flags: HMW
LayerCount: 2
Fore
SplineSet
35 50 m 0
 35 72 53 90 75 90 c 2
 225 90 l 2
 247 90 265 72 265 50 c 0
 265 28 247 10 225 10 c 2
 75 10 l 2
 53 10 35 28 35 50 c 0
235 150 m 0
 235 172 253 190 275 190 c 2
 325 190 l 2
 347 190 365 172 365 150 c 0
 365 128 347 110 325 110 c 2
 275 110 l 2
 253 110 235 128 235 150 c 0
135 250 m 0
 135 272 153 290 175 290 c 2
 225 290 l 2
 247 290 265 272 265 250 c 0
 265 228 247 210 225 210 c 2
 175 210 l 2
 153 210 135 228 135 250 c 0
235 350 m 0
 235 372 253 390 275 390 c 2
 425 390 l 2
 447 390 465 372 465 350 c 0
 465 328 447 310 425 310 c 2
 275 310 l 2
 253 310 235 328 235 350 c 0
135 450 m 0
 135 472 153 490 175 490 c 2
 225 490 l 2
 247 490 265 472 265 450 c 0
 265 428 247 410 225 410 c 2
 175 410 l 2
 153 410 135 428 135 450 c 0
235 550 m 0
 235 572 253 590 275 590 c 2
 325 590 l 2
 347 590 365 572 365 550 c 0
 365 528 347 510 325 510 c 2
 275 510 l 2
 253 510 235 528 235 550 c 0
35 650 m 0
 35 672 53 690 75 690 c 2
 225 690 l 2
 247 690 265 672 265 650 c 0
 265 628 247 610 225 610 c 2
 75 610 l 2
 53 610 35 628 35 650 c 0
EndSplineSet
EndChar

StartChar: asciitilde
Encoding: 126 126 94
Width: 600
Flags: HMW
LayerCount: 2
Fore
SplineSet
335 250 m 0
 335 272 353 290 375 290 c 2
 425 290 l 2
 447 290 465 272 465 250 c 0
 465 228 447 210 425 210 c 2
 375 210 l 2
 353 210 335 228 335 250 c 0
35 250 m 0
 35 272 53 290 75 290 c 2
 125 290 l 2
 147 290 165 272 165 250 c 0
 165 228 147 210 125 210 c 2
 75 210 l 2
 53 210 35 228 35 250 c 0
435 350 m 0
 435 372 453 390 475 390 c 2
 525 390 l 2
 547 390 565 372 565 350 c 0
 565 328 547 310 525 310 c 2
 475 310 l 2
 453 310 435 328 435 350 c 0
235 350 m 0
 235 372 253 390 275 390 c 2
 325 390 l 2
 347 390 365 372 365 350 c 0
 365 328 347 310 325 310 c 2
 275 310 l 2
 253 310 235 328 235 350 c 0
35 350 m 0
 35 372 53 390 75 390 c 2
 125 390 l 2
 147 390 165 372 165 350 c 0
 165 328 147 310 125 310 c 2
 75 310 l 2
 53 310 35 328 35 350 c 0
435 450 m 0
 435 472 453 490 475 490 c 2
 525 490 l 2
 547 490 565 472 565 450 c 0
 565 428 547 410 525 410 c 2
 475 410 l 2
 453 410 435 428 435 450 c 0
135 450 m 0
 135 472 153 490 175 490 c 2
 225 490 l 2
 247 490 265 472 265 450 c 0
 265 428 247 410 225 410 c 2
 175 410 l 2
 153 410 135 428 135 450 c 0
EndSplineSet
EndChar

StartChar: .notdef
Encoding: 1114113 -1 95
Width: 601
VWidth: 0
Flags: HMW
LayerCount: 2
Fore
SplineSet
130 70 m 1
 470 70 l 1
 470 630 l 1
 130 630 l 1
 130 70 l 1
550 0 m 1
 50 0 l 1
 50 700 l 1
 550 700 l 1
 550 0 l 1
EndSplineSet
EndChar

StartChar: exclamdown
Encoding: 161 161 96
Width: 200
Flags: HMW
LayerCount: 2
Fore
SplineSet
35 -150 m 0
 35 -128 53 -110 75 -110 c 2
 125 -110 l 2
 147 -110 165 -128 165 -150 c 0
 165 -172 147 -190 125 -190 c 2
 75 -190 l 2
 53 -190 35 -172 35 -150 c 0
35 -50 m 0
 35 -28 53 -10 75 -10 c 2
 125 -10 l 2
 147 -10 165 -28 165 -50 c 0
 165 -72 147 -90 125 -90 c 2
 75 -90 l 2
 53 -90 35 -72 35 -50 c 0
35 50 m 0
 35 72 53 90 75 90 c 2
 125 90 l 2
 147 90 165 72 165 50 c 0
 165 28 147 10 125 10 c 2
 75 10 l 2
 53 10 35 28 35 50 c 0
35 150 m 0
 35 172 53 190 75 190 c 2
 125 190 l 2
 147 190 165 172 165 150 c 0
 165 128 147 110 125 110 c 2
 75 110 l 2
 53 110 35 128 35 150 c 0
35 250 m 0
 35 272 53 290 75 290 c 2
 125 290 l 2
 147 290 165 272 165 250 c 0
 165 228 147 210 125 210 c 2
 75 210 l 2
 53 210 35 228 35 250 c 0
35 450 m 0
 35 472 53 490 75 490 c 2
 125 490 l 2
 147 490 165 472 165 450 c 0
 165 428 147 410 125 410 c 2
 75 410 l 2
 53 410 35 428 35 450 c 0
EndSplineSet
EndChar

StartChar: cent
Encoding: 162 162 97
Width: 600
Flags: HMW
LayerCount: 2
Fore
SplineSet
235 50 m 0
 235 72 253 90 275 90 c 2
 325 90 l 2
 347 90 365 72 365 50 c 0
 365 28 347 10 325 10 c 2
 275 10 l 2
 253 10 235 28 235 50 c 0
135 150 m 0
 135 172 153 190 175 190 c 2
 425 190 l 2
 447 190 465 172 465 150 c 0
 465 128 447 110 425 110 c 2
 175 110 l 2
 153 110 135 128 135 150 c 0
435 250 m 0
 435 272 453 290 475 290 c 2
 525 290 l 2
 547 290 565 272 565 250 c 0
 565 228 547 210 525 210 c 2
 475 210 l 2
 453 210 435 228 435 250 c 0
235 250 m 0
 235 272 253 290 275 290 c 2
 325 290 l 2
 347 290 365 272 365 250 c 0
 365 228 347 210 325 210 c 2
 275 210 l 2
 253 210 235 228 235 250 c 0
35 250 m 0
 35 272 53 290 75 290 c 2
 125 290 l 2
 147 290 165 272 165 250 c 0
 165 228 147 210 125 210 c 2
 75 210 l 2
 53 210 35 228 35 250 c 0
235 350 m 0
 235 372 253 390 275 390 c 2
 325 390 l 2
 347 390 365 372 365 350 c 0
 365 328 347 310 325 310 c 2
 275 310 l 2
 253 310 235 328 235 350 c 0
35 350 m 0
 35 372 53 390 75 390 c 2
 125 390 l 2
 147 390 165 372 165 350 c 0
 165 328 147 310 125 310 c 2
 75 310 l 2
 53 310 35 328 35 350 c 0
435 450 m 0
 435 472 453 490 475 490 c 2
 525 490 l 2
 547 490 565 472 565 450 c 0
 565 428 547 410 525 410 c 2
 475 410 l 2
 453 410 435 428 435 450 c 0
235 450 m 0
 235 472 253 490 275 490 c 2
 325 490 l 2
 347 490 365 472 365 450 c 0
 365 428 347 410 325 410 c 2
 275 410 l 2
 253 410 235 428 235 450 c 0
35 450 m 0
 35 472 53 490 75 490 c 2
 125 490 l 2
 147 490 165 472 165 450 c 0
 165 428 147 410 125 410 c 2
 75 410 l 2
 53 410 35 428 35 450 c 0
135 550 m 0
 135 572 153 590 175 590 c 2
 425 590 l 2
 447 590 465 572 465 550 c 0
 465 528 447 510 425 510 c 2
 175 510 l 2
 153 510 135 528 135 550 c 0
235 650 m 0
 235 672 253 690 275 690 c 2
 325 690 l 2
 347 690 365 672 365 650 c 0
 365 628 347 610 325 610 c 2
 275 610 l 2
 253 610 235 628 235 650 c 0
EndSplineSet
EndChar

StartChar: sterling
Encoding: 163 163 98
Width: 600
Flags: HMW
LayerCount: 2
Fore
SplineSet
35 50 m 0
 35 72 53 90 75 90 c 2
 525 90 l 2
 547 90 565 72 565 50 c 0
 565 28 547 10 525 10 c 2
 75 10 l 2
 53 10 35 28 35 50 c 0
135 150 m 0
 135 172 153 190 175 190 c 2
 225 190 l 2
 247 190 265 172 265 150 c 0
 265 128 247 110 225 110 c 2
 175 110 l 2
 153 110 135 128 135 150 c 0
135 250 m 0
 135 272 153 290 175 290 c 2
 225 290 l 2
 247 290 265 272 265 250 c 0
 265 228 247 210 225 210 c 2
 175 210 l 2
 153 210 135 228 135 250 c 0
35 350 m 0
 35 372 53 390 75 390 c 2
 325 390 l 2
 347 390 365 372 365 350 c 0
 365 328 347 310 325 310 c 2
 75 310 l 2
 53 310 35 328 35 350 c 0
135 450 m 0
 135 472 153 490 175 490 c 2
 225 490 l 2
 247 490 265 472 265 450 c 0
 265 428 247 410 225 410 c 2
 175 410 l 2
 153 410 135 428 135 450 c 0
435 550 m 0
 435 572 453 590 475 590 c 2
 525 590 l 2
 547 590 565 572 565 550 c 0
 565 528 547 510 525 510 c 2
 475 510 l 2
 453 510 435 528 435 550 c 0
135 550 m 0
 135 572 153 590 175 590 c 2
 225 590 l 2
 247 590 265 572 265 550 c 0
 265 528 247 510 225 510 c 2
 175 510 l 2
 153 510 135 528 135 550 c 0
235 650 m 0
 235 672 253 690 275 690 c 2
 425 690 l 2
 447 690 465 672 465 650 c 0
 465 628 447 610 425 610 c 2
 275 610 l 2
 253 610 235 628 235 650 c 0
EndSplineSet
EndChar

StartChar: currency
Encoding: 164 164 99
Width: 600
Flags: HMW
LayerCount: 2
Fore
SplineSet
435 150 m 0
 435 172 453 190 475 190 c 2
 525 190 l 2
 547 190 565 172 565 150 c 0
 565 128 547 110 525 110 c 2
 475 110 l 2
 453 110 435 128 435 150 c 0
35 150 m 0
 35 172 53 190 75 190 c 2
 125 190 l 2
 147 190 165 172 165 150 c 0
 165 128 147 110 125 110 c 2
 75 110 l 2
 53 110 35 128 35 150 c 0
135 250 m 0
 135 272 153 290 175 290 c 2
 425 290 l 2
 447 290 465 272 465 250 c 0
 465 228 447 210 425 210 c 2
 175 210 l 2
 153 210 135 228 135 250 c 0
335 350 m 0
 335 372 353 390 375 390 c 2
 425 390 l 2
 447 390 465 372 465 350 c 0
 465 328 447 310 425 310 c 2
 375 310 l 2
 353 310 335 328 335 350 c 0
135 350 m 0
 135 372 153 390 175 390 c 2
 225 390 l 2
 247 390 265 372 265 350 c 0
 265 328 247 310 225 310 c 2
 175 310 l 2
 153 310 135 328 135 350 c 0
135 450 m 0
 135 472 153 490 175 490 c 2
 425 490 l 2
 447 490 465 472 465 450 c 0
 465 428 447 410 425 410 c 2
 175 410 l 2
 153 410 135 428 135 450 c 0
435 550 m 0
 435 572 453 590 475 590 c 2
 525 590 l 2
 547 590 565 572 565 550 c 0
 565 528 547 510 525 510 c 2
 475 510 l 2
 453 510 435 528 435 550 c 0
35 550 m 0
 35 572 53 590 75 590 c 2
 125 590 l 2
 147 590 165 572 165 550 c 0
 165 528 147 510 125 510 c 2
 75 510 l 2
 53 510 35 528 35 550 c 0
EndSplineSet
EndChar

StartChar: yen
Encoding: 165 165 100
Width: 600
Flags: HMW
LayerCount: 2
Fore
SplineSet
235 50 m 0
 235 72 253 90 275 90 c 2
 325 90 l 2
 347 90 365 72 365 50 c 0
 365 28 347 10 325 10 c 2
 275 10 l 2
 253 10 235 28 235 50 c 0
135 150 m 0
 135 172 153 190 175 190 c 2
 425 190 l 2
 447 190 465 172 465 150 c 0
 465 128 447 110 425 110 c 2
 175 110 l 2
 153 110 135 128 135 150 c 0
233 252 m 0
 233 274 251 292 273 292 c 2
 323 292 l 2
 345 292 363 274 363 252 c 0
 363 230 345 212 323 212 c 2
 273 212 l 2
 251 212 233 230 233 252 c 0
135 350 m 0
 135 372 153 390 175 390 c 2
 425 390 l 2
 447 390 465 372 465 350 c 0
 465 328 447 310 425 310 c 2
 175 310 l 2
 153 310 135 328 135 350 c 0
235 450 m 0
 235 472 253 490 275 490 c 2
 325 490 l 2
 347 490 365 472 365 450 c 0
 365 428 347 410 325 410 c 2
 275 410 l 2
 253 410 235 428 235 450 c 0
335 550 m 0
 335 572 353 590 375 590 c 2
 425 590 l 2
 447 590 465 572 465 550 c 0
 465 528 447 510 425 510 c 2
 375 510 l 2
 353 510 335 528 335 550 c 0
135 550 m 0
 135 572 153 590 175 590 c 2
 225 590 l 2
 247 590 265 572 265 550 c 0
 265 528 247 510 225 510 c 2
 175 510 l 2
 153 510 135 528 135 550 c 0
435 650 m 0
 435 672 453 690 475 690 c 2
 525 690 l 2
 547 690 565 672 565 650 c 0
 565 628 547 610 525 610 c 2
 475 610 l 2
 453 610 435 628 435 650 c 0
35 650 m 0
 35 672 53 690 75 690 c 2
 125 690 l 2
 147 690 165 672 165 650 c 0
 165 628 147 610 125 610 c 2
 75 610 l 2
 53 610 35 628 35 650 c 0
EndSplineSet
EndChar

StartChar: brokenbar
Encoding: 166 166 101
Width: 200
Flags: HMW
LayerCount: 2
Fore
SplineSet
35 50 m 0
 35 72 53 90 75 90 c 2
 125 90 l 2
 147 90 165 72 165 50 c 0
 165 28 147 10 125 10 c 2
 75 10 l 2
 53 10 35 28 35 50 c 0
35 150 m 0
 35 172 53 190 75 190 c 2
 125 190 l 2
 147 190 165 172 165 150 c 0
 165 128 147 110 125 110 c 2
 75 110 l 2
 53 110 35 128 35 150 c 0
35 250 m 0
 35 272 53 290 75 290 c 2
 125 290 l 2
 147 290 165 272 165 250 c 0
 165 228 147 210 125 210 c 2
 75 210 l 2
 53 210 35 228 35 250 c 0
35 450 m 0
 35 472 53 490 75 490 c 2
 125 490 l 2
 147 490 165 472 165 450 c 0
 165 428 147 410 125 410 c 2
 75 410 l 2
 53 410 35 428 35 450 c 0
35 550 m 0
 35 572 53 590 75 590 c 2
 125 590 l 2
 147 590 165 572 165 550 c 0
 165 528 147 510 125 510 c 2
 75 510 l 2
 53 510 35 528 35 550 c 0
35 650 m 0
 35 672 53 690 75 690 c 2
 125 690 l 2
 147 690 165 672 165 650 c 0
 165 628 147 610 125 610 c 2
 75 610 l 2
 53 610 35 628 35 650 c 0
EndSplineSet
EndChar

StartChar: section
Encoding: 167 167 102
Width: 600
Flags: HMW
LayerCount: 2
Fore
SplineSet
135 -150 m 0
 135 -128 153 -110 175 -110 c 2
 425 -110 l 2
 447 -110 465 -128 465 -150 c 0
 465 -172 447 -190 425 -190 c 2
 175 -190 l 2
 153 -190 135 -172 135 -150 c 0
435 -50 m 0
 435 -28 453 -10 475 -10 c 2
 525 -10 l 2
 547 -10 565 -28 565 -50 c 0
 565 -72 547 -90 525 -90 c 2
 475 -90 l 2
 453 -90 435 -72 435 -50 c 0
35 -50 m 0
 35 -28 53 -10 75 -10 c 2
 125 -10 l 2
 147 -10 165 -28 165 -50 c 0
 165 -72 147 -90 125 -90 c 2
 75 -90 l 2
 53 -90 35 -72 35 -50 c 0
435 50 m 0
 435 72 453 90 475 90 c 2
 525 90 l 2
 547 90 565 72 565 50 c 0
 565 28 547 10 525 10 c 2
 475 10 l 2
 453 10 435 28 435 50 c 0
135 150 m 0
 135 172 153 190 175 190 c 2
 425 190 l 2
 447 190 465 172 465 150 c 0
 465 128 447 110 425 110 c 2
 175 110 l 2
 153 110 135 128 135 150 c 0
435 250 m 0
 435 272 453 290 475 290 c 2
 525 290 l 2
 547 290 565 272 565 250 c 0
 565 228 547 210 525 210 c 2
 475 210 l 2
 453 210 435 228 435 250 c 0
35 250 m 0
 35 272 53 290 75 290 c 2
 125 290 l 2
 147 290 165 272 165 250 c 0
 165 228 147 210 125 210 c 2
 75 210 l 2
 53 210 35 228 35 250 c 0
135 350 m 0
 135 372 153 390 175 390 c 2
 425 390 l 2
 447 390 465 372 465 350 c 0
 465 328 447 310 425 310 c 2
 175 310 l 2
 153 310 135 328 135 350 c 0
35 450 m 0
 35 472 53 490 75 490 c 2
 125 490 l 2
 147 490 165 472 165 450 c 0
 165 428 147 410 125 410 c 2
 75 410 l 2
 53 410 35 428 35 450 c 0
435 550 m 0
 435 572 453 590 475 590 c 2
 525 590 l 2
 547 590 565 572 565 550 c 0
 565 528 547 510 525 510 c 2
 475 510 l 2
 453 510 435 528 435 550 c 0
35 550 m 0
 35 572 53 590 75 590 c 2
 125 590 l 2
 147 590 165 572 165 550 c 0
 165 528 147 510 125 510 c 2
 75 510 l 2
 53 510 35 528 35 550 c 0
135 650 m 0
 135 672 153 690 175 690 c 2
 425 690 l 2
 447 690 465 672 465 650 c 0
 465 628 447 610 425 610 c 2
 175 610 l 2
 153 610 135 628 135 650 c 0
EndSplineSet
EndChar

StartChar: dieresis
Encoding: 168 168 103
Width: 400
Flags: HMW
LayerCount: 2
Fore
SplineSet
235 650 m 0
 235 672 253 690 275 690 c 2
 325 690 l 2
 347 690 365 672 365 650 c 0
 365 628 347 610 325 610 c 2
 275 610 l 2
 253 610 235 628 235 650 c 0
35 650 m 0
 35 672 53 690 75 690 c 2
 125 690 l 2
 147 690 165 672 165 650 c 0
 165 628 147 610 125 610 c 2
 75 610 l 2
 53 610 35 628 35 650 c 0
EndSplineSet
EndChar

StartChar: copyright
Encoding: 169 169 104
Width: 900
Flags: HMW
LayerCount: 2
Fore
SplineSet
235 -50 m 0
 235 -28 253 -10 275 -10 c 2
 625 -10 l 2
 647 -10 665 -28 665 -50 c 0
 665 -72 647 -90 625 -90 c 2
 275 -90 l 2
 253 -90 235 -72 235 -50 c 0
635 50 m 0
 635 72 653 90 675 90 c 2
 725 90 l 2
 747 90 765 72 765 50 c 0
 765 28 747 10 725 10 c 2
 675 10 l 2
 653 10 635 28 635 50 c 0
135 50 m 0
 135 72 153 90 175 90 c 2
 225 90 l 2
 247 90 265 72 265 50 c 0
 265 28 247 10 225 10 c 2
 175 10 l 2
 153 10 135 28 135 50 c 0
735 150 m 0
 735 172 753 190 775 190 c 2
 825 190 l 2
 847 190 865 172 865 150 c 0
 865 128 847 110 825 110 c 2
 775 110 l 2
 753 110 735 128 735 150 c 0
335 150 m 0
 335 172 353 190 375 190 c 2
 525 190 l 2
 547 190 565 172 565 150 c 0
 565 128 547 110 525 110 c 2
 375 110 l 2
 353 110 335 128 335 150 c 0
35 150 m 0
 35 172 53 190 75 190 c 2
 125 190 l 2
 147 190 165 172 165 150 c 0
 165 128 147 110 125 110 c 2
 75 110 l 2
 53 110 35 128 35 150 c 0
735 250 m 0
 735 272 753 290 775 290 c 2
 825 290 l 2
 847 290 865 272 865 250 c 0
 865 228 847 210 825 210 c 2
 775 210 l 2
 753 210 735 228 735 250 c 0
235 250 m 0
 235 272 253 290 275 290 c 2
 325 290 l 2
 347 290 365 272 365 250 c 0
 365 228 347 210 325 210 c 2
 275 210 l 2
 253 210 235 228 235 250 c 0
35 250 m 0
 35 272 53 290 75 290 c 2
 125 290 l 2
 147 290 165 272 165 250 c 0
 165 228 147 210 125 210 c 2
 75 210 l 2
 53 210 35 228 35 250 c 0
735 350 m 0
 735 372 753 390 775 390 c 2
 825 390 l 2
 847 390 865 372 865 350 c 0
 865 328 847 310 825 310 c 2
 775 310 l 2
 753 310 735 328 735 350 c 0
235 350 m 0
 235 372 253 390 275 390 c 2
 325 390 l 2
 347 390 365 372 365 350 c 0
 365 328 347 310 325 310 c 2
 275 310 l 2
 253 310 235 328 235 350 c 0
35 350 m 0
 35 372 53 390 75 390 c 2
 125 390 l 2
 147 390 165 372 165 350 c 0
 165 328 147 310 125 310 c 2
 75 310 l 2
 53 310 35 328 35 350 c 0
735 450 m 0
 735 472 753 490 775 490 c 2
 825 490 l 2
 847 490 865 472 865 450 c 0
 865 428 847 410 825 410 c 2
 775 410 l 2
 753 410 735 428 735 450 c 0
335 450 m 0
 335 472 353 490 375 490 c 2
 525 490 l 2
 547 490 565 472 565 450 c 0
 565 428 547 410 525 410 c 2
 375 410 l 2
 353 410 335 428 335 450 c 0
35 450 m 0
 35 472 53 490 75 490 c 2
 125 490 l 2
 147 490 165 472 165 450 c 0
 165 428 147 410 125 410 c 2
 75 410 l 2
 53 410 35 428 35 450 c 0
635 550 m 0
 635 572 653 590 675 590 c 2
 725 590 l 2
 747 590 765 572 765 550 c 0
 765 528 747 510 725 510 c 2
 675 510 l 2
 653 510 635 528 635 550 c 0
135 550 m 0
 135 572 153 590 175 590 c 2
 225 590 l 2
 247 590 265 572 265 550 c 0
 265 528 247 510 225 510 c 2
 175 510 l 2
 153 510 135 528 135 550 c 0
235 650 m 0
 235 672 253 690 275 690 c 2
 625 690 l 2
 647 690 665 672 665 650 c 0
 665 628 647 610 625 610 c 2
 275 610 l 2
 253 610 235 628 235 650 c 0
EndSplineSet
EndChar

StartChar: ordfeminine
Encoding: 170 170 105
Width: 500
Flags: HMW
LayerCount: 2
Fore
SplineSet
35 150 m 0
 35 172 53 190 75 190 c 2
 425 190 l 2
 447 190 465 172 465 150 c 0
 465 128 447 110 425 110 c 2
 75 110 l 2
 53 110 35 128 35 150 c 0
135 350 m 0
 135 372 153 390 175 390 c 2
 425 390 l 2
 447 390 465 372 465 350 c 0
 465 328 447 310 425 310 c 2
 175 310 l 2
 153 310 135 328 135 350 c 0
335 450 m 0
 335 472 353 490 375 490 c 2
 425 490 l 2
 447 490 465 472 465 450 c 0
 465 428 447 410 425 410 c 2
 375 410 l 2
 353 410 335 428 335 450 c 0
35 450 m 0
 35 472 53 490 75 490 c 2
 125 490 l 2
 147 490 165 472 165 450 c 0
 165 428 147 410 125 410 c 2
 75 410 l 2
 53 410 35 428 35 450 c 0
335 550 m 0
 335 572 353 590 375 590 c 2
 425 590 l 2
 447 590 465 572 465 550 c 0
 465 528 447 510 425 510 c 2
 375 510 l 2
 353 510 335 528 335 550 c 0
35 550 m 0
 35 572 53 590 75 590 c 2
 125 590 l 2
 147 590 165 572 165 550 c 0
 165 528 147 510 125 510 c 2
 75 510 l 2
 53 510 35 528 35 550 c 0
135 650 m 0
 135 672 153 690 175 690 c 2
 425 690 l 2
 447 690 465 672 465 650 c 0
 465 628 447 610 425 610 c 2
 175 610 l 2
 153 610 135 628 135 650 c 0
EndSplineSet
EndChar

StartChar: logicalnot
Encoding: 172 172 106
Width: 600
Flags: HMW
LayerCount: 2
Fore
SplineSet
435 150 m 0
 435 172 453 190 475 190 c 2
 525 190 l 2
 547 190 565 172 565 150 c 0
 565 128 547 110 525 110 c 2
 475 110 l 2
 453 110 435 128 435 150 c 0
435 250 m 0
 435 272 453 290 475 290 c 2
 525 290 l 2
 547 290 565 272 565 250 c 0
 565 228 547 210 525 210 c 2
 475 210 l 2
 453 210 435 228 435 250 c 0
35 350 m 0
 35 372 53 390 75 390 c 2
 525 390 l 2
 547 390 565 372 565 350 c 0
 565 328 547 310 525 310 c 2
 75 310 l 2
 53 310 35 328 35 350 c 0
EndSplineSet
EndChar

StartChar: registered
Encoding: 174 174 107
Width: 900
Flags: HMW
LayerCount: 2
Fore
SplineSet
235 -50 m 0
 235 -28 253 -10 275 -10 c 2
 625 -10 l 2
 647 -10 665 -28 665 -50 c 0
 665 -72 647 -90 625 -90 c 2
 275 -90 l 2
 253 -90 235 -72 235 -50 c 0
635 50 m 0
 635 72 653 90 675 90 c 2
 725 90 l 2
 747 90 765 72 765 50 c 0
 765 28 747 10 725 10 c 2
 675 10 l 2
 653 10 635 28 635 50 c 0
135 50 m 0
 135 72 153 90 175 90 c 2
 225 90 l 2
 247 90 265 72 265 50 c 0
 265 28 247 10 225 10 c 2
 175 10 l 2
 153 10 135 28 135 50 c 0
735 150 m 0
 735 172 753 190 775 190 c 2
 825 190 l 2
 847 190 865 172 865 150 c 0
 865 128 847 110 825 110 c 2
 775 110 l 2
 753 110 735 128 735 150 c 0
535 150 m 0
 535 172 553 190 575 190 c 2
 625 190 l 2
 647 190 665 172 665 150 c 0
 665 128 647 110 625 110 c 2
 575 110 l 2
 553 110 535 128 535 150 c 0
235 150 m 0
 235 172 253 190 275 190 c 2
 325 190 l 2
 347 190 365 172 365 150 c 0
 365 128 347 110 325 110 c 2
 275 110 l 2
 253 110 235 128 235 150 c 0
35 150 m 0
 35 172 53 190 75 190 c 2
 125 190 l 2
 147 190 165 172 165 150 c 0
 165 128 147 110 125 110 c 2
 75 110 l 2
 53 110 35 128 35 150 c 0
735 250 m 0
 735 272 753 290 775 290 c 2
 825 290 l 2
 847 290 865 272 865 250 c 0
 865 228 847 210 825 210 c 2
 775 210 l 2
 753 210 735 228 735 250 c 0
235 250 m 0
 235 272 253 290 275 290 c 2
 525 290 l 2
 547 290 565 272 565 250 c 0
 565 228 547 210 525 210 c 2
 275 210 l 2
 253 210 235 228 235 250 c 0
35 250 m 0
 35 272 53 290 75 290 c 2
 125 290 l 2
 147 290 165 272 165 250 c 0
 165 228 147 210 125 210 c 2
 75 210 l 2
 53 210 35 228 35 250 c 0
735 350 m 0
 735 372 753 390 775 390 c 2
 825 390 l 2
 847 390 865 372 865 350 c 0
 865 328 847 310 825 310 c 2
 775 310 l 2
 753 310 735 328 735 350 c 0
535 350 m 0
 535 372 553 390 575 390 c 2
 625 390 l 2
 647 390 665 372 665 350 c 0
 665 328 647 310 625 310 c 2
 575 310 l 2
 553 310 535 328 535 350 c 0
235 350 m 0
 235 372 253 390 275 390 c 2
 325 390 l 2
 347 390 365 372 365 350 c 0
 365 328 347 310 325 310 c 2
 275 310 l 2
 253 310 235 328 235 350 c 0
35 350 m 0
 35 372 53 390 75 390 c 2
 125 390 l 2
 147 390 165 372 165 350 c 0
 165 328 147 310 125 310 c 2
 75 310 l 2
 53 310 35 328 35 350 c 0
735 450 m 0
 735 472 753 490 775 490 c 2
 825 490 l 2
 847 490 865 472 865 450 c 0
 865 428 847 410 825 410 c 2
 775 410 l 2
 753 410 735 428 735 450 c 0
235 450 m 0
 235 472 253 490 275 490 c 2
 525 490 l 2
 547 490 565 472 565 450 c 0
 565 428 547 410 525 410 c 2
 275 410 l 2
 253 410 235 428 235 450 c 0
35 450 m 0
 35 472 53 490 75 490 c 2
 125 490 l 2
 147 490 165 472 165 450 c 0
 165 428 147 410 125 410 c 2
 75 410 l 2
 53 410 35 428 35 450 c 0
635 550 m 0
 635 572 653 590 675 590 c 2
 725 590 l 2
 747 590 765 572 765 550 c 0
 765 528 747 510 725 510 c 2
 675 510 l 2
 653 510 635 528 635 550 c 0
135 550 m 0
 135 572 153 590 175 590 c 2
 225 590 l 2
 247 590 265 572 265 550 c 0
 265 528 247 510 225 510 c 2
 175 510 l 2
 153 510 135 528 135 550 c 0
235 650 m 0
 235 672 253 690 275 690 c 2
 625 690 l 2
 647 690 665 672 665 650 c 0
 665 628 647 610 625 610 c 2
 275 610 l 2
 253 610 235 628 235 650 c 0
EndSplineSet
EndChar

StartChar: macron
Encoding: 175 175 108
Width: 400
Flags: HMW
LayerCount: 2
Fore
SplineSet
35 650 m 0
 35 672 53 690 75 690 c 2
 325 690 l 2
 347 690 365 672 365 650 c 0
 365 628 347 610 325 610 c 2
 75 610 l 2
 53 610 35 628 35 650 c 0
EndSplineSet
EndChar

StartChar: degree
Encoding: 176 176 109
Width: 500
Flags: HMW
LayerCount: 2
Fore
SplineSet
135 350 m 0
 135 372 153 390 175 390 c 2
 325 390 l 2
 347 390 365 372 365 350 c 0
 365 328 347 310 325 310 c 2
 175 310 l 2
 153 310 135 328 135 350 c 0
335 450 m 0
 335 472 353 490 375 490 c 2
 425 490 l 2
 447 490 465 472 465 450 c 0
 465 428 447 410 425 410 c 2
 375 410 l 2
 353 410 335 428 335 450 c 0
35 450 m 0
 35 472 53 490 75 490 c 2
 125 490 l 2
 147 490 165 472 165 450 c 0
 165 428 147 410 125 410 c 2
 75 410 l 2
 53 410 35 428 35 450 c 0
335 550 m 0
 335 572 353 590 375 590 c 2
 425 590 l 2
 447 590 465 572 465 550 c 0
 465 528 447 510 425 510 c 2
 375 510 l 2
 353 510 335 528 335 550 c 0
35 550 m 0
 35 572 53 590 75 590 c 2
 125 590 l 2
 147 590 165 572 165 550 c 0
 165 528 147 510 125 510 c 2
 75 510 l 2
 53 510 35 528 35 550 c 0
135 650 m 0
 135 672 153 690 175 690 c 2
 325 690 l 2
 347 690 365 672 365 650 c 0
 365 628 347 610 325 610 c 2
 175 610 l 2
 153 610 135 628 135 650 c 0
EndSplineSet
EndChar

StartChar: uni00B2
Encoding: 178 178 110
Width: 400
Flags: HMW
LayerCount: 2
Fore
SplineSet
35 250 m 0
 35 272 53 290 75 290 c 2
 325 290 l 2
 347 290 365 272 365 250 c 0
 365 228 347 210 325 210 c 2
 75 210 l 2
 53 210 35 228 35 250 c 0
35 350 m 0
 35 372 53 390 75 390 c 2
 125 390 l 2
 147 390 165 372 165 350 c 0
 165 328 147 310 125 310 c 2
 75 310 l 2
 53 310 35 328 35 350 c 0
135 450 m 0
 135 472 153 490 175 490 c 2
 225 490 l 2
 247 490 265 472 265 450 c 0
 265 428 247 410 225 410 c 2
 175 410 l 2
 153 410 135 428 135 450 c 0
235 550 m 0
 235 572 253 590 275 590 c 2
 325 590 l 2
 347 590 365 572 365 550 c 0
 365 528 347 510 325 510 c 2
 275 510 l 2
 253 510 235 528 235 550 c 0
35 650 m 0
 35 672 53 690 75 690 c 2
 225 690 l 2
 247 690 265 672 265 650 c 0
 265 628 247 610 225 610 c 2
 75 610 l 2
 53 610 35 628 35 650 c 0
EndSplineSet
EndChar

StartChar: uni00B3
Encoding: 179 179 111
Width: 400
Flags: HMW
LayerCount: 2
Fore
SplineSet
35 250 m 0
 35 272 53 290 75 290 c 2
 225 290 l 2
 247 290 265 272 265 250 c 0
 265 228 247 210 225 210 c 2
 75 210 l 2
 53 210 35 228 35 250 c 0
235 350 m 0
 235 372 253 390 275 390 c 2
 325 390 l 2
 347 390 365 372 365 350 c 0
 365 328 347 310 325 310 c 2
 275 310 l 2
 253 310 235 328 235 350 c 0
35 450 m 0
 35 472 53 490 75 490 c 2
 225 490 l 2
 247 490 265 472 265 450 c 0
 265 428 247 410 225 410 c 2
 75 410 l 2
 53 410 35 428 35 450 c 0
235 550 m 0
 235 572 253 590 275 590 c 2
 325 590 l 2
 347 590 365 572 365 550 c 0
 365 528 347 510 325 510 c 2
 275 510 l 2
 253 510 235 528 235 550 c 0
35 650 m 0
 35 672 53 690 75 690 c 2
 225 690 l 2
 247 690 265 672 265 650 c 0
 265 628 247 610 225 610 c 2
 75 610 l 2
 53 610 35 628 35 650 c 0
EndSplineSet
EndChar

StartChar: acute
Encoding: 180 180 112
Width: 300
Flags: HMW
LayerCount: 2
Fore
SplineSet
35 550 m 0
 35 572 53 590 75 590 c 2
 125 590 l 2
 147 590 165 572 165 550 c 0
 165 528 147 510 125 510 c 2
 75 510 l 2
 53 510 35 528 35 550 c 0
135 650 m 0
 135 672 153 690 175 690 c 2
 225 690 l 2
 247 690 265 672 265 650 c 0
 265 628 247 610 225 610 c 2
 175 610 l 2
 153 610 135 628 135 650 c 0
EndSplineSet
EndChar

StartChar: mu
Encoding: 181 181 113
Width: 600
Flags: HMW
LayerCount: 2
Fore
SplineSet
35 -150 m 0
 35 -128 53 -110 75 -110 c 2
 125 -110 l 2
 147 -110 165 -128 165 -150 c 0
 165 -172 147 -190 125 -190 c 2
 75 -190 l 2
 53 -190 35 -172 35 -150 c 0
35 -50 m 0
 35 -28 53 -10 75 -10 c 2
 125 -10 l 2
 147 -10 165 -28 165 -50 c 0
 165 -72 147 -90 125 -90 c 2
 75 -90 l 2
 53 -90 35 -72 35 -50 c 0
435 50 m 0
 435 72 453 90 475 90 c 2
 525 90 l 2
 547 90 565 72 565 50 c 0
 565 28 547 10 525 10 c 2
 475 10 l 2
 453 10 435 28 435 50 c 0
35 50 m 0
 35 72 53 90 75 90 c 2
 325 90 l 2
 347 90 365 72 365 50 c 0
 365 28 347 10 325 10 c 2
 75 10 l 2
 53 10 35 28 35 50 c 0
335 150 m 0
 335 172 353 190 375 190 c 2
 425 190 l 2
 447 190 465 172 465 150 c 0
 465 128 447 110 425 110 c 2
 375 110 l 2
 353 110 335 128 335 150 c 0
35 150 m 0
 35 172 53 190 75 190 c 2
 125 190 l 2
 147 190 165 172 165 150 c 0
 165 128 147 110 125 110 c 2
 75 110 l 2
 53 110 35 128 35 150 c 0
335 250 m 0
 335 272 353 290 375 290 c 2
 425 290 l 2
 447 290 465 272 465 250 c 0
 465 228 447 210 425 210 c 2
 375 210 l 2
 353 210 335 228 335 250 c 0
35 250 m 0
 35 272 53 290 75 290 c 2
 125 290 l 2
 147 290 165 272 165 250 c 0
 165 228 147 210 125 210 c 2
 75 210 l 2
 53 210 35 228 35 250 c 0
335 350 m 0
 335 372 353 390 375 390 c 2
 425 390 l 2
 447 390 465 372 465 350 c 0
 465 328 447 310 425 310 c 2
 375 310 l 2
 353 310 335 328 335 350 c 0
35 350 m 0
 35 372 53 390 75 390 c 2
 125 390 l 2
 147 390 165 372 165 350 c 0
 165 328 147 310 125 310 c 2
 75 310 l 2
 53 310 35 328 35 350 c 0
335 450 m 0
 335 472 353 490 375 490 c 2
 425 490 l 2
 447 490 465 472 465 450 c 0
 465 428 447 410 425 410 c 2
 375 410 l 2
 353 410 335 428 335 450 c 0
35 450 m 0
 35 472 53 490 75 490 c 2
 125 490 l 2
 147 490 165 472 165 450 c 0
 165 428 147 410 125 410 c 2
 75 410 l 2
 53 410 35 428 35 450 c 0
EndSplineSet
EndChar

StartChar: paragraph
Encoding: 182 182 114
Width: 600
Flags: HMW
LayerCount: 2
Fore
SplineSet
435 -150 m 0
 435 -128 453 -110 475 -110 c 2
 525 -110 l 2
 547 -110 565 -128 565 -150 c 0
 565 -172 547 -190 525 -190 c 2
 475 -190 l 2
 453 -190 435 -172 435 -150 c 0
235 -150 m 0
 235 -128 253 -110 275 -110 c 2
 325 -110 l 2
 347 -110 365 -128 365 -150 c 0
 365 -172 347 -190 325 -190 c 2
 275 -190 l 2
 253 -190 235 -172 235 -150 c 0
435 -50 m 0
 435 -28 453 -10 475 -10 c 2
 525 -10 l 2
 547 -10 565 -28 565 -50 c 0
 565 -72 547 -90 525 -90 c 2
 475 -90 l 2
 453 -90 435 -72 435 -50 c 0
235 -50 m 0
 235 -28 253 -10 275 -10 c 2
 325 -10 l 2
 347 -10 365 -28 365 -50 c 0
 365 -72 347 -90 325 -90 c 2
 275 -90 l 2
 253 -90 235 -72 235 -50 c 0
435 50 m 0
 435 72 453 90 475 90 c 2
 525 90 l 2
 547 90 565 72 565 50 c 0
 565 28 547 10 525 10 c 2
 475 10 l 2
 453 10 435 28 435 50 c 0
235 50 m 0
 235 72 253 90 275 90 c 2
 325 90 l 2
 347 90 365 72 365 50 c 0
 365 28 347 10 325 10 c 2
 275 10 l 2
 253 10 235 28 235 50 c 0
435 150 m 0
 435 172 453 190 475 190 c 2
 525 190 l 2
 547 190 565 172 565 150 c 0
 565 128 547 110 525 110 c 2
 475 110 l 2
 453 110 435 128 435 150 c 0
235 150 m 0
 235 172 253 190 275 190 c 2
 325 190 l 2
 347 190 365 172 365 150 c 0
 365 128 347 110 325 110 c 2
 275 110 l 2
 253 110 235 128 235 150 c 0
435 250 m 0
 435 272 453 290 475 290 c 2
 525 290 l 2
 547 290 565 272 565 250 c 0
 565 228 547 210 525 210 c 2
 475 210 l 2
 453 210 435 228 435 250 c 0
235 250 m 0
 235 272 253 290 275 290 c 2
 325 290 l 2
 347 290 365 272 365 250 c 0
 365 228 347 210 325 210 c 2
 275 210 l 2
 253 210 235 228 235 250 c 0
435 350 m 0
 435 372 453 390 475 390 c 2
 525 390 l 2
 547 390 565 372 565 350 c 0
 565 328 547 310 525 310 c 2
 475 310 l 2
 453 310 435 328 435 350 c 0
135 350 m 0
 135 372 153 390 175 390 c 2
 325 390 l 2
 347 390 365 372 365 350 c 0
 365 328 347 310 325 310 c 2
 175 310 l 2
 153 310 135 328 135 350 c 0
435 450 m 0
 435 472 453 490 475 490 c 2
 525 490 l 2
 547 490 565 472 565 450 c 0
 565 428 547 410 525 410 c 2
 475 410 l 2
 453 410 435 428 435 450 c 0
35 450 m 0
 35 472 53 490 75 490 c 2
 325 490 l 2
 347 490 365 472 365 450 c 0
 365 428 347 410 325 410 c 2
 75 410 l 2
 53 410 35 428 35 450 c 0
435 550 m 0
 435 572 453 590 475 590 c 2
 525 590 l 2
 547 590 565 572 565 550 c 0
 565 528 547 510 525 510 c 2
 475 510 l 2
 453 510 435 528 435 550 c 0
35 550 m 0
 35 572 53 590 75 590 c 2
 325 590 l 2
 347 590 365 572 365 550 c 0
 365 528 347 510 325 510 c 2
 75 510 l 2
 53 510 35 528 35 550 c 0
135 650 m 0
 135 672 153 690 175 690 c 2
 525 690 l 2
 547 690 565 672 565 650 c 0
 565 628 547 610 525 610 c 2
 175 610 l 2
 153 610 135 628 135 650 c 0
EndSplineSet
EndChar

StartChar: periodcentered
Encoding: 183 183 115
Width: 200
VWidth: 0
Flags: HMW
LayerCount: 2
Fore
SplineSet
35 350 m 0
 35 372 53 390 75 390 c 2
 125 390 l 2
 147 390 165 372 165 350 c 0
 165 328 147 310 125 310 c 2
 75 310 l 2
 53 310 35 328 35 350 c 0
EndSplineSet
EndChar

StartChar: cedilla
Encoding: 184 184 116
Width: 300
Flags: HMW
LayerCount: 2
Fore
SplineSet
35 -150 m 0
 35 -128 53 -110 75 -110 c 2
 225 -110 l 2
 247 -110 265 -128 265 -150 c 0
 265 -172 247 -190 225 -190 c 2
 75 -190 l 2
 53 -190 35 -172 35 -150 c 0
135 -50 m 0
 135 -28 153 -10 175 -10 c 2
 225 -10 l 2
 247 -10 265 -28 265 -50 c 0
 265 -72 247 -90 225 -90 c 2
 175 -90 l 2
 153 -90 135 -72 135 -50 c 0
EndSplineSet
EndChar

StartChar: uni00B9
Encoding: 185 185 117
Width: 400
Flags: HMW
LayerCount: 2
Fore
SplineSet
35 250 m 0
 35 272 53 290 75 290 c 2
 325 290 l 2
 347 290 365 272 365 250 c 0
 365 228 347 210 325 210 c 2
 75 210 l 2
 53 210 35 228 35 250 c 0
135 350 m 0
 135 372 153 390 175 390 c 2
 225 390 l 2
 247 390 265 372 265 350 c 0
 265 328 247 310 225 310 c 2
 175 310 l 2
 153 310 135 328 135 350 c 0
135 450 m 0
 135 472 153 490 175 490 c 2
 225 490 l 2
 247 490 265 472 265 450 c 0
 265 428 247 410 225 410 c 2
 175 410 l 2
 153 410 135 428 135 450 c 0
35 550 m 0
 35 572 53 590 75 590 c 2
 225 590 l 2
 247 590 265 572 265 550 c 0
 265 528 247 510 225 510 c 2
 75 510 l 2
 53 510 35 528 35 550 c 0
135 650 m 0
 135 672 153 690 175 690 c 2
 225 690 l 2
 247 690 265 672 265 650 c 0
 265 628 247 610 225 610 c 2
 175 610 l 2
 153 610 135 628 135 650 c 0
EndSplineSet
EndChar

StartChar: ordmasculine
Encoding: 186 186 118
Width: 500
Flags: HMW
LayerCount: 2
Fore
SplineSet
35 150 m 0
 35 172 53 190 75 190 c 2
 425 190 l 2
 447 190 465 172 465 150 c 0
 465 128 447 110 425 110 c 2
 75 110 l 2
 53 110 35 128 35 150 c 0
135 350 m 0
 135 372 153 390 175 390 c 2
 325 390 l 2
 347 390 365 372 365 350 c 0
 365 328 347 310 325 310 c 2
 175 310 l 2
 153 310 135 328 135 350 c 0
335 450 m 0
 335 472 353 490 375 490 c 2
 425 490 l 2
 447 490 465 472 465 450 c 0
 465 428 447 410 425 410 c 2
 375 410 l 2
 353 410 335 428 335 450 c 0
35 450 m 0
 35 472 53 490 75 490 c 2
 125 490 l 2
 147 490 165 472 165 450 c 0
 165 428 147 410 125 410 c 2
 75 410 l 2
 53 410 35 428 35 450 c 0
335 550 m 0
 335 572 353 590 375 590 c 2
 425 590 l 2
 447 590 465 572 465 550 c 0
 465 528 447 510 425 510 c 2
 375 510 l 2
 353 510 335 528 335 550 c 0
35 550 m 0
 35 572 53 590 75 590 c 2
 125 590 l 2
 147 590 165 572 165 550 c 0
 165 528 147 510 125 510 c 2
 75 510 l 2
 53 510 35 528 35 550 c 0
135 650 m 0
 135 672 153 690 175 690 c 2
 325 690 l 2
 347 690 365 672 365 650 c 0
 365 628 347 610 325 610 c 2
 175 610 l 2
 153 610 135 628 135 650 c 0
EndSplineSet
EndChar

StartChar: questiondown
Encoding: 191 191 123
Width: 600
Flags: HMW
LayerCount: 2
Fore
SplineSet
135 -150 m 0
 135 -128 153 -110 175 -110 c 2
 425 -110 l 2
 447 -110 465 -128 465 -150 c 0
 465 -172 447 -190 425 -190 c 2
 175 -190 l 2
 153 -190 135 -172 135 -150 c 0
435 -50 m 0
 435 -28 453 -10 475 -10 c 2
 525 -10 l 2
 547 -10 565 -28 565 -50 c 0
 565 -72 547 -90 525 -90 c 2
 475 -90 l 2
 453 -90 435 -72 435 -50 c 0
35 -50 m 0
 35 -28 53 -10 75 -10 c 2
 125 -10 l 2
 147 -10 165 -28 165 -50 c 0
 165 -72 147 -90 125 -90 c 2
 75 -90 l 2
 53 -90 35 -72 35 -50 c 0
35 50 m 0
 35 72 53 90 75 90 c 2
 125 90 l 2
 147 90 165 72 165 50 c 0
 165 28 147 10 125 10 c 2
 75 10 l 2
 53 10 35 28 35 50 c 0
135 150 m 0
 135 172 153 190 175 190 c 2
 325 190 l 2
 347 190 365 172 365 150 c 0
 365 128 347 110 325 110 c 2
 175 110 l 2
 153 110 135 128 135 150 c 0
235 250 m 0
 235 272 253 290 275 290 c 2
 325 290 l 2
 347 290 365 272 365 250 c 0
 365 228 347 210 325 210 c 2
 275 210 l 2
 253 210 235 228 235 250 c 0
235 450 m 0
 235 472 253 490 275 490 c 2
 325 490 l 2
 347 490 365 472 365 450 c 0
 365 428 347 410 325 410 c 2
 275 410 l 2
 253 410 235 428 235 450 c 0
EndSplineSet
EndChar

StartChar: AE
Encoding: 198 198 124
Width: 800
Flags: HMW
AnchorPoint: "marks_below" 400 0 basechar 0
AnchorPoint: "marks_above" 400 800 basechar 0
LayerCount: 2
Fore
SplineSet
235 650 m 0
 235 672 253 690 275 690 c 2
 725 690 l 2
 747 690 765 672 765 650 c 0
 765 628 747 610 725 610 c 2
 275 610 l 2
 253 610 235 628 235 650 c 0
135 550 m 0
 135 572 153 590 175 590 c 2
 225 590 l 2
 247 590 265 572 265 550 c 0
 265 528 247 510 225 510 c 2
 175 510 l 2
 153 510 135 528 135 550 c 0
335 550 m 0
 335 572 353 590 375 590 c 2
 425 590 l 2
 447 590 465 572 465 550 c 0
 465 528 447 510 425 510 c 2
 375 510 l 2
 353 510 335 528 335 550 c 0
35 450 m 0
 35 472 53 490 75 490 c 2
 125 490 l 2
 147 490 165 472 165 450 c 0
 165 428 147 410 125 410 c 2
 75 410 l 2
 53 410 35 428 35 450 c 0
335 450 m 0
 335 472 353 490 375 490 c 2
 425 490 l 2
 447 490 465 472 465 450 c 0
 465 428 447 410 425 410 c 2
 375 410 l 2
 353 410 335 428 335 450 c 0
35 350 m 0
 35 372 53 390 75 390 c 2
 125 390 l 2
 147 390 165 372 165 350 c 0
 165 328 147 310 125 310 c 2
 75 310 l 2
 53 310 35 328 35 350 c 0
335 350 m 0
 335 372 353 390 375 390 c 2
 625 390 l 2
 647 390 665 372 665 350 c 0
 665 328 647 310 625 310 c 2
 375 310 l 2
 353 310 335 328 335 350 c 0
35 250 m 0
 35 272 53 290 75 290 c 2
 425 290 l 2
 447 290 465 272 465 250 c 0
 465 228 447 210 425 210 c 2
 75 210 l 2
 53 210 35 228 35 250 c 0
35 150 m 0
 35 172 53 190 75 190 c 2
 125 190 l 2
 147 190 165 172 165 150 c 0
 165 128 147 110 125 110 c 2
 75 110 l 2
 53 110 35 128 35 150 c 0
335 150 m 0
 335 172 353 190 375 190 c 2
 425 190 l 2
 447 190 465 172 465 150 c 0
 465 128 447 110 425 110 c 2
 375 110 l 2
 353 110 335 128 335 150 c 0
35 50 m 0
 35 72 53 90 75 90 c 2
 125 90 l 2
 147 90 165 72 165 50 c 0
 165 28 147 10 125 10 c 2
 75 10 l 2
 53 10 35 28 35 50 c 0
335 50 m 0
 335 72 353 90 375 90 c 2
 725 90 l 2
 747 90 765 72 765 50 c 0
 765 28 747 10 725 10 c 2
 375 10 l 2
 353 10 335 28 335 50 c 0
EndSplineSet
EndChar

StartChar: Eth
Encoding: 208 208 134
Width: 700
Flags: HMW
AnchorPoint: "marks_below" 400 0 basechar 0
AnchorPoint: "marks_above" 400 800 basechar 0
LayerCount: 2
Fore
SplineSet
135 650 m 0
 135 672 153 690 175 690 c 2
 425 690 l 2
 447 690 465 672 465 650 c 0
 465 628 447 610 425 610 c 2
 175 610 l 2
 153 610 135 628 135 650 c 0
135 550 m 0
 135 572 153 590 175 590 c 2
 225 590 l 2
 247 590 265 572 265 550 c 0
 265 528 247 510 225 510 c 2
 175 510 l 2
 153 510 135 528 135 550 c 0
435 550 m 0
 435 572 453 590 475 590 c 2
 525 590 l 2
 547 590 565 572 565 550 c 0
 565 528 547 510 525 510 c 2
 475 510 l 2
 453 510 435 528 435 550 c 0
135 450 m 0
 135 472 153 490 175 490 c 2
 225 490 l 2
 247 490 265 472 265 450 c 0
 265 428 247 410 225 410 c 2
 175 410 l 2
 153 410 135 428 135 450 c 0
535 450 m 0
 535 472 553 490 575 490 c 2
 625 490 l 2
 647 490 665 472 665 450 c 0
 665 428 647 410 625 410 c 2
 575 410 l 2
 553 410 535 428 535 450 c 0
35 350 m 0
 35 372 53 390 75 390 c 2
 325 390 l 2
 347 390 365 372 365 350 c 0
 365 328 347 310 325 310 c 2
 75 310 l 2
 53 310 35 328 35 350 c 0
535 350 m 0
 535 372 553 390 575 390 c 2
 625 390 l 2
 647 390 665 372 665 350 c 0
 665 328 647 310 625 310 c 2
 575 310 l 2
 553 310 535 328 535 350 c 0
135 250 m 0
 135 272 153 290 175 290 c 2
 225 290 l 2
 247 290 265 272 265 250 c 0
 265 228 247 210 225 210 c 2
 175 210 l 2
 153 210 135 228 135 250 c 0
535 250 m 0
 535 272 553 290 575 290 c 2
 625 290 l 2
 647 290 665 272 665 250 c 0
 665 228 647 210 625 210 c 2
 575 210 l 2
 553 210 535 228 535 250 c 0
135 150 m 0
 135 172 153 190 175 190 c 2
 225 190 l 2
 247 190 265 172 265 150 c 0
 265 128 247 110 225 110 c 2
 175 110 l 2
 153 110 135 128 135 150 c 0
435 150 m 0
 435 172 453 190 475 190 c 2
 525 190 l 2
 547 190 565 172 565 150 c 0
 565 128 547 110 525 110 c 2
 475 110 l 2
 453 110 435 128 435 150 c 0
135 50 m 0
 135 72 153 90 175 90 c 2
 425 90 l 2
 447 90 465 72 465 50 c 0
 465 28 447 10 425 10 c 2
 175 10 l 2
 153 10 135 28 135 50 c 0
EndSplineSet
EndChar

StartChar: Oslash
Encoding: 216 216 142
Width: 600
Flags: HMW
AnchorPoint: "marks_below" 300 0 basechar 0
AnchorPoint: "marks_above" 300 800 basechar 0
LayerCount: 2
Fore
SplineSet
135 50 m 0
 135 72 153 90 175 90 c 2
 425 90 l 2
 447 90 465 72 465 50 c 0
 465 28 447 10 425 10 c 2
 175 10 l 2
 153 10 135 28 135 50 c 0
435 150 m 0
 435 172 453 190 475 190 c 2
 525 190 l 2
 547 190 565 172 565 150 c 0
 565 128 547 110 525 110 c 2
 475 110 l 2
 453 110 435 128 435 150 c 0
35 150 m 0
 35 172 53 190 75 190 c 2
 125 190 l 2
 147 190 165 172 165 150 c 0
 165 128 147 110 125 110 c 2
 75 110 l 2
 53 110 35 128 35 150 c 0
435 250 m 0
 435 272 453 290 475 290 c 2
 525 290 l 2
 547 290 565 272 565 250 c 0
 565 228 547 210 525 210 c 2
 475 210 l 2
 453 210 435 228 435 250 c 0
135 250 m 0
 135 272 153 290 175 290 c 2
 225 290 l 2
 247 290 265 272 265 250 c 0
 265 228 247 210 225 210 c 2
 175 210 l 2
 153 210 135 228 135 250 c 0
435 350 m 0
 435 372 453 390 475 390 c 2
 525 390 l 2
 547 390 565 372 565 350 c 0
 565 328 547 310 525 310 c 2
 475 310 l 2
 453 310 435 328 435 350 c 0
235 350 m 0
 235 372 253 390 275 390 c 2
 325 390 l 2
 347 390 365 372 365 350 c 0
 365 328 347 310 325 310 c 2
 275 310 l 2
 253 310 235 328 235 350 c 0
35 350 m 0
 35 372 53 390 75 390 c 2
 125 390 l 2
 147 390 165 372 165 350 c 0
 165 328 147 310 125 310 c 2
 75 310 l 2
 53 310 35 328 35 350 c 0
335 450 m 0
 335 472 353 490 375 490 c 2
 425 490 l 2
 447 490 465 472 465 450 c 0
 465 428 447 410 425 410 c 2
 375 410 l 2
 353 410 335 428 335 450 c 0
35 450 m 0
 35 472 53 490 75 490 c 2
 125 490 l 2
 147 490 165 472 165 450 c 0
 165 428 147 410 125 410 c 2
 75 410 l 2
 53 410 35 428 35 450 c 0
435 550 m 0
 435 572 453 590 475 590 c 2
 525 590 l 2
 547 590 565 572 565 550 c 0
 565 528 547 510 525 510 c 2
 475 510 l 2
 453 510 435 528 435 550 c 0
35 550 m 0
 35 572 53 590 75 590 c 2
 125 590 l 2
 147 590 165 572 165 550 c 0
 165 528 147 510 125 510 c 2
 75 510 l 2
 53 510 35 528 35 550 c 0
135 650 m 0
 135 672 153 690 175 690 c 2
 425 690 l 2
 447 690 465 672 465 650 c 0
 465 628 447 610 425 610 c 2
 175 610 l 2
 153 610 135 628 135 650 c 0
EndSplineSet
EndChar

StartChar: Thorn
Encoding: 222 222 148
Width: 600
Flags: HMW
AnchorPoint: "marks_below" 300 0 basechar 0
AnchorPoint: "marks_above" 300 800 basechar 0
LayerCount: 2
Fore
SplineSet
35 50 m 0
 35 72 53 90 75 90 c 2
 125 90 l 2
 147 90 165 72 165 50 c 0
 165 28 147 10 125 10 c 2
 75 10 l 2
 53 10 35 28 35 50 c 0
35 150 m 0
 35 172 53 190 75 190 c 2
 425 190 l 2
 447 190 465 172 465 150 c 0
 465 128 447 110 425 110 c 2
 75 110 l 2
 53 110 35 128 35 150 c 0
435 250 m 0
 435 272 453 290 475 290 c 2
 525 290 l 2
 547 290 565 272 565 250 c 0
 565 228 547 210 525 210 c 2
 475 210 l 2
 453 210 435 228 435 250 c 0
35 250 m 0
 35 272 53 290 75 290 c 2
 125 290 l 2
 147 290 165 272 165 250 c 0
 165 228 147 210 125 210 c 2
 75 210 l 2
 53 210 35 228 35 250 c 0
435 350 m 0
 435 372 453 390 475 390 c 2
 525 390 l 2
 547 390 565 372 565 350 c 0
 565 328 547 310 525 310 c 2
 475 310 l 2
 453 310 435 328 435 350 c 0
35 350 m 0
 35 372 53 390 75 390 c 2
 125 390 l 2
 147 390 165 372 165 350 c 0
 165 328 147 310 125 310 c 2
 75 310 l 2
 53 310 35 328 35 350 c 0
435 450 m 0
 435 472 453 490 475 490 c 2
 525 490 l 2
 547 490 565 472 565 450 c 0
 565 428 547 410 525 410 c 2
 475 410 l 2
 453 410 435 428 435 450 c 0
35 450 m 0
 35 472 53 490 75 490 c 2
 125 490 l 2
 147 490 165 472 165 450 c 0
 165 428 147 410 125 410 c 2
 75 410 l 2
 53 410 35 428 35 450 c 0
35 550 m 0
 35 572 53 590 75 590 c 2
 425 590 l 2
 447 590 465 572 465 550 c 0
 465 528 447 510 425 510 c 2
 75 510 l 2
 53 510 35 528 35 550 c 0
35 650 m 0
 35 672 53 690 75 690 c 2
 125 690 l 2
 147 690 165 672 165 650 c 0
 165 628 147 610 125 610 c 2
 75 610 l 2
 53 610 35 628 35 650 c 0
EndSplineSet
EndChar

StartChar: germandbls
Encoding: 223 223 149
Width: 600
Flags: HMW
AnchorPoint: "marks_below" 300 0 basechar 0
AnchorPoint: "marks_above" 300 800 basechar 0
LayerCount: 2
Fore
SplineSet
235 50 m 0
 235 72 253 90 275 90 c 2
 425 90 l 2
 447 90 465 72 465 50 c 0
 465 28 447 10 425 10 c 2
 275 10 l 2
 253 10 235 28 235 50 c 0
35 50 m 0
 35 72 53 90 75 90 c 2
 125 90 l 2
 147 90 165 72 165 50 c 0
 165 28 147 10 125 10 c 2
 75 10 l 2
 53 10 35 28 35 50 c 0
435 150 m 0
 435 172 453 190 475 190 c 2
 525 190 l 2
 547 190 565 172 565 150 c 0
 565 128 547 110 525 110 c 2
 475 110 l 2
 453 110 435 128 435 150 c 0
35 150 m 0
 35 172 53 190 75 190 c 2
 125 190 l 2
 147 190 165 172 165 150 c 0
 165 128 147 110 125 110 c 2
 75 110 l 2
 53 110 35 128 35 150 c 0
435 250 m 0
 435 272 453 290 475 290 c 2
 525 290 l 2
 547 290 565 272 565 250 c 0
 565 228 547 210 525 210 c 2
 475 210 l 2
 453 210 435 228 435 250 c 0
35 250 m 0
 35 272 53 290 75 290 c 2
 125 290 l 2
 147 290 165 272 165 250 c 0
 165 228 147 210 125 210 c 2
 75 210 l 2
 53 210 35 228 35 250 c 0
235 350 m 0
 235 372 253 390 275 390 c 2
 425 390 l 2
 447 390 465 372 465 350 c 0
 465 328 447 310 425 310 c 2
 275 310 l 2
 253 310 235 328 235 350 c 0
35 350 m 0
 35 372 53 390 75 390 c 2
 125 390 l 2
 147 390 165 372 165 350 c 0
 165 328 147 310 125 310 c 2
 75 310 l 2
 53 310 35 328 35 350 c 0
335 450 m 0
 335 472 353 490 375 490 c 2
 425 490 l 2
 447 490 465 472 465 450 c 0
 465 428 447 410 425 410 c 2
 375 410 l 2
 353 410 335 428 335 450 c 0
35 450 m 0
 35 472 53 490 75 490 c 2
 125 490 l 2
 147 490 165 472 165 450 c 0
 165 428 147 410 125 410 c 2
 75 410 l 2
 53 410 35 428 35 450 c 0
335 550 m 0
 335 572 353 590 375 590 c 2
 425 590 l 2
 447 590 465 572 465 550 c 0
 465 528 447 510 425 510 c 2
 375 510 l 2
 353 510 335 528 335 550 c 0
35 550 m 0
 35 572 53 590 75 590 c 2
 125 590 l 2
 147 590 165 572 165 550 c 0
 165 528 147 510 125 510 c 2
 75 510 l 2
 53 510 35 528 35 550 c 0
135 650 m 0
 135 672 153 690 175 690 c 2
 325 690 l 2
 347 690 365 672 365 650 c 0
 365 628 347 610 325 610 c 2
 175 610 l 2
 153 610 135 628 135 650 c 0
EndSplineSet
EndChar

StartChar: ae
Encoding: 230 230 156
Width: 800
Flags: HMW
AnchorPoint: "marks_below" 400 0 basechar 0
AnchorPoint: "marks_above" 400 600 basechar 0
LayerCount: 2
Fore
SplineSet
135 450 m 0
 135 472 153 490 175 490 c 2
 325 490 l 2
 347 490 365 472 365 450 c 0
 365 428 347 410 325 410 c 2
 175 410 l 2
 153 410 135 428 135 450 c 0
435 450 m 0
 435 472 453 490 475 490 c 2
 625 490 l 2
 647 490 665 472 665 450 c 0
 665 428 647 410 625 410 c 2
 475 410 l 2
 453 410 435 428 435 450 c 0
335 350 m 0
 335 372 353 390 375 390 c 2
 425 390 l 2
 447 390 465 372 465 350 c 0
 465 328 447 310 425 310 c 2
 375 310 l 2
 353 310 335 328 335 350 c 0
635 350 m 0
 635 372 653 390 675 390 c 2
 725 390 l 2
 747 390 765 372 765 350 c 0
 765 328 747 310 725 310 c 2
 675 310 l 2
 653 310 635 328 635 350 c 0
135 250 m 0
 135 272 153 290 175 290 c 2
 725 290 l 2
 747 290 765 272 765 250 c 0
 765 228 747 210 725 210 c 2
 175 210 l 2
 153 210 135 228 135 250 c 0
35 150 m 0
 35 172 53 190 75 190 c 2
 125 190 l 2
 147 190 165 172 165 150 c 0
 165 128 147 110 125 110 c 2
 75 110 l 2
 53 110 35 128 35 150 c 0
335 150 m 0
 335 172 353 190 375 190 c 2
 425 190 l 2
 447 190 465 172 465 150 c 0
 465 128 447 110 425 110 c 2
 375 110 l 2
 353 110 335 128 335 150 c 0
135 50 m 0
 135 72 153 90 175 90 c 2
 325 90 l 2
 347 90 365 72 365 50 c 0
 365 28 347 10 325 10 c 2
 175 10 l 2
 153 10 135 28 135 50 c 0
435 50 m 0
 435 72 453 90 475 90 c 2
 625 90 l 2
 647 90 665 72 665 50 c 0
 665 28 647 10 625 10 c 2
 475 10 l 2
 453 10 435 28 435 50 c 0
EndSplineSet
EndChar

StartChar: eth
Encoding: 240 240 166
Width: 600
Flags: HMW
AnchorPoint: "marks_below" 300 0 basechar 0
AnchorPoint: "marks_above" 300 800 basechar 0
LayerCount: 2
Fore
SplineSet
135 50 m 0
 135 72 153 90 175 90 c 2
 425 90 l 2
 447 90 465 72 465 50 c 0
 465 28 447 10 425 10 c 2
 175 10 l 2
 153 10 135 28 135 50 c 0
435 150 m 0
 435 172 453 190 475 190 c 2
 525 190 l 2
 547 190 565 172 565 150 c 0
 565 128 547 110 525 110 c 2
 475 110 l 2
 453 110 435 128 435 150 c 0
35 150 m 0
 35 172 53 190 75 190 c 2
 125 190 l 2
 147 190 165 172 165 150 c 0
 165 128 147 110 125 110 c 2
 75 110 l 2
 53 110 35 128 35 150 c 0
135 250 m 0
 135 272 153 290 175 290 c 2
 525 290 l 2
 547 290 565 272 565 250 c 0
 565 228 547 210 525 210 c 2
 175 210 l 2
 153 210 135 228 135 250 c 0
435 350 m 0
 435 372 453 390 475 390 c 2
 525 390 l 2
 547 390 565 372 565 350 c 0
 565 328 547 310 525 310 c 2
 475 310 l 2
 453 310 435 328 435 350 c 0
435 450 m 0
 435 472 453 490 475 490 c 2
 525 490 l 2
 547 490 565 472 565 450 c 0
 565 428 547 410 525 410 c 2
 475 410 l 2
 453 410 435 428 435 450 c 0
235 450 m 0
 235 472 253 490 275 490 c 2
 325 490 l 2
 347 490 365 472 365 450 c 0
 365 428 347 410 325 410 c 2
 275 410 l 2
 253 410 235 428 235 450 c 0
335 550 m 0
 335 572 353 590 375 590 c 2
 425 590 l 2
 447 590 465 572 465 550 c 0
 465 528 447 510 425 510 c 2
 375 510 l 2
 353 510 335 528 335 550 c 0
435 650 m 0
 435 672 453 690 475 690 c 2
 525 690 l 2
 547 690 565 672 565 650 c 0
 565 628 547 610 525 610 c 2
 475 610 l 2
 453 610 435 628 435 650 c 0
135 650 m 0
 135 672 153 690 175 690 c 2
 325 690 l 2
 347 690 365 672 365 650 c 0
 365 628 347 610 325 610 c 2
 175 610 l 2
 153 610 135 628 135 650 c 0
EndSplineSet
EndChar

StartChar: oslash
Encoding: 248 248 174
Width: 600
Flags: HMW
AnchorPoint: "marks_below" 300 0 basechar 0
AnchorPoint: "marks_above" 300 600 basechar 0
LayerCount: 2
Fore
SplineSet
235 50 m 0
 235 72 253 90 275 90 c 2
 425 90 l 2
 447 90 465 72 465 50 c 0
 465 28 447 10 425 10 c 2
 275 10 l 2
 253 10 235 28 235 50 c 0
35 50 m 0
 35 72 53 90 75 90 c 2
 125 90 l 2
 147 90 165 72 165 50 c 0
 165 28 147 10 125 10 c 2
 75 10 l 2
 53 10 35 28 35 50 c 0
435 150 m 0
 435 172 453 190 475 190 c 2
 525 190 l 2
 547 190 565 172 565 150 c 0
 565 128 547 110 525 110 c 2
 475 110 l 2
 453 110 435 128 435 150 c 0
135 150 m 0
 135 172 153 190 175 190 c 2
 225 190 l 2
 247 190 265 172 265 150 c 0
 265 128 247 110 225 110 c 2
 175 110 l 2
 153 110 135 128 135 150 c 0
435 250 m 0
 435 272 453 290 475 290 c 2
 525 290 l 2
 547 290 565 272 565 250 c 0
 565 228 547 210 525 210 c 2
 475 210 l 2
 453 210 435 228 435 250 c 0
235 250 m 0
 235 272 253 290 275 290 c 2
 325 290 l 2
 347 290 365 272 365 250 c 0
 365 228 347 210 325 210 c 2
 275 210 l 2
 253 210 235 228 235 250 c 0
35 250 m 0
 35 272 53 290 75 290 c 2
 125 290 l 2
 147 290 165 272 165 250 c 0
 165 228 147 210 125 210 c 2
 75 210 l 2
 53 210 35 228 35 250 c 0
335 350 m 0
 335 372 353 390 375 390 c 2
 425 390 l 2
 447 390 465 372 465 350 c 0
 465 328 447 310 425 310 c 2
 375 310 l 2
 353 310 335 328 335 350 c 0
35 350 m 0
 35 372 53 390 75 390 c 2
 125 390 l 2
 147 390 165 372 165 350 c 0
 165 328 147 310 125 310 c 2
 75 310 l 2
 53 310 35 328 35 350 c 0
435 450 m 0
 435 472 453 490 475 490 c 2
 525 490 l 2
 547 490 565 472 565 450 c 0
 565 428 547 410 525 410 c 2
 475 410 l 2
 453 410 435 428 435 450 c 0
135 450 m 0
 135 472 153 490 175 490 c 2
 325 490 l 2
 347 490 365 472 365 450 c 0
 365 428 347 410 325 410 c 2
 175 410 l 2
 153 410 135 428 135 450 c 0
EndSplineSet
EndChar

StartChar: thorn
Encoding: 254 254 180
Width: 600
Flags: HMW
LayerCount: 2
Fore
SplineSet
35 -150 m 0
 35 -128 53 -110 75 -110 c 2
 125 -110 l 2
 147 -110 165 -128 165 -150 c 0
 165 -172 147 -190 125 -190 c 2
 75 -190 l 2
 53 -190 35 -172 35 -150 c 0
35 -50 m 0
 35 -28 53 -10 75 -10 c 2
 125 -10 l 2
 147 -10 165 -28 165 -50 c 0
 165 -72 147 -90 125 -90 c 2
 75 -90 l 2
 53 -90 35 -72 35 -50 c 0
235 50 m 0
 235 72 253 90 275 90 c 2
 425 90 l 2
 447 90 465 72 465 50 c 0
 465 28 447 10 425 10 c 2
 275 10 l 2
 253 10 235 28 235 50 c 0
35 50 m 0
 35 72 53 90 75 90 c 2
 125 90 l 2
 147 90 165 72 165 50 c 0
 165 28 147 10 125 10 c 2
 75 10 l 2
 53 10 35 28 35 50 c 0
435 150 m 0
 435 172 453 190 475 190 c 2
 525 190 l 2
 547 190 565 172 565 150 c 0
 565 128 547 110 525 110 c 2
 475 110 l 2
 453 110 435 128 435 150 c 0
35 150 m 0
 35 172 53 190 75 190 c 2
 225 190 l 2
 247 190 265 172 265 150 c 0
 265 128 247 110 225 110 c 2
 75 110 l 2
 53 110 35 128 35 150 c 0
435 250 m 0
 435 272 453 290 475 290 c 2
 525 290 l 2
 547 290 565 272 565 250 c 0
 565 228 547 210 525 210 c 2
 475 210 l 2
 453 210 435 228 435 250 c 0
35 250 m 0
 35 272 53 290 75 290 c 2
 125 290 l 2
 147 290 165 272 165 250 c 0
 165 228 147 210 125 210 c 2
 75 210 l 2
 53 210 35 228 35 250 c 0
435 350 m 0
 435 372 453 390 475 390 c 2
 525 390 l 2
 547 390 565 372 565 350 c 0
 565 328 547 310 525 310 c 2
 475 310 l 2
 453 310 435 328 435 350 c 0
35 350 m 0
 35 372 53 390 75 390 c 2
 225 390 l 2
 247 390 265 372 265 350 c 0
 265 328 247 310 225 310 c 2
 75 310 l 2
 53 310 35 328 35 350 c 0
235 450 m 0
 235 472 253 490 275 490 c 2
 425 490 l 2
 447 490 465 472 465 450 c 0
 465 428 447 410 425 410 c 2
 275 410 l 2
 253 410 235 428 235 450 c 0
35 450 m 0
 35 472 53 490 75 490 c 2
 125 490 l 2
 147 490 165 472 165 450 c 0
 165 428 147 410 125 410 c 2
 75 410 l 2
 53 410 35 428 35 450 c 0
35 550 m 0
 35 572 53 590 75 590 c 2
 125 590 l 2
 147 590 165 572 165 550 c 0
 165 528 147 510 125 510 c 2
 75 510 l 2
 53 510 35 528 35 550 c 0
35 650 m 0
 35 672 53 690 75 690 c 2
 125 690 l 2
 147 690 165 672 165 650 c 0
 165 628 147 610 125 610 c 2
 75 610 l 2
 53 610 35 628 35 650 c 0
EndSplineSet
EndChar

StartChar: dotlessi
Encoding: 305 305 182
Width: 400
Flags: HMW
AnchorPoint: "marks_above" 200 600 basechar 0
LayerCount: 2
Fore
SplineSet
35 50 m 0
 35 72 53 90 75 90 c 2
 325 90 l 2
 347 90 365 72 365 50 c 0
 365 28 347 10 325 10 c 2
 75 10 l 2
 53 10 35 28 35 50 c 0
135 150 m 0
 135 172 153 190 175 190 c 2
 225 190 l 2
 247 190 265 172 265 150 c 0
 265 128 247 110 225 110 c 2
 175 110 l 2
 153 110 135 128 135 150 c 0
135 250 m 0
 135 272 153 290 175 290 c 2
 225 290 l 2
 247 290 265 272 265 250 c 0
 265 228 247 210 225 210 c 2
 175 210 l 2
 153 210 135 228 135 250 c 0
135 350 m 0
 135 372 153 390 175 390 c 2
 225 390 l 2
 247 390 265 372 265 350 c 0
 265 328 247 310 225 310 c 2
 175 310 l 2
 153 310 135 328 135 350 c 0
35 450 m 0
 35 472 53 490 75 490 c 2
 225 490 l 2
 247 490 265 472 265 450 c 0
 265 428 247 410 225 410 c 2
 75 410 l 2
 53 410 35 428 35 450 c 0
EndSplineSet
EndChar

StartChar: Lslash
Encoding: 321 321 183
Width: 600
Flags: HMW
AnchorPoint: "marks_below" 300 0 basechar 0
AnchorPoint: "marks_above" 300 800 basechar 0
LayerCount: 2
Fore
SplineSet
135 50 m 0
 135 72 153 90 175 90 c 2
 525 90 l 2
 547 90 565 72 565 50 c 0
 565 28 547 10 525 10 c 2
 175 10 l 2
 153 10 135 28 135 50 c 0
135 150 m 0
 135 172 153 190 175 190 c 2
 225 190 l 2
 247 190 265 172 265 150 c 0
 265 128 247 110 225 110 c 2
 175 110 l 2
 153 110 135 128 135 150 c 0
35 250 m 0
 35 272 53 290 75 290 c 2
 225 290 l 2
 247 290 265 272 265 250 c 0
 265 228 247 210 225 210 c 2
 75 210 l 2
 53 210 35 228 35 250 c 0
135 350 m 0
 135 372 153 390 175 390 c 2
 225 390 l 2
 247 390 265 372 265 350 c 0
 265 328 247 310 225 310 c 2
 175 310 l 2
 153 310 135 328 135 350 c 0
135 450 m 0
 135 472 153 490 175 490 c 2
 325 490 l 2
 347 490 365 472 365 450 c 0
 365 428 347 410 325 410 c 2
 175 410 l 2
 153 410 135 428 135 450 c 0
335 550 m 0
 335 572 353 590 375 590 c 2
 425 590 l 2
 447 590 465 572 465 550 c 0
 465 528 447 510 425 510 c 2
 375 510 l 2
 353 510 335 528 335 550 c 0
135 550 m 0
 135 572 153 590 175 590 c 2
 225 590 l 2
 247 590 265 572 265 550 c 0
 265 528 247 510 225 510 c 2
 175 510 l 2
 153 510 135 528 135 550 c 0
135 650 m 0
 135 672 153 690 175 690 c 2
 225 690 l 2
 247 690 265 672 265 650 c 0
 265 628 247 610 225 610 c 2
 175 610 l 2
 153 610 135 628 135 650 c 0
EndSplineSet
EndChar

StartChar: lslash
Encoding: 322 322 184
Width: 400
Flags: HMW
AnchorPoint: "marks_below" 200 0 basechar 0
AnchorPoint: "ogonek" 200 0 basechar 0
AnchorPoint: "marks_above" 200 800 basechar 0
LayerCount: 2
Fore
SplineSet
35 50 m 0
 35 72 53 90 75 90 c 2
 325 90 l 2
 347 90 365 72 365 50 c 0
 365 28 347 10 325 10 c 2
 75 10 l 2
 53 10 35 28 35 50 c 0
135 150 m 0
 135 172 153 190 175 190 c 2
 225 190 l 2
 247 190 265 172 265 150 c 0
 265 128 247 110 225 110 c 2
 175 110 l 2
 153 110 135 128 135 150 c 0
35 250 m 0
 35 272 53 290 75 290 c 2
 225 290 l 2
 247 290 265 272 265 250 c 0
 265 228 247 210 225 210 c 2
 75 210 l 2
 53 210 35 228 35 250 c 0
135 350 m 0
 135 372 153 390 175 390 c 2
 225 390 l 2
 247 390 265 372 265 350 c 0
 265 328 247 310 225 310 c 2
 175 310 l 2
 153 310 135 328 135 350 c 0
135 450 m 0
 135 472 153 490 175 490 c 2
 325 490 l 2
 347 490 365 472 365 450 c 0
 365 428 347 410 325 410 c 2
 175 410 l 2
 153 410 135 428 135 450 c 0
135 550 m 0
 135 572 153 590 175 590 c 2
 225 590 l 2
 247 590 265 572 265 550 c 0
 265 528 247 510 225 510 c 2
 175 510 l 2
 153 510 135 528 135 550 c 0
35 650 m 0
 35 672 53 690 75 690 c 2
 225 690 l 2
 247 690 265 672 265 650 c 0
 265 628 247 610 225 610 c 2
 75 610 l 2
 53 610 35 628 35 650 c 0
EndSplineSet
EndChar

StartChar: OE
Encoding: 338 338 185
Width: 800
Flags: HMW
AnchorPoint: "marks_below" 400 0 basechar 0
AnchorPoint: "marks_above" 400 800 basechar 0
LayerCount: 2
Fore
SplineSet
135 650 m 0
 135 672 153 690 175 690 c 2
 725 690 l 2
 747 690 765 672 765 650 c 0
 765 628 747 610 725 610 c 2
 175 610 l 2
 153 610 135 628 135 650 c 0
35 550 m 0
 35 572 53 590 75 590 c 2
 125 590 l 2
 147 590 165 572 165 550 c 0
 165 528 147 510 125 510 c 2
 75 510 l 2
 53 510 35 528 35 550 c 0
335 550 m 0
 335 572 353 590 375 590 c 2
 425 590 l 2
 447 590 465 572 465 550 c 0
 465 528 447 510 425 510 c 2
 375 510 l 2
 353 510 335 528 335 550 c 0
35 450 m 0
 35 472 53 490 75 490 c 2
 125 490 l 2
 147 490 165 472 165 450 c 0
 165 428 147 410 125 410 c 2
 75 410 l 2
 53 410 35 428 35 450 c 0
335 450 m 0
 335 472 353 490 375 490 c 2
 425 490 l 2
 447 490 465 472 465 450 c 0
 465 428 447 410 425 410 c 2
 375 410 l 2
 353 410 335 428 335 450 c 0
35 350 m 0
 35 372 53 390 75 390 c 2
 125 390 l 2
 147 390 165 372 165 350 c 0
 165 328 147 310 125 310 c 2
 75 310 l 2
 53 310 35 328 35 350 c 0
335 350 m 0
 335 372 353 390 375 390 c 2
 625 390 l 2
 647 390 665 372 665 350 c 0
 665 328 647 310 625 310 c 2
 375 310 l 2
 353 310 335 328 335 350 c 0
35 250 m 0
 35 272 53 290 75 290 c 2
 125 290 l 2
 147 290 165 272 165 250 c 0
 165 228 147 210 125 210 c 2
 75 210 l 2
 53 210 35 228 35 250 c 0
335 250 m 0
 335 272 353 290 375 290 c 2
 425 290 l 2
 447 290 465 272 465 250 c 0
 465 228 447 210 425 210 c 2
 375 210 l 2
 353 210 335 228 335 250 c 0
35 150 m 0
 35 172 53 190 75 190 c 2
 125 190 l 2
 147 190 165 172 165 150 c 0
 165 128 147 110 125 110 c 2
 75 110 l 2
 53 110 35 128 35 150 c 0
335 150 m 0
 335 172 353 190 375 190 c 2
 425 190 l 2
 447 190 465 172 465 150 c 0
 465 128 447 110 425 110 c 2
 375 110 l 2
 353 110 335 128 335 150 c 0
135 50 m 0
 135 72 153 90 175 90 c 2
 725 90 l 2
 747 90 765 72 765 50 c 0
 765 28 747 10 725 10 c 2
 175 10 l 2
 153 10 135 28 135 50 c 0
EndSplineSet
EndChar

StartChar: oe
Encoding: 339 339 186
Width: 800
Flags: HMW
AnchorPoint: "marks_below" 400 0 basechar 0
AnchorPoint: "marks_above" 400 600 basechar 0
LayerCount: 2
Fore
SplineSet
135 450 m 0
 135 472 153 490 175 490 c 2
 325 490 l 2
 347 490 365 472 365 450 c 0
 365 428 347 410 325 410 c 2
 175 410 l 2
 153 410 135 428 135 450 c 0
435 450 m 0
 435 472 453 490 475 490 c 2
 625 490 l 2
 647 490 665 472 665 450 c 0
 665 428 647 410 625 410 c 2
 475 410 l 2
 453 410 435 428 435 450 c 0
35 350 m 0
 35 372 53 390 75 390 c 2
 125 390 l 2
 147 390 165 372 165 350 c 0
 165 328 147 310 125 310 c 2
 75 310 l 2
 53 310 35 328 35 350 c 0
335 350 m 0
 335 372 353 390 375 390 c 2
 425 390 l 2
 447 390 465 372 465 350 c 0
 465 328 447 310 425 310 c 2
 375 310 l 2
 353 310 335 328 335 350 c 0
635 350 m 0
 635 372 653 390 675 390 c 2
 725 390 l 2
 747 390 765 372 765 350 c 0
 765 328 747 310 725 310 c 2
 675 310 l 2
 653 310 635 328 635 350 c 0
35 250 m 0
 35 272 53 290 75 290 c 2
 125 290 l 2
 147 290 165 272 165 250 c 0
 165 228 147 210 125 210 c 2
 75 210 l 2
 53 210 35 228 35 250 c 0
335 250 m 0
 335 272 353 290 375 290 c 2
 725 290 l 2
 747 290 765 272 765 250 c 0
 765 228 747 210 725 210 c 2
 375 210 l 2
 353 210 335 228 335 250 c 0
35 150 m 0
 35 172 53 190 75 190 c 2
 125 190 l 2
 147 190 165 172 165 150 c 0
 165 128 147 110 125 110 c 2
 75 110 l 2
 53 110 35 128 35 150 c 0
335 150 m 0
 335 172 353 190 375 190 c 2
 425 190 l 2
 447 190 465 172 465 150 c 0
 465 128 447 110 425 110 c 2
 375 110 l 2
 353 110 335 128 335 150 c 0
135 50 m 0
 135 72 153 90 175 90 c 2
 325 90 l 2
 347 90 365 72 365 50 c 0
 365 28 347 10 325 10 c 2
 175 10 l 2
 153 10 135 28 135 50 c 0
435 50 m 0
 435 72 453 90 475 90 c 2
 625 90 l 2
 647 90 665 72 665 50 c 0
 665 28 647 10 625 10 c 2
 475 10 l 2
 453 10 435 28 435 50 c 0
EndSplineSet
EndChar

StartChar: florin
Encoding: 402 402 187
Width: 700
Flags: HMW
LayerCount: 2
Fore
SplineSet
335 650 m 0
 335 672 353 690 375 690 c 2
 525 690 l 2
 547 690 565 672 565 650 c 0
 565 628 547 610 525 610 c 2
 375 610 l 2
 353 610 335 628 335 650 c 0
235 550 m 0
 235 572 253 590 275 590 c 2
 325 590 l 2
 347 590 365 572 365 550 c 0
 365 528 347 510 325 510 c 2
 275 510 l 2
 253 510 235 528 235 550 c 0
535 550 m 0
 535 572 553 590 575 590 c 2
 625 590 l 2
 647 590 665 572 665 550 c 0
 665 528 647 510 625 510 c 2
 575 510 l 2
 553 510 535 528 535 550 c 0
235 450 m 0
 235 472 253 490 275 490 c 2
 325 490 l 2
 347 490 365 472 365 450 c 0
 365 428 347 410 325 410 c 2
 275 410 l 2
 253 410 235 428 235 450 c 0
135 350 m 0
 135 372 153 390 175 390 c 2
 525 390 l 2
 547 390 565 372 565 350 c 0
 565 328 547 310 525 310 c 2
 175 310 l 2
 153 310 135 328 135 350 c 0
235 250 m 0
 235 272 253 290 275 290 c 2
 325 290 l 2
 347 290 365 272 365 250 c 0
 365 228 347 210 325 210 c 2
 275 210 l 2
 253 210 235 228 235 250 c 0
235 150 m 0
 235 172 253 190 275 190 c 2
 325 190 l 2
 347 190 365 172 365 150 c 0
 365 128 347 110 325 110 c 2
 275 110 l 2
 253 110 235 128 235 150 c 0
235 50 m 0
 235 72 253 90 275 90 c 2
 325 90 l 2
 347 90 365 72 365 50 c 0
 365 28 347 10 325 10 c 2
 275 10 l 2
 253 10 235 28 235 50 c 0
235 -50 m 0
 235 -28 253 -10 275 -10 c 2
 325 -10 l 2
 347 -10 365 -28 365 -50 c 0
 365 -72 347 -90 325 -90 c 2
 275 -90 l 2
 253 -90 235 -72 235 -50 c 0
35 -150 m 0
 35 -128 53 -110 75 -110 c 2
 225 -110 l 2
 247 -110 265 -128 265 -150 c 0
 265 -172 247 -190 225 -190 c 2
 75 -190 l 2
 53 -190 35 -172 35 -150 c 0
EndSplineSet
EndChar

StartChar: circumflex
Encoding: 710 710 188
Width: 400
Flags: HMW
LayerCount: 2
Fore
SplineSet
235 650 m 0
 235 672 253 690 275 690 c 2
 325 690 l 2
 347 690 365 672 365 650 c 0
 365 628 347 610 325 610 c 2
 275 610 l 2
 253 610 235 628 235 650 c 0
35 650 m 0
 35 672 53 690 75 690 c 2
 125 690 l 2
 147 690 165 672 165 650 c 0
 165 628 147 610 125 610 c 2
 75 610 l 2
 53 610 35 628 35 650 c 0
135 750 m 0
 135 772 153 790 175 790 c 2
 225 790 l 2
 247 790 265 772 265 750 c 0
 265 728 247 710 225 710 c 2
 175 710 l 2
 153 710 135 728 135 750 c 0
EndSplineSet
EndChar

StartChar: caron
Encoding: 711 711 189
Width: 400
Flags: HMW
LayerCount: 2
Fore
SplineSet
135 650 m 0
 135 672 153 690 175 690 c 2
 225 690 l 2
 247 690 265 672 265 650 c 0
 265 628 247 610 225 610 c 2
 175 610 l 2
 153 610 135 628 135 650 c 0
235 750 m 0
 235 772 253 790 275 790 c 2
 325 790 l 2
 347 790 365 772 365 750 c 0
 365 728 347 710 325 710 c 2
 275 710 l 2
 253 710 235 728 235 750 c 0
35 750 m 0
 35 772 53 790 75 790 c 2
 125 790 l 2
 147 790 165 772 165 750 c 0
 165 728 147 710 125 710 c 2
 75 710 l 2
 53 710 35 728 35 750 c 0
EndSplineSet
EndChar

StartChar: breve
Encoding: 728 728 190
Width: 600
Flags: HMW
LayerCount: 2
Fore
SplineSet
135 650 m 0
 135 672 153 690 175 690 c 2
 425 690 l 2
 447 690 465 672 465 650 c 0
 465 628 447 610 425 610 c 2
 175 610 l 2
 153 610 135 628 135 650 c 0
435 750 m 0
 435 772 453 790 475 790 c 2
 525 790 l 2
 547 790 565 772 565 750 c 0
 565 728 547 710 525 710 c 2
 475 710 l 2
 453 710 435 728 435 750 c 0
35 750 m 0
 35 772 53 790 75 790 c 2
 125 790 l 2
 147 790 165 772 165 750 c 0
 165 728 147 710 125 710 c 2
 75 710 l 2
 53 710 35 728 35 750 c 0
EndSplineSet
EndChar

StartChar: ring
Encoding: 730 730 191
Width: 400
Flags: HMW
LayerCount: 2
Fore
SplineSet
135 550 m 0
 135 572 153 590 175 590 c 2
 225 590 l 2
 247 590 265 572 265 550 c 0
 265 528 247 510 225 510 c 2
 175 510 l 2
 153 510 135 528 135 550 c 0
235 650 m 0
 235 672 253 690 275 690 c 2
 325 690 l 2
 347 690 365 672 365 650 c 0
 365 628 347 610 325 610 c 2
 275 610 l 2
 253 610 235 628 235 650 c 0
35 650 m 0
 35 672 53 690 75 690 c 2
 125 690 l 2
 147 690 165 672 165 650 c 0
 165 628 147 610 125 610 c 2
 75 610 l 2
 53 610 35 628 35 650 c 0
135 750 m 0
 135 772 153 790 175 790 c 2
 225 790 l 2
 247 790 265 772 265 750 c 0
 265 728 247 710 225 710 c 2
 175 710 l 2
 153 710 135 728 135 750 c 0
EndSplineSet
EndChar

StartChar: ogonek
Encoding: 731 731 192
Width: 300
Flags: HMW
LayerCount: 2
Fore
SplineSet
35 -150 m 0
 35 -128 53 -110 75 -110 c 2
 225 -110 l 2
 247 -110 265 -128 265 -150 c 0
 265 -172 247 -190 225 -190 c 2
 75 -190 l 2
 53 -190 35 -172 35 -150 c 0
35 -50 m 0
 35 -28 53 -10 75 -10 c 2
 125 -10 l 2
 147 -10 165 -28 165 -50 c 0
 165 -72 147 -90 125 -90 c 2
 75 -90 l 2
 53 -90 35 -72 35 -50 c 0
EndSplineSet
EndChar

StartChar: tilde
Encoding: 732 732 193
Width: 600
Flags: HMW
LayerCount: 2
Fore
SplineSet
235 650 m 0
 235 672 253 690 275 690 c 2
 425 690 l 2
 447 690 465 672 465 650 c 0
 465 628 447 610 425 610 c 2
 275 610 l 2
 253 610 235 628 235 650 c 0
35 650 m 0
 35 672 53 690 75 690 c 2
 125 690 l 2
 147 690 165 672 165 650 c 0
 165 628 147 610 125 610 c 2
 75 610 l 2
 53 610 35 628 35 650 c 0
435 750 m 0
 435 772 453 790 475 790 c 2
 525 790 l 2
 547 790 565 772 565 750 c 0
 565 728 547 710 525 710 c 2
 475 710 l 2
 453 710 435 728 435 750 c 0
135 750 m 0
 135 772 153 790 175 790 c 2
 325 790 l 2
 347 790 365 772 365 750 c 0
 365 728 347 710 325 710 c 2
 175 710 l 2
 153 710 135 728 135 750 c 0
EndSplineSet
EndChar

StartChar: pi
Encoding: 960 960 195
Width: 600
Flags: HMW
LayerCount: 2
Fore
SplineSet
435 50 m 0
 435 72 453 90 475 90 c 2
 525 90 l 2
 547 90 565 72 565 50 c 0
 565 28 547 10 525 10 c 2
 475 10 l 2
 453 10 435 28 435 50 c 0
135 50 m 0
 135 72 153 90 175 90 c 2
 225 90 l 2
 247 90 265 72 265 50 c 0
 265 28 247 10 225 10 c 2
 175 10 l 2
 153 10 135 28 135 50 c 0
335 150 m 0
 335 172 353 190 375 190 c 2
 425 190 l 2
 447 190 465 172 465 150 c 0
 465 128 447 110 425 110 c 2
 375 110 l 2
 353 110 335 128 335 150 c 0
135 150 m 0
 135 172 153 190 175 190 c 2
 225 190 l 2
 247 190 265 172 265 150 c 0
 265 128 247 110 225 110 c 2
 175 110 l 2
 153 110 135 128 135 150 c 0
335 250 m 0
 335 272 353 290 375 290 c 2
 425 290 l 2
 447 290 465 272 465 250 c 0
 465 228 447 210 425 210 c 2
 375 210 l 2
 353 210 335 228 335 250 c 0
135 250 m 0
 135 272 153 290 175 290 c 2
 225 290 l 2
 247 290 265 272 265 250 c 0
 265 228 247 210 225 210 c 2
 175 210 l 2
 153 210 135 228 135 250 c 0
335 350 m 0
 335 372 353 390 375 390 c 2
 425 390 l 2
 447 390 465 372 465 350 c 0
 465 328 447 310 425 310 c 2
 375 310 l 2
 353 310 335 328 335 350 c 0
135 350 m 0
 135 372 153 390 175 390 c 2
 225 390 l 2
 247 390 265 372 265 350 c 0
 265 328 247 310 225 310 c 2
 175 310 l 2
 153 310 135 328 135 350 c 0
35 450 m 0
 35 472 53 490 75 490 c 2
 525 490 l 2
 547 490 565 472 565 450 c 0
 565 428 547 410 525 410 c 2
 75 410 l 2
 53 410 35 428 35 450 c 0
EndSplineSet
EndChar

StartChar: emdash
Encoding: 8212 8212 196
Width: 600
Flags: HMW
LayerCount: 2
Fore
SplineSet
-15 350 m 0
 -15 372 3 390 25 390 c 2
 575 390 l 2
 597 390 615 372 615 350 c 0
 615 328 597 310 575 310 c 2
 25 310 l 2
 3 310 -15 328 -15 350 c 0
EndSplineSet
EndChar

StartChar: quoteleft
Encoding: 8216 8216 197
Width: 300
Flags: HMW
LayerCount: 2
Fore
SplineSet
35 450 m 0
 35 472 53 490 75 490 c 2
 125 490 l 2
 147 490 165 472 165 450 c 0
 165 428 147 410 125 410 c 2
 75 410 l 2
 53 410 35 428 35 450 c 0
35 550 m 0
 35 572 53 590 75 590 c 2
 125 590 l 2
 147 590 165 572 165 550 c 0
 165 528 147 510 125 510 c 2
 75 510 l 2
 53 510 35 528 35 550 c 0
135 650 m 0
 135 672 153 690 175 690 c 2
 225 690 l 2
 247 690 265 672 265 650 c 0
 265 628 247 610 225 610 c 2
 175 610 l 2
 153 610 135 628 135 650 c 0
EndSplineSet
EndChar

StartChar: dagger
Encoding: 8224 8224 198
Width: 600
Flags: HMW
LayerCount: 2
Fore
SplineSet
235 -150 m 0
 235 -128 253 -110 275 -110 c 2
 325 -110 l 2
 347 -110 365 -128 365 -150 c 0
 365 -172 347 -190 325 -190 c 2
 275 -190 l 2
 253 -190 235 -172 235 -150 c 0
235 -50 m 0
 235 -28 253 -10 275 -10 c 2
 325 -10 l 2
 347 -10 365 -28 365 -50 c 0
 365 -72 347 -90 325 -90 c 2
 275 -90 l 2
 253 -90 235 -72 235 -50 c 0
235 50 m 0
 235 72 253 90 275 90 c 2
 325 90 l 2
 347 90 365 72 365 50 c 0
 365 28 347 10 325 10 c 2
 275 10 l 2
 253 10 235 28 235 50 c 0
235 150 m 0
 235 172 253 190 275 190 c 2
 325 190 l 2
 347 190 365 172 365 150 c 0
 365 128 347 110 325 110 c 2
 275 110 l 2
 253 110 235 128 235 150 c 0
235 250 m 0
 235 272 253 290 275 290 c 2
 325 290 l 2
 347 290 365 272 365 250 c 0
 365 228 347 210 325 210 c 2
 275 210 l 2
 253 210 235 228 235 250 c 0
235 350 m 0
 235 372 253 390 275 390 c 2
 325 390 l 2
 347 390 365 372 365 350 c 0
 365 328 347 310 325 310 c 2
 275 310 l 2
 253 310 235 328 235 350 c 0
35 450 m 0
 35 472 53 490 75 490 c 2
 525 490 l 2
 547 490 565 472 565 450 c 0
 565 428 547 410 525 410 c 2
 75 410 l 2
 53 410 35 428 35 450 c 0
235 550 m 0
 235 572 253 590 275 590 c 2
 325 590 l 2
 347 590 365 572 365 550 c 0
 365 528 347 510 325 510 c 2
 275 510 l 2
 253 510 235 528 235 550 c 0
235 650 m 0
 235 672 253 690 275 690 c 2
 325 690 l 2
 347 690 365 672 365 650 c 0
 365 628 347 610 325 610 c 2
 275 610 l 2
 253 610 235 628 235 650 c 0
EndSplineSet
EndChar

StartChar: daggerdbl
Encoding: 8225 8225 199
Width: 600
Flags: HMW
LayerCount: 2
Fore
SplineSet
235 150 m 0
 235 172 253 190 275 190 c 2
 325 190 l 2
 347 190 365 172 365 150 c 0
 365 128 347 110 325 110 c 2
 275 110 l 2
 253 110 235 128 235 150 c 0
235 250 m 0
 235 272 253 290 275 290 c 2
 325 290 l 2
 347 290 365 272 365 250 c 0
 365 228 347 210 325 210 c 2
 275 210 l 2
 253 210 235 228 235 250 c 0
235 -150 m 0
 235 -128 253 -110 275 -110 c 2
 325 -110 l 2
 347 -110 365 -128 365 -150 c 0
 365 -172 347 -190 325 -190 c 2
 275 -190 l 2
 253 -190 235 -172 235 -150 c 0
235 -50 m 0
 235 -28 253 -10 275 -10 c 2
 325 -10 l 2
 347 -10 365 -28 365 -50 c 0
 365 -72 347 -90 325 -90 c 2
 275 -90 l 2
 253 -90 235 -72 235 -50 c 0
35 50 m 0
 35 72 53 90 75 90 c 2
 525 90 l 2
 547 90 565 72 565 50 c 0
 565 28 547 10 525 10 c 2
 75 10 l 2
 53 10 35 28 35 50 c 0
235 350 m 0
 235 372 253 390 275 390 c 2
 325 390 l 2
 347 390 365 372 365 350 c 0
 365 328 347 310 325 310 c 2
 275 310 l 2
 253 310 235 328 235 350 c 0
35 450 m 0
 35 472 53 490 75 490 c 2
 525 490 l 2
 547 490 565 472 565 450 c 0
 565 428 547 410 525 410 c 2
 75 410 l 2
 53 410 35 428 35 450 c 0
235 550 m 0
 235 572 253 590 275 590 c 2
 325 590 l 2
 347 590 365 572 365 550 c 0
 365 528 347 510 325 510 c 2
 275 510 l 2
 253 510 235 528 235 550 c 0
235 650 m 0
 235 672 253 690 275 690 c 2
 325 690 l 2
 347 690 365 672 365 650 c 0
 365 628 347 610 325 610 c 2
 275 610 l 2
 253 610 235 628 235 650 c 0
EndSplineSet
EndChar

StartChar: bullet
Encoding: 8226 8226 200
Width: 300
Flags: HMW
LayerCount: 2
Fore
SplineSet
35 350 m 0
 35 372 53 390 75 390 c 2
 225 390 l 2
 247 390 265 372 265 350 c 0
 265 328 247 310 225 310 c 2
 75 310 l 2
 53 310 35 328 35 350 c 0
35 450 m 0
 35 472 53 490 75 490 c 2
 225 490 l 2
 247 490 265 472 265 450 c 0
 265 428 247 410 225 410 c 2
 75 410 l 2
 53 410 35 428 35 450 c 0
EndSplineSet
EndChar

